<?xml version="1.0" encoding="utf-8"?>
<!-- Generator: Adobe Illustrator 24.1.1, SVG Export Plug-In . SVG Version: 6.00 Build 0)  -->
<svg version="1.1" id="Capa_1" xmlns="http://www.w3.org/2000/svg" xmlns:xlink="http://www.w3.org/1999/xlink" x="0px" y="0px"
	 viewBox="0 0 825.41 166.99" style="enable-background:new 0 0 825.41 166.99;" xml:space="preserve">
<style type="text/css">
	.st0{opacity:0.8;fill:#36DE94;}
	.st1{fill:#FFFFFF;}
	.st2{fill:#36DE94;}
	.st3{fill:#441A7B;}
</style>
<g>
	<g>
		<g>
			<path class="st1" d="M3.08,44.2c0-4,0.67-7.7,2-11.09c1.33-3.39,3.27-6.33,5.81-8.82c2.54-2.49,5.65-4.44,9.32-5.85
				c3.67-1.41,7.84-2.12,12.51-2.12c6.52,0,12.42,1.13,17.71,3.39l-0.92,10.24c-2.31-1.33-4.8-2.35-7.47-3.04
				c-2.67-0.69-5.34-1.04-8.01-1.04c-2.88,0-5.47,0.42-7.78,1.27c-2.31,0.85-4.27,2.07-5.89,3.66c-1.62,1.59-2.88,3.52-3.77,5.77
				c-0.9,2.26-1.35,4.8-1.35,7.62c0,2.88,0.44,5.46,1.31,7.74c0.87,2.29,2.12,4.21,3.73,5.78c1.62,1.57,3.57,2.76,5.85,3.58
				c2.28,0.82,4.86,1.23,7.74,1.23c1.13,0,2.16-0.06,3.08-0.19c0.92-0.13,1.74-0.32,2.46-0.58V49.59H27.87v-9.39h23.56v28.64
				c-2.77,1.18-5.63,2.01-8.58,2.5c-2.95,0.49-6.04,0.73-9.28,0.73c-4.72,0-8.97-0.68-12.74-2.04c-3.77-1.36-6.97-3.26-9.59-5.7
				c-2.62-2.44-4.63-5.36-6.04-8.78C3.79,52.14,3.08,48.36,3.08,44.2z"/>
			<path class="st1" d="M57.6,17.25h36.57v9.39H69.61v12.17H92.4v9.39H69.61v13.55h25.26v9.39H57.6V17.25z"/>
			<path class="st1" d="M99.1,17.25h13.55l20.79,36.96V17.25h11.63v53.9h-13.55l-20.79-36.96v36.96H99.1V17.25z"/>
			<path class="st1" d="M152,17.25h36.57v9.39h-24.56v12.17h22.79v9.39h-22.79v13.55h25.26v9.39H152V17.25z"/>
			<path class="st1" d="M234.23,33.8c0,3.65-0.96,6.75-2.89,9.32c-1.92,2.57-4.58,4.52-7.97,5.85l14.86,22.18h-13.09l-13.09-20.33
				h-6.54v20.33H193.5v-53.9h19.48c3.03,0,5.84,0.35,8.43,1.04c2.59,0.69,4.84,1.72,6.74,3.08c1.9,1.36,3.39,3.08,4.47,5.16
				C233.69,28.6,234.23,31.03,234.23,33.8z M222.07,33.8c0-2.62-0.86-4.52-2.58-5.7c-1.72-1.18-4.15-1.77-7.28-1.77h-6.7v15.4h6.7
				c3.13,0,5.56-0.67,7.28-2C221.21,38.4,222.07,36.42,222.07,33.8z"/>
			<path class="st1" d="M270.42,59.14h-19.4l-3.77,12.01h-12.78l18.79-53.9h14.94l18.79,53.9H274.2L270.42,59.14z M253.94,49.74
				h13.55l-6.78-21.79L253.94,49.74z"/>
			<path class="st1" d="M318.54,34.8v36.34h-11.63v-53.9h13.09l15.32,25.26l15.4-25.26h13.09v53.9h-11.63V34.8l-11.7,19.56h-10.24
				L318.54,34.8z"/>
			<path class="st1" d="M401.24,59.14h-19.4l-3.77,12.01h-12.78l18.79-53.9h14.94l18.79,53.9h-12.78L401.24,59.14z M393.39,0h10.78
				v1.93l-10.93,11.17h-9.24L393.39,0z M384.76,49.74h13.55l-6.78-21.79L384.76,49.74z"/>
			<path class="st1" d="M416.95,31.49c0-4.72,1.72-8.43,5.16-11.13c3.44-2.7,8.39-4.04,14.86-4.04c2.67,0,5.29,0.23,7.85,0.69
				c2.57,0.46,4.95,1.13,7.16,2l-0.85,9.7c-4.52-1.9-8.96-2.85-13.32-2.85c-3.13,0-5.37,0.49-6.7,1.46c-1.33,0.98-2,2.21-2,3.7
				c0,1.64,0.67,3.09,2,4.35c1.33,1.26,3.85,2.5,7.55,3.73c5.65,1.9,9.75,4.18,12.32,6.85c2.57,2.67,3.85,6.06,3.85,10.16
				c0,5.08-1.72,9.01-5.16,11.78c-3.44,2.77-8.68,4.16-15.71,4.16c-2.93,0-5.87-0.31-8.82-0.92s-5.61-1.51-7.97-2.7l0.92-10.55
				c2.16,1.49,4.55,2.63,7.2,3.43c2.64,0.8,5.4,1.19,8.28,1.19c2.77,0,4.98-0.47,6.62-1.42c1.64-0.95,2.46-2.42,2.46-4.43
				c0-0.92-0.15-1.77-0.46-2.54c-0.31-0.77-0.86-1.48-1.66-2.12c-0.8-0.64-1.86-1.27-3.2-1.89c-1.34-0.62-3-1.26-5-1.92
				c-5.29-1.64-9.18-3.82-11.67-6.54C418.19,38.94,416.95,35.55,416.95,31.49z"/>
			<path class="st1" d="M489.94,17.25v53.9h-12.01v-53.9H489.94z"/>
			<path class="st1" d="M497.26,17.25h13.55l20.79,36.96V17.25h11.63v53.9h-13.55l-20.79-36.96v36.96h-11.63V17.25z"/>
			<path class="st1" d="M547.46,44.2c0-4,0.67-7.7,2-11.09c1.33-3.39,3.27-6.33,5.81-8.82c2.54-2.49,5.65-4.44,9.32-5.85
				c3.67-1.41,7.84-2.12,12.51-2.12c6.52,0,12.42,1.13,17.71,3.39l-0.92,10.24c-2.31-1.33-4.8-2.35-7.47-3.04
				c-2.67-0.69-5.34-1.04-8.01-1.04c-2.88,0-5.47,0.42-7.78,1.27c-2.31,0.85-4.27,2.07-5.89,3.66c-1.62,1.59-2.88,3.52-3.77,5.77
				c-0.9,2.26-1.35,4.8-1.35,7.62c0,2.88,0.44,5.46,1.31,7.74c0.87,2.29,2.12,4.21,3.73,5.78c1.62,1.57,3.57,2.76,5.85,3.58
				c2.28,0.82,4.86,1.23,7.74,1.23c1.13,0,2.16-0.06,3.08-0.19c0.92-0.13,1.74-0.32,2.46-0.58V49.59h-11.55v-9.39h23.56v28.64
				c-2.77,1.18-5.63,2.01-8.58,2.5c-2.95,0.49-6.04,0.73-9.28,0.73c-4.72,0-8.97-0.68-12.74-2.04c-3.77-1.36-6.97-3.26-9.59-5.7
				c-2.62-2.44-4.63-5.36-6.04-8.78C548.17,52.14,547.46,48.36,547.46,44.2z"/>
			<path class="st1" d="M642.71,33.8c0,3.65-0.96,6.75-2.89,9.32c-1.92,2.57-4.58,4.52-7.97,5.85l14.86,22.18h-13.09l-13.09-20.33
				h-6.54v20.33h-12.01v-53.9h19.48c3.03,0,5.84,0.35,8.43,1.04c2.59,0.69,4.84,1.72,6.74,3.08c1.9,1.36,3.39,3.08,4.47,5.16
				C642.17,28.6,642.71,31.03,642.71,33.8z M630.54,33.8c0-2.62-0.86-4.52-2.58-5.7c-1.72-1.18-4.15-1.77-7.28-1.77h-6.7v15.4h6.7
				c3.13,0,5.56-0.67,7.28-2C629.68,38.4,630.54,36.42,630.54,33.8z"/>
			<path class="st1" d="M648.41,17.25h36.57v9.39h-24.56v12.17h22.79v9.39h-22.79v13.55h25.26v9.39h-37.27V17.25z"/>
			<path class="st1" d="M687.6,31.49c0-4.72,1.72-8.43,5.16-11.13c3.44-2.7,8.39-4.04,14.86-4.04c2.67,0,5.29,0.23,7.85,0.69
				c2.57,0.46,4.95,1.13,7.16,2l-0.85,9.7c-4.52-1.9-8.96-2.85-13.32-2.85c-3.13,0-5.37,0.49-6.7,1.46c-1.33,0.98-2,2.21-2,3.7
				c0,1.64,0.67,3.09,2,4.35c1.33,1.26,3.85,2.5,7.55,3.73c5.65,1.9,9.75,4.18,12.32,6.85c2.57,2.67,3.85,6.06,3.85,10.16
				c0,5.08-1.72,9.01-5.16,11.78c-3.44,2.77-8.68,4.16-15.71,4.16c-2.93,0-5.87-0.31-8.82-0.92s-5.61-1.51-7.97-2.7l0.92-10.55
				c2.16,1.49,4.55,2.63,7.2,3.43c2.64,0.8,5.4,1.19,8.28,1.19c2.77,0,4.98-0.47,6.62-1.42c1.64-0.95,2.46-2.42,2.46-4.43
				c0-0.92-0.15-1.77-0.46-2.54c-0.31-0.77-0.86-1.48-1.66-2.12c-0.8-0.64-1.86-1.27-3.2-1.89c-1.34-0.62-3-1.26-5-1.92
				c-5.29-1.64-9.18-3.82-11.67-6.54C688.84,38.94,687.6,35.55,687.6,31.49z"/>
			<path class="st1" d="M778.15,44.2c0,3.95-0.57,7.62-1.69,11.01c-1.13,3.39-2.77,6.34-4.93,8.86c-2.16,2.52-4.83,4.48-8.01,5.89
				c-3.18,1.41-6.83,2.12-10.93,2.12c-4.11,0-7.75-0.71-10.93-2.12c-3.18-1.41-5.85-3.38-8.01-5.89c-2.16-2.51-3.8-5.47-4.93-8.86
				c-1.13-3.39-1.69-7.06-1.69-11.01c0-3.95,0.56-7.62,1.69-11.01c1.13-3.39,2.77-6.34,4.93-8.86c2.16-2.51,4.82-4.48,8.01-5.89
				c3.18-1.41,6.83-2.12,10.93-2.12c4.11,0,7.75,0.71,10.93,2.12c3.18,1.41,5.85,3.38,8.01,5.89c2.16,2.52,3.8,5.47,4.93,8.86
				C777.59,36.57,778.15,40.25,778.15,44.2z M765.99,44.2c0-5.85-1.21-10.37-3.62-13.55c-2.41-3.18-5.67-4.77-9.78-4.77
				c-4.11,0-7.37,1.59-9.78,4.77c-2.41,3.18-3.62,7.7-3.62,13.55c0,5.9,1.21,10.43,3.62,13.59c2.41,3.16,5.67,4.74,9.78,4.74
				c4.11,0,7.37-1.58,9.78-4.74C764.78,54.63,765.99,50.1,765.99,44.2z"/>
			<path class="st1" d="M780.08,31.49c0-4.72,1.72-8.43,5.16-11.13c3.44-2.7,8.39-4.04,14.86-4.04c2.67,0,5.29,0.23,7.85,0.69
				c2.57,0.46,4.95,1.13,7.16,2l-0.85,9.7c-4.52-1.9-8.96-2.85-13.32-2.85c-3.13,0-5.37,0.49-6.7,1.46c-1.33,0.98-2,2.21-2,3.7
				c0,1.64,0.67,3.09,2,4.35c1.33,1.26,3.85,2.5,7.55,3.73c5.65,1.9,9.75,4.18,12.32,6.85c2.57,2.67,3.85,6.06,3.85,10.16
				c0,5.08-1.72,9.01-5.16,11.78c-3.44,2.77-8.68,4.16-15.71,4.16c-2.93,0-5.87-0.31-8.82-0.92s-5.61-1.51-7.97-2.7l0.92-10.55
				c2.16,1.49,4.55,2.63,7.2,3.43c2.64,0.8,5.4,1.19,8.28,1.19c2.77,0,4.98-0.47,6.62-1.42c1.64-0.95,2.46-2.42,2.46-4.43
				c0-0.92-0.15-1.77-0.46-2.54c-0.31-0.77-0.86-1.48-1.66-2.12c-0.8-0.64-1.86-1.27-3.2-1.89c-1.34-0.62-3-1.26-5-1.92
				c-5.29-1.64-9.18-3.82-11.67-6.54C781.32,38.94,780.08,35.55,780.08,31.49z"/>
			<path class="st1" d="M30.35,105.02l14.54-23.89h14.37l-22.27,36.21v23.29H23.72v-23.29L1.45,81.13h14.37L30.35,105.02z"/>
			<path class="st1" d="M79.39,110.88c0-4.53,0.74-8.68,2.21-12.45c1.47-3.77,3.57-7.01,6.29-9.73c2.72-2.72,6.02-4.83,9.9-6.33
				c3.88-1.5,8.23-2.25,13.05-2.25c2.78,0,5.57,0.25,8.37,0.77c2.8,0.51,5.28,1.27,7.44,2.29l-0.93,11.05
				c-1.81-1.25-3.88-2.15-6.21-2.72c-2.32-0.57-4.7-0.85-7.14-0.85c-3.12,0-5.89,0.48-8.33,1.45c-2.44,0.96-4.48,2.34-6.12,4.12
				c-1.64,1.79-2.9,3.92-3.78,6.42c-0.88,2.49-1.32,5.24-1.32,8.25c0,6.41,1.76,11.39,5.27,14.96c3.51,3.57,8.36,5.36,14.54,5.36
				c2.49,0,4.86-0.31,7.1-0.94c2.24-0.62,4.35-1.62,6.33-2.97l1.02,11.31c-2.44,1.13-5.04,1.94-7.82,2.42
				c-2.78,0.48-5.47,0.72-8.08,0.72c-4.88,0-9.27-0.74-13.18-2.21c-3.91-1.47-7.25-3.56-10.03-6.25c-2.78-2.69-4.9-5.94-6.38-9.73
				C80.13,119.75,79.39,115.53,79.39,110.88z"/>
			<path class="st1" d="M156.75,141.66c-3.8,0-7.25-0.51-10.37-1.53c-3.12-1.02-5.79-2.56-8.03-4.63c-2.24-2.07-3.97-4.66-5.19-7.78
				c-1.22-3.12-1.83-6.77-1.83-10.97V81.13h13.26v35.28c0,4.82,0.95,8.47,2.85,10.97c1.9,2.49,5,3.74,9.31,3.74
				c4.31,0,7.41-1.25,9.31-3.74c1.9-2.49,2.85-6.15,2.85-10.97V81.13h13.26v35.62c0,4.19-0.61,7.85-1.83,10.97
				c-1.22,3.12-2.95,5.71-5.19,7.78c-2.24,2.07-4.92,3.61-8.03,4.63C164,141.14,160.55,141.66,156.75,141.66z"/>
			<path class="st1" d="M203.5,81.13v59.5h-13.26v-59.5H203.5z"/>
			<path class="st1" d="M262.07,110.88c0,4.93-0.81,9.27-2.42,13.01s-3.85,6.84-6.72,9.31c-2.86,2.47-6.26,4.32-10.2,5.57
				c-3.94,1.25-8.26,1.87-12.96,1.87h-18.19v-59.5h18.19c4.7,0,9.02,0.62,12.96,1.87c3.94,1.25,7.34,3.12,10.2,5.61
				c2.86,2.49,5.1,5.6,6.72,9.31C261.26,101.63,262.07,105.95,262.07,110.88z M248.64,110.97c0-3.51-0.44-6.5-1.32-8.97
				c-0.88-2.46-2.15-4.48-3.83-6.04c-1.67-1.56-3.74-2.69-6.21-3.4c-2.46-0.71-5.29-1.06-8.46-1.06h-4v38.76h4
				c3.17,0,5.99-0.35,8.46-1.06c2.47-0.71,4.53-1.83,6.21-3.36c1.67-1.53,2.95-3.51,3.83-5.95
				C248.2,117.46,248.64,114.48,248.64,110.97z"/>
			<path class="st1" d="M299.13,127.37h-21.42l-4.17,13.26h-14.11l20.74-59.5h16.49l20.74,59.5H303.3L299.13,127.37z M280.94,117
				h14.96l-7.48-24.06L280.94,117z"/>
			<path class="st1" d="M350.99,91.5H333.9V81.13h47.43V91.5h-17.09v49.13h-13.26V91.5z"/>
			<path class="st1" d="M408.88,141.66c-3.8,0-7.25-0.51-10.37-1.53c-3.12-1.02-5.79-2.56-8.03-4.63c-2.24-2.07-3.97-4.66-5.19-7.78
				c-1.22-3.12-1.83-6.77-1.83-10.97V81.13h13.26v35.28c0,4.82,0.95,8.47,2.85,10.97c1.9,2.49,5,3.74,9.31,3.74
				c4.31,0,7.41-1.25,9.31-3.74c1.9-2.49,2.85-6.15,2.85-10.97V81.13h13.26v35.62c0,4.19-0.61,7.85-1.83,10.97
				c-1.22,3.12-2.95,5.71-5.19,7.78c-2.24,2.07-4.92,3.61-8.03,4.63C416.13,141.14,412.67,141.66,408.88,141.66z"/>
			<path class="st1" d="M459.37,110.88c0-4.53,0.74-8.68,2.21-12.45c1.47-3.77,3.57-7.01,6.29-9.73c2.72-2.72,6.02-4.83,9.9-6.33
				c3.88-1.5,8.23-2.25,13.05-2.25c2.78,0,5.57,0.25,8.37,0.77c2.8,0.51,5.28,1.27,7.44,2.29l-0.93,11.05
				c-1.81-1.25-3.88-2.15-6.21-2.72c-2.32-0.57-4.7-0.85-7.14-0.85c-3.12,0-5.89,0.48-8.33,1.45c-2.44,0.96-4.48,2.34-6.12,4.12
				c-1.64,1.79-2.9,3.92-3.78,6.42c-0.88,2.49-1.32,5.24-1.32,8.25c0,6.41,1.76,11.39,5.27,14.96c3.51,3.57,8.36,5.36,14.54,5.36
				c2.49,0,4.86-0.31,7.1-0.94c2.24-0.62,4.35-1.62,6.33-2.97l1.02,11.31c-2.44,1.13-5.04,1.94-7.82,2.42
				c-2.78,0.48-5.47,0.72-8.08,0.72c-4.88,0-9.27-0.74-13.18-2.21c-3.91-1.47-7.25-3.56-10.03-6.25c-2.78-2.69-4.9-5.94-6.38-9.73
				C460.1,119.75,459.37,115.53,459.37,110.88z"/>
			<path class="st1" d="M524.99,81.13v59.5h-13.26v-59.5H524.99z"/>
			<path class="st1" d="M558.49,141.66c-3.8,0-7.25-0.51-10.37-1.53c-3.12-1.02-5.79-2.56-8.03-4.63c-2.24-2.07-3.97-4.66-5.19-7.78
				c-1.22-3.12-1.83-6.77-1.83-10.97V81.13h13.26v35.28c0,4.82,0.95,8.47,2.85,10.97c1.9,2.49,5,3.74,9.31,3.74
				c4.31,0,7.41-1.25,9.31-3.74c1.9-2.49,2.85-6.15,2.85-10.97V81.13h13.26v35.62c0,4.19-0.61,7.85-1.83,10.97
				c-1.22,3.12-2.95,5.71-5.19,7.78c-2.24,2.07-4.92,3.61-8.03,4.63C565.74,141.14,562.28,141.66,558.49,141.66z"/>
			<path class="st1" d="M642.05,110.88c0,4.93-0.81,9.27-2.42,13.01s-3.85,6.84-6.72,9.31c-2.86,2.47-6.26,4.32-10.2,5.57
				c-3.94,1.25-8.26,1.87-12.96,1.87h-18.19v-59.5h18.19c4.7,0,9.02,0.62,12.96,1.87c3.94,1.25,7.34,3.12,10.2,5.61
				c2.86,2.49,5.1,5.6,6.72,9.31C641.24,101.63,642.05,105.95,642.05,110.88z M628.61,110.97c0-3.51-0.44-6.5-1.32-8.97
				c-0.88-2.46-2.15-4.48-3.83-6.04c-1.67-1.56-3.74-2.69-6.21-3.4c-2.46-0.71-5.29-1.06-8.46-1.06h-4v38.76h4
				c3.17,0,5.99-0.35,8.46-1.06c2.47-0.71,4.53-1.83,6.21-3.36c1.67-1.53,2.95-3.51,3.83-5.95
				C628.17,117.46,628.61,114.48,628.61,110.97z"/>
			<path class="st1" d="M679.11,127.37h-21.42l-4.17,13.26h-14.11l20.74-59.5h16.49l20.74,59.5h-14.11L679.11,127.37z M660.92,117
				h14.96l-7.48-24.06L660.92,117z"/>
			<path class="st1" d="M749.49,110.88c0,4.93-0.81,9.27-2.42,13.01s-3.85,6.84-6.72,9.31c-2.86,2.47-6.26,4.32-10.2,5.57
				c-3.94,1.25-8.26,1.87-12.96,1.87H699v-59.5h18.19c4.7,0,9.02,0.62,12.96,1.87c3.94,1.25,7.34,3.12,10.2,5.61
				c2.86,2.49,5.1,5.6,6.72,9.31C748.69,101.63,749.49,105.95,749.49,110.88z M736.06,110.97c0-3.51-0.44-6.5-1.32-8.97
				c-0.88-2.46-2.15-4.48-3.83-6.04c-1.67-1.56-3.74-2.69-6.21-3.4c-2.46-0.71-5.29-1.06-8.46-1.06h-4v38.76h4
				c3.17,0,5.99-0.35,8.46-1.06c2.47-0.71,4.53-1.83,6.21-3.36c1.67-1.53,2.95-3.51,3.83-5.95
				C735.62,117.46,736.06,114.48,736.06,110.97z"/>
		</g>
	</g>
	<g>
		<g>
			<g>
				<g>
					<polygon class="st1" points="798.08,110.26 785.68,97.87 765.54,77.73 756.7,86.57 781,110.88 755.49,136.39 763.72,144.62 
						785.07,123.27 					"/>
				</g>
			</g>
		</g>
		<g>
			<g>
				<g>
					<polygon class="st2" points="825.41,110.26 813.02,97.87 792.87,77.73 784.03,86.57 808.34,110.88 782.82,136.39 
						791.05,144.62 812.4,123.27 					"/>
				</g>
			</g>
		</g>
	</g>
</g>
</svg>
