<?xml version="1.0" encoding="utf-8"?>
<!-- Generator: Adobe Illustrator 24.1.1, SVG Export Plug-In . SVG Version: 6.00 Build 0)  -->
<svg version="1.1" id="Capa_1" xmlns="http://www.w3.org/2000/svg" xmlns:xlink="http://www.w3.org/1999/xlink" x="0px" y="0px"
	 viewBox="0 0 760.26 174.69" style="enable-background:new 0 0 760.26 174.69;" xml:space="preserve">
<style type="text/css">
	.st0{opacity:0.8;fill:#36DE94;}
	.st1{fill:#FFFFFF;}
	.st2{fill:#36DE94;}
	.st3{fill:#441A7B;}
</style>
<g>
	<g>
		<g>
			<path class="st1" d="M45.31,19.04h14.11l-20.74,59.5H22.19L1.45,19.04h14.11l14.88,46.07L45.31,19.04z"/>
			<path class="st1" d="M75.83,19.04v59.5H62.56v-59.5H75.83z"/>
			<path class="st1" d="M117.56,65.29H96.14l-4.17,13.26H77.87l20.74-59.5h16.49l20.74,59.5h-14.11L117.56,65.29z M99.37,54.91
				h14.96l-7.48-24.06L99.37,54.91z"/>
			<path class="st1" d="M153.43,19.04h13.26v39.44c0,7.14-1.77,12.44-5.31,15.9c-3.54,3.46-8.66,5.19-15.34,5.19
				c-2.66,0-5.21-0.26-7.65-0.77c-2.44-0.51-4.65-1.25-6.63-2.21l0.94-11.22c1.93,1.3,3.88,2.24,5.87,2.8
				c1.98,0.57,4.08,0.85,6.29,0.85c2.83,0,4.97-0.79,6.42-2.38c1.45-1.59,2.17-4.33,2.17-8.25V19.04z"/>
			<path class="st1" d="M206.31,65.29h-21.42l-4.17,13.26h-14.11l20.74-59.5h16.49l20.74,59.5h-14.11L206.31,65.29z M188.12,54.91
				h14.96l-7.48-24.06L188.12,54.91z"/>
			<path class="st1" d="M246.6,19.04h40.38v10.37h-27.12v13.43h25.16v10.37h-25.16v14.96h27.88v10.37H246.6V19.04z"/>
			<path class="st1" d="M289.44,48.79c0-4.53,0.74-8.68,2.21-12.45c1.47-3.77,3.57-7.01,6.29-9.73c2.72-2.72,6.02-4.83,9.9-6.33
				c3.88-1.5,8.23-2.25,13.05-2.25c2.78,0,5.57,0.25,8.37,0.77c2.8,0.51,5.28,1.27,7.44,2.29l-0.93,11.05
				c-1.81-1.25-3.88-2.15-6.21-2.72c-2.32-0.57-4.7-0.85-7.14-0.85c-3.12,0-5.89,0.48-8.33,1.45c-2.44,0.96-4.48,2.34-6.12,4.12
				c-1.64,1.79-2.9,3.92-3.78,6.42c-0.88,2.49-1.32,5.24-1.32,8.25c0,6.41,1.76,11.39,5.27,14.96c3.51,3.57,8.36,5.36,14.54,5.36
				c2.49,0,4.86-0.31,7.1-0.94c2.24-0.62,4.35-1.62,6.33-2.97l1.02,11.31c-2.44,1.13-5.04,1.94-7.82,2.42
				c-2.78,0.48-5.47,0.72-8.08,0.72c-4.88,0-9.27-0.74-13.18-2.21c-3.91-1.47-7.25-3.56-10.03-6.25c-2.78-2.69-4.9-5.94-6.38-9.73
				C290.18,57.66,289.44,53.44,289.44,48.79z"/>
			<path class="st1" d="M393.58,48.79c0,4.37-0.62,8.42-1.87,12.16c-1.25,3.74-3.06,7-5.44,9.78c-2.38,2.78-5.33,4.94-8.84,6.5
				c-3.51,1.56-7.54,2.34-12.07,2.34c-4.54,0-8.56-0.78-12.07-2.34c-3.51-1.56-6.46-3.73-8.84-6.5c-2.38-2.78-4.19-6.04-5.44-9.78
				c-1.25-3.74-1.87-7.79-1.87-12.16c0-4.36,0.62-8.42,1.87-12.16c1.25-3.74,3.06-7,5.44-9.78c2.38-2.78,5.33-4.94,8.84-6.5
				c3.51-1.56,7.54-2.34,12.07-2.34c4.53,0,8.56,0.78,12.07,2.34c3.51,1.56,6.46,3.73,8.84,6.5c2.38,2.78,4.19,6.04,5.44,9.78
				C392.95,40.38,393.58,44.43,393.58,48.79z M380.15,48.79c0-6.46-1.33-11.45-4-14.96c-2.67-3.51-6.26-5.27-10.8-5.27
				c-4.54,0-8.13,1.76-10.8,5.27c-2.67,3.51-4,8.5-4,14.96c0,6.52,1.33,11.52,4,15c2.66,3.49,6.26,5.23,10.8,5.23
				c4.53,0,8.13-1.74,10.8-5.23C378.81,60.31,380.15,55.31,380.15,48.79z"/>
			<path class="st1" d="M398.25,19.04h13.26v49.13h29.41v10.37h-42.67V19.04z"/>
			<path class="st1" d="M495.25,48.79c0,4.37-0.62,8.42-1.87,12.16c-1.25,3.74-3.06,7-5.44,9.78c-2.38,2.78-5.33,4.94-8.84,6.5
				c-3.51,1.56-7.54,2.34-12.07,2.34c-4.54,0-8.56-0.78-12.07-2.34c-3.51-1.56-6.46-3.73-8.84-6.5c-2.38-2.78-4.19-6.04-5.44-9.78
				c-1.25-3.74-1.87-7.79-1.87-12.16c0-4.36,0.62-8.42,1.87-12.16c1.25-3.74,3.06-7,5.44-9.78c2.38-2.78,5.33-4.94,8.84-6.5
				c3.51-1.56,7.54-2.34,12.07-2.34c4.53,0,8.56,0.78,12.07,2.34c3.51,1.56,6.46,3.73,8.84,6.5c2.38,2.78,4.19,6.04,5.44,9.78
				C494.62,40.38,495.25,44.43,495.25,48.79z M481.81,48.79c0-6.46-1.33-11.45-4-14.96c-2.67-3.51-6.26-5.27-10.8-5.27
				c-4.54,0-8.13,1.76-10.8,5.27c-2.67,3.51-4,8.5-4,14.96c0,6.52,1.33,11.52,4,15c2.66,3.49,6.26,5.23,10.8,5.23
				c4.53,0,8.13-1.74,10.8-5.23C480.48,60.31,481.81,55.31,481.81,48.79z M468.38,0h11.9v2.13l-12.07,12.33h-10.2L468.38,0z"/>
			<path class="st1" d="M496.94,48.79c0-4.42,0.74-8.5,2.21-12.24c1.47-3.74,3.61-6.98,6.42-9.73c2.81-2.75,6.23-4.9,10.29-6.46
				c4.05-1.56,8.66-2.34,13.81-2.34c7.2,0,13.71,1.25,19.55,3.74l-1.02,11.31c-2.55-1.47-5.3-2.59-8.25-3.36
				c-2.95-0.76-5.89-1.15-8.84-1.15c-3.17,0-6.04,0.47-8.59,1.4c-2.55,0.94-4.72,2.28-6.5,4.04c-1.79,1.76-3.17,3.88-4.17,6.38
				c-0.99,2.49-1.49,5.3-1.49,8.42c0,3.17,0.48,6.02,1.45,8.54c0.96,2.52,2.34,4.65,4.12,6.38c1.79,1.73,3.94,3.05,6.46,3.95
				c2.52,0.91,5.37,1.36,8.54,1.36c1.25,0,2.38-0.07,3.4-0.21c1.02-0.14,1.93-0.35,2.72-0.64V54.74h-12.75V44.37h26.01V76
				c-3.06,1.3-6.22,2.22-9.48,2.76c-3.26,0.54-6.67,0.81-10.24,0.81c-5.21,0-9.9-0.75-14.07-2.25c-4.17-1.5-7.69-3.6-10.58-6.29
				c-2.89-2.69-5.12-5.92-6.67-9.69C497.72,57.56,496.94,53.38,496.94,48.79z"/>
			<path class="st1" d="M570.81,19.04v59.5h-13.26v-59.5H570.81z"/>
			<path class="st1" d="M575.91,48.79c0-4.53,0.74-8.68,2.21-12.45c1.47-3.77,3.57-7.01,6.29-9.73c2.72-2.72,6.02-4.83,9.9-6.33
				c3.88-1.5,8.23-2.25,13.05-2.25c2.78,0,5.57,0.25,8.37,0.77c2.8,0.51,5.28,1.27,7.44,2.29l-0.93,11.05
				c-1.81-1.25-3.88-2.15-6.21-2.72c-2.32-0.57-4.7-0.85-7.14-0.85c-3.12,0-5.89,0.48-8.33,1.45c-2.44,0.96-4.48,2.34-6.12,4.12
				c-1.64,1.79-2.9,3.92-3.78,6.42c-0.88,2.49-1.32,5.24-1.32,8.25c0,6.41,1.76,11.39,5.27,14.96c3.51,3.57,8.36,5.36,14.54,5.36
				c2.49,0,4.86-0.31,7.1-0.94c2.24-0.62,4.35-1.62,6.33-2.97l1.02,11.31c-2.44,1.13-5.04,1.94-7.82,2.42
				c-2.78,0.48-5.47,0.72-8.08,0.72c-4.88,0-9.27-0.74-13.18-2.21c-3.91-1.47-7.25-3.56-10.03-6.25c-2.78-2.69-4.9-5.94-6.38-9.73
				C576.65,57.66,575.91,53.44,575.91,48.79z"/>
			<path class="st1" d="M680.05,48.79c0,4.37-0.62,8.42-1.87,12.16c-1.25,3.74-3.06,7-5.44,9.78c-2.38,2.78-5.33,4.94-8.84,6.5
				c-3.51,1.56-7.54,2.34-12.07,2.34c-4.54,0-8.56-0.78-12.07-2.34c-3.51-1.56-6.46-3.73-8.84-6.5c-2.38-2.78-4.19-6.04-5.44-9.78
				c-1.25-3.74-1.87-7.79-1.87-12.16c0-4.36,0.62-8.42,1.87-12.16c1.25-3.74,3.06-7,5.44-9.78c2.38-2.78,5.33-4.94,8.84-6.5
				c3.51-1.56,7.54-2.34,12.07-2.34c4.53,0,8.56,0.78,12.07,2.34c3.51,1.56,6.46,3.73,8.84,6.5c2.38,2.78,4.19,6.04,5.44,9.78
				C679.42,40.38,680.05,44.43,680.05,48.79z M666.62,48.79c0-6.46-1.33-11.45-4-14.96c-2.67-3.51-6.26-5.27-10.8-5.27
				c-4.54,0-8.13,1.76-10.8,5.27c-2.67,3.51-4,8.5-4,14.96c0,6.52,1.33,11.52,4,15c2.66,3.49,6.26,5.23,10.8,5.23
				c4.53,0,8.13-1.74,10.8-5.23C665.28,60.31,666.62,55.31,666.62,48.79z"/>
			<path class="st1" d="M30.7,112l14.71-24.17h14.53l-22.53,36.64v23.56H23.99v-23.56L1.46,87.83H16L30.7,112z"/>
			<path class="st1" d="M80.32,117.93c0-4.59,0.74-8.79,2.24-12.6c1.49-3.81,3.61-7.09,6.36-9.85s6.09-4.89,10.02-6.41
				c3.93-1.52,8.33-2.28,13.2-2.28c2.81,0,5.63,0.26,8.47,0.77c2.84,0.52,5.34,1.29,7.52,2.32l-0.95,11.18
				c-1.83-1.26-3.93-2.18-6.28-2.75c-2.35-0.57-4.76-0.86-7.22-0.86c-3.15,0-5.96,0.49-8.43,1.46c-2.47,0.98-4.53,2.37-6.19,4.17
				c-1.66,1.81-2.94,3.97-3.83,6.49c-0.89,2.52-1.33,5.3-1.33,8.34c0,6.48,1.78,11.52,5.33,15.14c3.55,3.61,8.46,5.42,14.71,5.42
				c2.52,0,4.92-0.31,7.18-0.95c2.26-0.63,4.4-1.63,6.41-3.01l1.03,11.44c-2.46,1.15-5.1,1.96-7.91,2.45
				c-2.81,0.49-5.53,0.73-8.17,0.73c-4.93,0-9.37-0.75-13.33-2.24s-7.34-3.6-10.15-6.32c-2.81-2.72-4.96-6-6.45-9.85
				C81.07,126.91,80.32,122.63,80.32,117.93z"/>
			<path class="st1" d="M158.58,149.07c-3.84,0-7.34-0.52-10.49-1.55c-3.15-1.03-5.86-2.59-8.13-4.69
				c-2.27-2.09-4.01-4.71-5.25-7.87c-1.23-3.15-1.85-6.85-1.85-11.09V87.83h13.42v35.69c0,4.87,0.96,8.57,2.88,11.09
				c1.92,2.52,5.06,3.78,9.42,3.78c4.36,0,7.5-1.26,9.42-3.78c1.92-2.52,2.88-6.22,2.88-11.09V87.83h13.42v36.03
				c0,4.24-0.62,7.94-1.85,11.09c-1.23,3.15-2.98,5.78-5.25,7.87c-2.27,2.09-4.97,3.66-8.13,4.69
				C165.92,148.55,162.42,149.07,158.58,149.07z"/>
			<path class="st1" d="M205.88,87.83v60.2h-13.42v-60.2H205.88z"/>
			<path class="st1" d="M265.13,117.93c0,4.99-0.82,9.37-2.45,13.16c-1.63,3.78-3.9,6.92-6.79,9.42c-2.9,2.49-6.34,4.37-10.32,5.63
				c-3.99,1.26-8.36,1.89-13.12,1.89h-18.4v-60.2h18.4c4.76,0,9.13,0.63,13.12,1.89c3.98,1.26,7.42,3.15,10.32,5.68
				c2.89,2.52,5.16,5.66,6.79,9.42C264.32,108.57,265.13,112.95,265.13,117.93z M251.55,118.02c0-3.55-0.45-6.58-1.33-9.07
				c-0.89-2.49-2.18-4.53-3.87-6.11c-1.69-1.58-3.78-2.72-6.28-3.44c-2.49-0.72-5.35-1.08-8.56-1.08h-4.04v39.22h4.04
				c3.21,0,6.06-0.36,8.56-1.08c2.49-0.72,4.59-1.85,6.28-3.4c1.69-1.55,2.98-3.55,3.87-6.02
				C251.1,124.58,251.55,121.58,251.55,118.02z"/>
			<path class="st1" d="M302.63,134.62h-21.67l-4.21,13.42h-14.28l20.98-60.2h16.68l20.98,60.2h-14.28L302.63,134.62z
				 M284.22,124.13h15.14l-7.57-24.34L284.22,124.13z"/>
			<path class="st1" d="M355.09,98.33H337.8V87.83h47.99v10.49H368.5v49.71h-13.42V98.33z"/>
			<path class="st1" d="M413.65,149.07c-3.84,0-7.34-0.52-10.49-1.55c-3.15-1.03-5.86-2.59-8.13-4.69
				c-2.27-2.09-4.01-4.71-5.25-7.87c-1.23-3.15-1.85-6.85-1.85-11.09V87.83h13.42v35.69c0,4.87,0.96,8.57,2.88,11.09
				c1.92,2.52,5.06,3.78,9.42,3.78c4.36,0,7.5-1.26,9.42-3.78c1.92-2.52,2.88-6.22,2.88-11.09V87.83h13.42v36.03
				c0,4.24-0.62,7.94-1.85,11.09c-1.23,3.15-2.98,5.78-5.25,7.87c-2.27,2.09-4.97,3.66-8.13,4.69
				C420.99,148.55,417.49,149.07,413.65,149.07z"/>
			<path class="st1" d="M464.73,117.93c0-4.59,0.74-8.79,2.24-12.6c1.49-3.81,3.61-7.09,6.36-9.85s6.09-4.89,10.02-6.41
				c3.93-1.52,8.33-2.28,13.2-2.28c2.81,0,5.63,0.26,8.47,0.77c2.84,0.52,5.34,1.29,7.52,2.32l-0.95,11.18
				c-1.83-1.26-3.93-2.18-6.28-2.75c-2.35-0.57-4.76-0.86-7.22-0.86c-3.15,0-5.96,0.49-8.43,1.46c-2.47,0.98-4.53,2.37-6.19,4.17
				c-1.66,1.81-2.94,3.97-3.83,6.49c-0.89,2.52-1.33,5.3-1.33,8.34c0,6.48,1.78,11.52,5.33,15.14c3.55,3.61,8.46,5.42,14.71,5.42
				c2.52,0,4.92-0.31,7.18-0.95c2.26-0.63,4.4-1.63,6.41-3.01l1.03,11.44c-2.46,1.15-5.1,1.96-7.91,2.45
				c-2.81,0.49-5.53,0.73-8.17,0.73c-4.93,0-9.37-0.75-13.33-2.24s-7.34-3.6-10.15-6.32c-2.81-2.72-4.96-6-6.45-9.85
				C465.48,126.91,464.73,122.63,464.73,117.93z"/>
			<path class="st1" d="M531.12,87.83v60.2h-13.42v-60.2H531.12z"/>
			<path class="st1" d="M565.01,149.07c-3.84,0-7.34-0.52-10.49-1.55c-3.15-1.03-5.86-2.59-8.13-4.69
				c-2.27-2.09-4.01-4.71-5.25-7.87c-1.23-3.15-1.85-6.85-1.85-11.09V87.83h13.42v35.69c0,4.87,0.96,8.57,2.88,11.09
				c1.92,2.52,5.06,3.78,9.42,3.78c4.36,0,7.5-1.26,9.42-3.78c1.92-2.52,2.88-6.22,2.88-11.09V87.83h13.42v36.03
				c0,4.24-0.62,7.94-1.85,11.09c-1.23,3.15-2.98,5.78-5.25,7.87c-2.27,2.09-4.97,3.66-8.13,4.69
				C572.35,148.55,568.85,149.07,565.01,149.07z"/>
			<path class="st1" d="M649.54,117.93c0,4.99-0.82,9.37-2.45,13.16c-1.63,3.78-3.9,6.92-6.79,9.42c-2.9,2.49-6.34,4.37-10.32,5.63
				c-3.99,1.26-8.36,1.89-13.12,1.89h-18.4v-60.2h18.4c4.76,0,9.13,0.63,13.12,1.89c3.98,1.26,7.42,3.15,10.32,5.68
				c2.89,2.52,5.16,5.66,6.79,9.42C648.73,108.57,649.54,112.95,649.54,117.93z M635.96,118.02c0-3.55-0.45-6.58-1.33-9.07
				c-0.89-2.49-2.18-4.53-3.87-6.11c-1.69-1.58-3.78-2.72-6.28-3.44c-2.49-0.72-5.35-1.08-8.56-1.08h-4.04v39.22h4.04
				c3.21,0,6.06-0.36,8.56-1.08c2.49-0.72,4.59-1.85,6.28-3.4c1.69-1.55,2.98-3.55,3.87-6.02
				C635.51,124.58,635.96,121.58,635.96,118.02z"/>
			<path class="st1" d="M687.04,134.62h-21.67l-4.21,13.42h-14.28l20.98-60.2h16.68l20.98,60.2h-14.28L687.04,134.62z
				 M668.64,124.13h15.14l-7.57-24.34L668.64,124.13z"/>
			<path class="st1" d="M758.25,117.93c0,4.99-0.82,9.37-2.45,13.16c-1.63,3.78-3.9,6.92-6.79,9.42c-2.9,2.49-6.34,4.37-10.32,5.63
				c-3.99,1.26-8.36,1.89-13.12,1.89h-18.4v-60.2h18.4c4.76,0,9.13,0.63,13.12,1.89c3.98,1.26,7.42,3.15,10.32,5.68
				c2.89,2.52,5.16,5.66,6.79,9.42C757.43,108.57,758.25,112.95,758.25,117.93z M744.66,118.02c0-3.55-0.45-6.58-1.33-9.07
				c-0.89-2.49-2.18-4.53-3.87-6.11c-1.69-1.58-3.78-2.72-6.28-3.44c-2.49-0.72-5.35-1.08-8.56-1.08h-4.04v39.22h4.04
				c3.21,0,6.06-0.36,8.56-1.08c2.49-0.72,4.59-1.85,6.28-3.4c1.69-1.55,2.98-3.55,3.87-6.02
				C744.21,124.58,744.66,121.58,744.66,118.02z"/>
		</g>
	</g>
	<g>
		<g>
			<g>
				<g>
					<polygon class="st1" points="732.93,48.36 720.53,35.97 700.39,15.83 691.55,24.67 715.86,48.98 690.34,74.49 698.57,82.72 
						719.92,61.37 					"/>
				</g>
			</g>
		</g>
		<g>
			<g>
				<g>
					<polygon class="st2" points="760.26,48.36 747.87,35.97 727.72,15.83 718.88,24.67 743.19,48.98 717.67,74.49 725.9,82.72 
						747.25,61.37 					"/>
				</g>
			</g>
		</g>
	</g>
</g>
</svg>
