<?xml version="1.0" encoding="utf-8"?>
<!-- Generator: Adobe Illustrator 24.0.2, SVG Export Plug-In . SVG Version: 6.00 Build 0)  -->
<svg version="1.1" xmlns="http://www.w3.org/2000/svg" xmlns:xlink="http://www.w3.org/1999/xlink" x="0px" y="0px"
	 viewBox="0 0 239.91 153.32" style="enable-background:new 0 0 239.91 153.32;" xml:space="preserve">
<style type="text/css">
	.st0{fill:#441A7B;}
	.st1{fill:#FFFFFF;}
	.st2{opacity:0.3;}
	.st3{fill:#46197B;}
	.st4{fill:#F4F4F6;}
	.st5{fill:#36DE94;}
	.st6{fill-rule:evenodd;clip-rule:evenodd;fill:#FFFFFF;}
	.st7{fill:none;}
	.st8{opacity:0.5;fill:#035C71;enable-background:new    ;}
	.st9{fill:#E8E7E7;}
	.st10{fill:#0A1415;}
	.st11{opacity:0.7;fill:#254345;enable-background:new    ;}
	.st12{enable-background:new    ;}
	.st13{fill:#5A5A5A;}
	.st14{fill:#121111;}
	.st15{fill:#1E1C1B;}
	.st16{opacity:0.5;fill:#1E1C1B;enable-background:new    ;}
	.st17{fill:#B9B9B9;}
	.st18{fill:#DCDCDC;}
	.st19{clip-path:url(#SVGID_2_);enable-background:new    ;}
	.st20{fill:#9C9C9C;}
	.st21{fill:#C7C6C6;}
	.st22{clip-path:url(#SVGID_4_);enable-background:new    ;}
	.st23{fill:#DADADA;}
	.st24{opacity:0.6;fill:url(#SVGID_5_);enable-background:new    ;}
	.st25{fill:#EBEBEB;}
	.st26{fill:#060E0E;}
	.st27{fill:#1A2B2C;}
	.st28{opacity:0.5;}
	.st29{opacity:0.5;fill:#A7A7A6;enable-background:new    ;}
	.st30{fill:url(#SVGID_6_);}
	.st31{fill:#848585;}
	.st32{opacity:0.4;fill:url(#SVGID_7_);enable-background:new    ;}
	.st33{fill:#CC171A;}
	.st34{fill:#A3B7BC;}
	.st35{fill:#EF7E15;}
	.st36{opacity:0.75;}
	.st37{fill:#E2DAD7;}
	.st38{fill:#C5B5AF;}
	.st39{fill:#A88F87;}
	.st40{fill:#8B6A5F;}
	.st41{fill:#6E4537;}
	.st42{fill:url(#SVGID_12_);}
	.st43{fill:url(#SVGID_13_);}
	.st44{fill:url(#SVGID_14_);}
	.st45{fill:url(#SVGID_15_);}
	.st46{clip-path:url(#SVGID_17_);}
	.st47{fill:#333333;}
	.st48{clip-path:url(#SVGID_19_);}
	.st49{opacity:0.8;fill:#EBD3BB;}
	.st50{fill:#DBC6AF;}
	.st51{fill:#37322C;}
	.st52{fill:#B98042;}
	.st53{opacity:0.9;fill:url(#Tape_4_);}
	.st54{opacity:0.9;fill:url(#Tape_5_);}
	.st55{clip-path:url(#SVGID_21_);enable-background:new    ;}
	.st56{clip-path:url(#SVGID_23_);enable-background:new    ;}
	.st57{opacity:0.6;fill:url(#SVGID_24_);enable-background:new    ;}
	.st58{fill:url(#SVGID_25_);}
	.st59{opacity:0.4;fill:url(#SVGID_26_);enable-background:new    ;}
	.st60{fill:#659A37;}
	.st61{clip-path:url(#SVGID_28_);enable-background:new    ;}
	.st62{clip-path:url(#SVGID_30_);enable-background:new    ;}
	.st63{opacity:0.6;fill:url(#SVGID_31_);enable-background:new    ;}
	.st64{fill:url(#SVGID_32_);}
	.st65{opacity:0.4;fill:url(#SVGID_33_);enable-background:new    ;}
	.st66{fill:url(#SVGID_38_);}
	.st67{fill:url(#SVGID_39_);}
	.st68{fill:url(#SVGID_40_);}
	.st69{fill:url(#SVGID_41_);}
	.st70{clip-path:url(#SVGID_43_);}
	.st71{clip-path:url(#SVGID_45_);}
	.st72{opacity:0.9;fill:url(#Tape_6_);}
	.st73{opacity:0.9;fill:url(#Tape_10_);}
	.st74{clip-path:url(#SVGID_47_);enable-background:new    ;}
	.st75{clip-path:url(#SVGID_49_);enable-background:new    ;}
	.st76{opacity:0.6;fill:url(#SVGID_50_);enable-background:new    ;}
	.st77{fill:url(#SVGID_51_);}
	.st78{opacity:0.4;fill:url(#SVGID_52_);enable-background:new    ;}
	.st79{opacity:0.2;fill:#606060;}
	.st80{fill-rule:evenodd;clip-rule:evenodd;}
	.st81{fill:none;stroke:#FFFFFF;stroke-width:10;stroke-miterlimit:10;}
	.st82{fill:#606060;}
	.st83{opacity:0.6;}
	.st84{fill:none;stroke:#36DE94;stroke-width:11;stroke-miterlimit:10;}
</style>
<g id="Capa_1">
</g>
<g id="Capa_2">
	<g>
		<g id="_x32__1_">
			<g>
				<path class="st8" d="M196.94,95.69c16.48,5.32-46.85,62.6-63.35,57.28L3.54,111.01c-9.94-3.2,53.41-60.48,63.35-57.28
					L196.94,95.69z"/>
			</g>
			<g>
				<g id="_x31_6_1_">
					<path class="st9" d="M139.8,33.83c0.48-1.03,3.85-5.78,4.46-5.46c1.3,0.67,1.67,4.96,1.05,6.87c-0.59,1.76-3.68,6.87-3.98,6.41
						C140.8,40.74,139.21,35.08,139.8,33.83z"/>
					<polygon class="st10" points="2.34,54.93 2.8,55.43 20.28,39.6 20.32,38.66 					"/>
					<polygon class="st11" points="17.41,37.36 14.77,36.32 8.49,35.94 2.57,55.29 17.24,59.97 18.64,59.68 20.63,46.49 
						22.22,40.57 					"/>
					<g class="st12">
						<path class="st13" d="M20.67,74.99L5.64,86.77c-2.11,1.91,0.96,12.56,3.37,16.83l25.88-23.22
							C30.77,77.98,25.91,76.41,20.67,74.99z"/>
						<path class="st13" d="M113.54,106.26c-0.98-0.59-1.97-1.17-2.93-1.78l-11.03,9.5c-2.16,1.97-0.17,12.96,2.26,16.62
							l11.07-10.53l7.06-8.81C117.81,109.59,115.7,107.87,113.54,106.26z"/>
						<g>
							<g>
								<g class="st12">
									<path class="st14" d="M41.34,92.61c-1.78-2.45-3.98-4.69-6.39-6.47c-2.03-1.51-4.19-2.68-6.36-3.37
										c-3.85-1.24-6.99-0.75-8.96,1.03l-5.92,5.4c1.97-1.78,5.11-2.26,8.96-1.03c2.18,0.69,4.33,1.86,6.36,3.37
										c2.39,1.78,4.61,4.02,6.39,6.47c2.01,2.76,3.48,5.8,4.1,8.77c0.82,3.89,0.04,6.91-1.91,8.67l5.92-5.4
										c1.93-1.76,2.72-4.79,1.91-8.67C44.81,98.41,43.33,95.38,41.34,92.61z"/>
									<path class="st15" d="M22.66,88.15c-7.64-2.47-12.5,1.88-10.84,9.69c1.65,7.83,9.19,16.16,16.85,18.63
										c7.64,2.47,12.5-1.88,10.84-9.69C37.86,98.96,30.3,90.62,22.66,88.15z"/>
								</g>
								<path class="st16" d="M23.52,92.15c-5.48-1.78-8.96,1.34-7.79,6.95c1.19,5.61,6.59,11.6,12.08,13.36
									c5.48,1.78,8.96-1.34,7.79-6.95C34.41,99.92,29.01,93.93,23.52,92.15z"/>
								<g class="st12">
									<path class="st17" d="M19.4,92.47l0.33-0.1l2.28-0.23c0,0,0.5-0.04,0.19,0.13c-1.51,0.77-2.24,2.58-1.78,5.07
										c0.82,4.21,4.79,8.77,8.9,10.17c2.49,0.86,4.46,0.36,5.42-1.11c0.19-0.29-0.02,0.61-0.02,0.61l-0.46,1.47
										c-0.8,2.6-3.45,3.71-6.97,2.49c-4.86-1.67-9.57-7.06-10.53-12.04C16.09,95.35,16.76,92.95,19.4,92.47z"/>
									<g>
										<path class="st18" d="M23.73,92.34c5.15,1.78,10.17,7.49,11.18,12.79c1.03,5.3-2.34,8.14-7.49,6.36
											c-5.15-1.78-10.17-7.49-11.18-12.79C15.21,93.43,18.56,90.58,23.73,92.34z M23.84,92.91c-4.86-1.67-8.02,1.03-7.06,6.01
											c0.96,4.98,5.67,10.38,10.53,12.04c4.86,1.67,8.02-1.03,7.06-6.01C33.4,99.96,28.69,94.58,23.84,92.91L23.84,92.91z"/>
									</g>
								</g>
								<g>
									<g>
										<defs>
											<path id="SVGID_46_" d="M23.84,92.91c-4.86-1.67-8.02,1.03-7.06,6.01c0.96,4.98,5.67,10.38,10.53,12.04
												c4.86,1.67,8.02-1.03,7.08-6.01C33.44,99.96,28.69,94.58,23.84,92.91z"/>
										</defs>
										<clipPath id="SVGID_2_">
											<use xlink:href="#SVGID_46_"  style="overflow:visible;"/>
										</clipPath>
										<g class="st19">
											<path class="st20" d="M25.68,92.36c4.42,1.57,8.65,6.53,9.48,11.1c0.82,4.56-2.09,6.97-6.51,5.4s-8.65-6.53-9.48-11.1
												C18.35,93.2,21.26,90.79,25.68,92.36z"/>
											<path class="st18" d="M25.49,95.04c3.24,1.15,6.36,4.82,6.97,8.16s-1.55,5.13-4.79,3.98c-3.24-1.15-6.36-4.82-6.97-8.16
												C20.09,95.65,22.24,93.87,25.49,95.04z"/>
											<path class="st17" d="M20.57,98.37c0-0.04-0.02-0.08-0.02-0.13c-0.61-3.35,1.24-5.3,4.23-4.77
												c0.38,0.06,0.75,0.17,1.15,0.31c2.07,0.73,4.1,2.39,5.59,4.38c1.13,1.51,1.95,3.18,2.24,4.82
												c0.67,3.77-1.74,5.76-5.38,4.46l-0.71-0.25c3.24,1.15,5.38-0.63,4.79-3.98c-0.25-1.44-0.98-2.95-1.99-4.27
												c-1.32-1.76-3.14-3.22-4.98-3.89c-0.36-0.13-0.69-0.21-1.03-0.27c-2.66-0.48-4.29,1.26-3.77,4.25
												c0,0.04,0.02,0.06,0.02,0.1L20.57,98.37z"/>
										</g>
									</g>
								</g>
							</g>
						</g>
						<polygon class="st21" points="93.09,112.86 50.63,98.6 42.93,104.86 44.44,112.02 101.9,130.63 100.31,123.16 						"/>
						<g>
							<g>
								<g class="st12">
									<path class="st14" d="M133.6,122.36c-1.78-2.45-3.98-4.69-6.39-6.47c-2.03-1.51-4.19-2.68-6.36-3.37
										c-3.85-1.24-6.99-0.75-8.96,1.03l-5.92,5.4c1.97-1.78,5.11-2.26,8.96-1.03c2.18,0.69,4.33,1.86,6.36,3.37
										c2.39,1.78,4.61,4.02,6.39,6.47c2.01,2.76,3.48,5.8,4.1,8.77c0.82,3.89,0.04,6.91-1.91,8.67l5.92-5.4
										c1.93-1.76,2.72-4.79,1.91-8.67C137.07,128.18,135.59,125.15,133.6,122.36z"/>
									<path class="st15" d="M114.92,117.92c-7.64-2.47-12.5,1.88-10.84,9.69c1.65,7.83,9.19,16.16,16.85,18.63
										c7.64,2.47,12.5-1.88,10.84-9.69C130.12,128.73,122.57,120.39,114.92,117.92z"/>
								</g>
								<path class="st16" d="M115.78,121.92c-5.48-1.78-8.96,1.34-7.79,6.95c1.19,5.61,6.59,11.6,12.08,13.36
									c5.49,1.78,8.96-1.34,7.79-6.95C126.67,129.67,121.27,123.68,115.78,121.92z"/>
								<g class="st12">
									<path class="st17" d="M111.64,122.24l0.33-0.1l2.28-0.23c0,0,0.5-0.04,0.19,0.13c-1.51,0.77-2.24,2.58-1.78,5.07
										c0.82,4.21,4.79,8.77,8.9,10.17c2.49,0.86,4.46,0.36,5.42-1.11c0.19-0.29-0.02,0.61-0.02,0.61l-0.46,1.47
										c-0.8,2.6-3.43,3.71-6.97,2.49c-4.86-1.67-9.57-7.06-10.53-12.04C108.35,125.12,109.02,122.7,111.64,122.24z"/>
									<g>
										<path class="st18" d="M115.99,122.11c5.15,1.78,10.17,7.49,11.18,12.79c1.03,5.3-2.34,8.14-7.49,6.36
											s-10.17-7.49-11.18-12.79C107.47,123.18,110.82,120.33,115.99,122.11z M116.1,122.65c-4.86-1.67-8.02,1.03-7.08,6.01
											c0.96,4.98,5.67,10.38,10.53,12.04c4.86,1.67,8.02-1.03,7.06-6.01C125.66,129.73,120.95,124.33,116.1,122.65L116.1,122.65
											z"/>
									</g>
								</g>
								<g>
									<g>
										<defs>
											<path id="SVGID_48_" d="M116.1,122.65c-4.86-1.67-8.02,1.03-7.06,6.01c0.96,4.98,5.67,10.38,10.53,12.04
												c4.86,1.67,8.02-1.03,7.06-6.01C125.66,129.73,120.95,124.33,116.1,122.65z"/>
										</defs>
										<clipPath id="SVGID_4_">
											<use xlink:href="#SVGID_48_"  style="overflow:visible;"/>
										</clipPath>
										<g class="st22">
											<path class="st20" d="M117.94,122.11c4.42,1.57,8.65,6.53,9.48,11.1c0.82,4.56-2.09,6.97-6.51,5.4
												c-4.42-1.57-8.65-6.53-9.48-11.1C110.61,122.95,113.52,120.54,117.94,122.11z"/>
											<path class="st18" d="M117.75,124.79c3.24,1.15,6.36,4.82,6.97,8.16c0.61,3.35-1.55,5.13-4.79,3.98
												c-3.24-1.15-6.36-4.82-6.97-8.16C112.35,125.42,114.48,123.64,117.75,124.79z"/>
											<path class="st17" d="M112.83,128.12c0-0.04-0.02-0.08-0.02-0.13c-0.61-3.35,1.24-5.3,4.23-4.77
												c0.38,0.06,0.75,0.17,1.15,0.31c2.07,0.73,4.1,2.39,5.59,4.38c1.13,1.51,1.95,3.18,2.24,4.82
												c0.67,3.77-1.74,5.76-5.38,4.46l-0.71-0.25c3.24,1.15,5.38-0.63,4.79-3.98c-0.25-1.44-0.98-2.95-1.99-4.27
												c-1.32-1.76-3.14-3.22-4.98-3.89c-0.36-0.13-0.69-0.21-1.03-0.27c-2.66-0.48-4.29,1.26-3.77,4.25
												c0,0.04,0.02,0.06,0.02,0.1L112.83,128.12z"/>
										</g>
									</g>
								</g>
							</g>
						</g>
						<path class="st23" d="M194.23,78.36c-0.1-0.4-0.33-0.75-0.65-1c-0.5-0.4-1.05-0.59-1.09-0.71c-0.33-1.32-0.77-2.05-0.77-2.05
							c-0.59-0.82-1.17-0.71-1.47-0.82c-0.69-0.21-0.75-0.08-1.11-0.77c-0.92-1.74-1.67-3.43-2.89-6.13
							c-1.61-3.56-5.36-7.16-7.75-8.54c-9.34-5.48-31.05-17.82-31.05-17.82c-0.59-0.46-27.38-17.94-35.38-20.52L50.99,0.29
							c-1.88-0.61-3.98-0.17-5.44,1.17L10.96,32.7C10,33.55,9.58,33.95,8.8,34.98c-0.02,0.04-0.27,0.4-0.42,0.69
							c0.06,0.1,0.1,0.23,0.17,0.36c2.41,0.59,13.52,4.33,13.52,4.33c-0.92,2.34-3.54,20.01-3.54,20.01L2.36,55.56
							c0.15,6.18,0.69,14.4,1.38,22.25c0,0-3.98,2.3-3.73,7.49c0.08,1.88,0.96,7.6,1.57,10.28c1.4,6.24,7.43,7.91,7.43,7.91
							c-1.28-8.6-1.24-24.72,14.59-19.55c0.17,0.06,0.36,0.13,0.52,0.19c8.39,2.99,16.5,12.02,18.8,20.73l57.45,18.59
							c-1.47-8.81,4.12-13.57,12.67-10.8c0.19,0.06,0.36,0.13,0.54,0.19c8.39,2.97,18.61,9.44,22.84,28.43
							c14.42,2.6,25.85-6.2,38.37-16.06c13.02-10.26,21.86-21.54,22.86-29.18c0.1-0.77,0.02-1.57-0.15-2.32
							C196.76,90.08,194.64,79.86,194.23,78.36z M109.94,30.41c2.83-3.24,4.61-5.69,5.42-6.87c7.77,4.25,23.49,14.11,27.05,17.23
							L109.94,30.41z"/>
						
							<linearGradient id="SVGID_5_" gradientUnits="userSpaceOnUse" x1="1061.3607" y1="7677.5669" x2="1025.594" y2="7677.5669" gradientTransform="matrix(0.9777 -0.21 -0.21 -0.9777 726.1876 7818.4736)">
							<stop  offset="0" style="stop-color:#FFFFFF"/>
							<stop  offset="1" style="stop-color:#C7C6C6"/>
						</linearGradient>
						<path class="st24" d="M153.07,111.64c-10.24,1.8-16.89,2.55-27.22,1.7C103.98,111.5,58.96,98.85,3.11,70.13
							c0.19,2.55,0.4,5.15,0.63,7.7c0,0-3.98,2.3-3.73,7.49c0.08,1.88,0.96,7.6,1.57,10.28c1.4,6.24,7.43,7.91,7.43,7.91
							c-1.28-8.6-1.24-24.72,14.59-19.55c0.17,0.06,0.36,0.13,0.52,0.19c8.39,2.99,16.5,12.02,18.8,20.73l1.51,7.16l57.47,18.61
							l-1.55-7.18c-1.44-8.81,4.15-13.54,12.69-10.8c0.19,0.06,0.36,0.13,0.54,0.19c8.39,2.97,18.61,9.44,22.84,28.43
							c10.36,1.86,19.18-2.16,27.95-8.23C161.61,125.31,159.01,117.53,153.07,111.64z"/>
						<path class="st25" d="M177.65,57.78c-13.21-7.91-30.23-17.27-30.23-17.27c-0.17-0.13-2.3-1.55-5.44-3.56
							c6.09,9.44-23.51,40.13-45.01,47.12c7.62,7.66,12.81,11.3,21.33,16.31c14.36,8.46,32.45,7.68,45.72-2.39
							c6.66-5.05,12.96-10.82,17.56-16.29C187.92,74.21,186.06,62.8,177.65,57.78z"/>
						<path class="st26" d="M143.81,39.52c-9.94-6.45-18.63-11.74-27.66-16.58c-0.15-0.08-0.33-0.04-0.44,0.1
							c-0.08,0.13-0.21,0.31-0.36,0.52c7.77,4.25,23.49,14.11,27.05,17.23l-32.47-10.38c-5.67,6.53-15.55,16.31-30.23,25.48
							c-0.19,0.13-0.23,0.4-0.08,0.57l21.46,24.91c1.34,1.57,3.54,1.74,5.38,0.8c6.62-3.39,22.51-13.06,35.97-31.4
							C144.48,47.96,147.08,41.64,143.81,39.52z"/>
					</g>
					<polygon class="st27" points="21.57,39.9 20.32,39.42 2.5,55.54 17.89,60.62 20.11,48.8 21.97,40.65 					"/>
					<g class="st28">
						<path class="st29" d="M94.07,84.53l-0.69,0.36c0.02,0.04,2.68,5.21,2.78,7.96c0.08,2.24-0.98,26.23-0.98,26.23l-39.15-12.6
							L44.58,89.6l-2.32-22.59l-0.96-0.25l2.45,23.07l12.1,17.42l39.94,12.85c0,0,1.26-25.12,1.15-27.28
							C96.84,89.89,94.18,84.74,94.07,84.53z"/>
					</g>
					
						<linearGradient id="SVGID_6_" gradientUnits="userSpaceOnUse" x1="1034.8754" y1="7663.0171" x2="1070.7388" y2="7664.0181" gradientTransform="matrix(0.9777 -0.21 -0.21 -0.9777 726.1876 7818.4736)">
						<stop  offset="0" style="stop-color:#C7C6C6"/>
						<stop  offset="0.6182" style="stop-color:#E0E0E0"/>
						<stop  offset="1" style="stop-color:#EBEBEB"/>
					</linearGradient>
					<path class="st30" d="M194.35,78.88c-0.04-0.19-0.1-0.38-0.15-0.52c-0.1-0.4-0.33-0.75-0.65-1c-0.5-0.4-1.05-0.59-1.09-0.71
						c-1.55,12.56-19.45,29.48-35.3,38.04c-13.11,7.08-25.14,8.44-25.14,8.44c0,0.02,2.47,0.86,8.08-0.15
						C166.86,118.15,192.4,90.83,194.35,78.88z"/>
					<path class="st26" d="M94.62,85.16l-57.8-18.4c-1.82-0.57-3.43-22.65-0.02-21.54c13.4,4.33,27.42,8.83,33.52,10.78
						c1.78,0.59,3.37,1.61,4.63,3.01C80.46,65.27,93.11,82.1,94.62,85.16z"/>
					<g>
						<path class="st31" d="M123.51,43.9c-4.02,2.34-7.29,7.52-7.26,11.54c0.02,4.02,3.29,5.4,7.31,3.06
							c4.02-2.34,7.29-7.52,7.26-11.54S127.53,41.55,123.51,43.9z M123.65,45.13c0.25-0.15,0.48-0.23,0.71-0.36l-0.75,6.45
							l-5.13-0.33C119.61,48.57,121.52,46.39,123.65,45.13z M129.96,47.77c0,3.45-2.81,7.91-6.26,9.92
							c-3.45,2.01-6.28,0.84-6.3-2.64c0-1.03,0.27-2.16,0.71-3.27l6.32,0.42l0.92-7.81C127.99,43.62,129.93,44.9,129.96,47.77z"/>
						<path class="st31" d="M143.58,45.22c-0.23-1.34,1.19-2.05,0.42-3.1c-0.19-0.25-2.68-1.3-2.87-1.15
							c-16.62,9.55-32.97,25.16-41.97,38.42c3.85,5.63,5.65,0.75,8.46,1.15C107.74,80.47,130.63,66.51,143.58,45.22z"/>
						<path class="st31" d="M136.24,44.04c-0.29,5.51-10.78,13.96-19.68,15.51c0,0,2.49-5.42,8.16-10.01
							C131.42,44.13,136.24,44.04,136.24,44.04z"/>
					</g>
					<path class="st11" d="M115.72,23.02c-1.44,2.16-12.67,18.28-36.01,32.87c-0.19,0.13-0.23,0.4-0.08,0.57l21.46,24.91
						c1.34,1.57,3.54,1.74,5.38,0.8c6.62-3.39,22.51-13.06,35.97-31.4c2.07-2.83,4.67-9.13,1.4-11.24
						c-9.94-6.45-18.63-11.74-27.66-16.58C116.01,22.86,115.82,22.9,115.72,23.02z"/>
					<g>
						<path class="st11" d="M94.62,85.16l-57.8-18.4c-1.82-0.57-3.43-22.65-0.02-21.54c13.4,4.33,27.42,8.83,33.52,10.78
							c1.78,0.59,3.37,1.61,4.63,3.01C80.46,65.27,93.11,82.1,94.62,85.16z"/>
						<path class="st10" d="M91.14,78.92c-1.34-1.86-2.7-3.71-4.08-5.53c-2.74-3.66-5.55-7.26-8.44-10.82l-2.2-2.66
							c-0.75-0.84-1.44-1.78-2.39-2.53c-0.92-0.75-1.95-1.36-3.06-1.8c-1.11-0.4-2.18-0.71-3.29-1.07l-13.06-4.17l-0.61-0.17
							l-17.79-5.72c-3.31-1.07-2.18,21.67-1.34,21.94c2.83,0.9,15.14,4.86,15.14,4.86l44.38,14.09c0.15,0.04,0.27,0.04,0.4-0.02
							c0.23-0.13,0.29-0.42,0.17-0.63C93.82,82.61,92.46,80.81,91.14,78.92z M50.38,70.17l-13.13-4.02
							c-2.05-1.11-2.78-21.61-0.63-20.89l17.19,5.55l0.59,0.21l13.04,4.23c1.07,0.36,2.2,0.69,3.22,1.07
							c1.03,0.4,1.99,0.96,2.83,1.67c0.84,0.69,1.53,1.59,2.28,2.47l2.18,2.64c2.87,3.56,5.65,7.18,8.37,10.84
							c1.36,1.82,2.72,3.66,4.04,5.53c1.05,1.51,2.14,3.04,3.08,4.58L50.38,70.17z"/>
					</g>
					
						<linearGradient id="SVGID_7_" gradientUnits="userSpaceOnUse" x1="1083.9619" y1="7707.2197" x2="923.4107" y2="7594.665" gradientTransform="matrix(0.9777 -0.21 -0.21 -0.9777 726.1876 7818.4736)">
						<stop  offset="0" style="stop-color:#EBEBEB"/>
						<stop  offset="1" style="stop-color:#000000"/>
					</linearGradient>
					<path class="st32" d="M148.11,44.59c0,0-7.81,21.65-39.21,39.61c1.8,1.03,19.76,8.71,34.04,12.83
						c6.43,1.86,13.34,0.67,18.78-3.24c5.61-4.02,12.75-10.15,17.54-17.96c1.53-2.47,1.09-5.72-1.03-7.73
						C168.41,58.72,150.76,45.7,148.11,44.59z"/>
					<path class="st10" d="M144.46,39.71c-0.48-0.42-0.94-0.69-1.4-1c-0.92-0.61-1.84-1.19-2.74-1.78
						c-7.16-4.61-13.27-8.27-17.59-10.72c-2.18-1.21-3.87-2.16-5.05-2.83c-0.59-0.31-1.03-0.57-1.34-0.73
						c-0.23-0.15-0.57-0.1-0.69,0c-0.15,0.1-0.19,0.19-0.19,0.19s-1.55,2.37-4.75,6.15c-3.2,3.77-8.06,8.96-14.57,14.45
						c-3.24,2.74-6.87,5.59-10.89,8.33c-0.98,0.71-2.01,1.4-3.08,2.07c-0.52,0.33-1.05,0.69-1.59,1.03l-0.8,0.52l-0.21,0.13
						c-0.06,0.04-0.13,0.06-0.27,0.23c-0.21,0.25-0.25,0.63-0.06,0.9c1.67,1.95,3.41,3.96,5.15,5.97
						c3.48,4.02,7.08,8.19,10.74,12.41c1.82,2.11,3.66,4.25,5.53,6.39c0.9,1.19,2.55,1.82,4.04,1.61c0.75-0.08,1.49-0.36,2.11-0.71
						c0.63-0.33,1.26-0.67,1.88-1.03c9.92-5.63,18.74-13.02,26.02-20.83c0.88-1,1.78-1.99,2.64-2.95c0.84-1,1.67-2.01,2.49-2.99
						c1.53-2.05,3.24-3.94,4.31-6.2c0.54-1.11,0.96-2.26,1.24-3.45c0.25-1.17,0.36-2.41,0.02-3.6
						C145.24,40.67,144.9,40.13,144.46,39.71z M143.69,48.08c-1,2.2-2.7,4.06-4.23,6.11c-0.82,0.98-1.63,1.99-2.47,2.99
						c-0.86,0.98-1.74,1.97-2.62,2.95c-7.18,7.83-16.06,15.09-25.96,20.62c-0.61,0.36-1.24,0.67-1.86,1
						c-0.61,0.33-1.24,0.57-1.91,0.63c-1.32,0.17-2.68-0.33-3.5-1.4c-1.84-2.16-3.68-4.29-5.49-6.41
						c-3.64-4.25-7.22-8.42-10.68-12.46c-1.72-2.01-3.41-3.98-5.07-5.9l0.29-0.19l0.8-0.52c0.52-0.36,1.07-0.69,1.59-1.03
						c1.07-0.67,2.09-1.36,3.08-2.07c4.04-2.76,7.68-5.63,10.93-8.39c6.53-5.51,11.39-10.76,14.61-14.55
						c3.2-3.81,4.77-6.22,4.77-6.22c0.36,0.19,0.8,0.42,1.38,0.73c1.17,0.65,2.87,1.59,5.05,2.81c4.31,2.45,10.43,6.07,17.59,10.66
						c0.9,0.57,1.8,1.15,2.74,1.76c0.46,0.29,0.96,0.61,1.34,0.92c0.36,0.36,0.65,0.82,0.8,1.32
						C145.47,43.54,144.69,45.95,143.69,48.08z"/>
					<path class="st10" d="M143.81,39.52c-0.48-0.31-0.92-0.61-1.4-0.9c5.09,11.39-37.18,44.8-41.35,42.77
						c1.34,1.57,3.54,1.74,5.38,0.8c6.62-3.39,22.51-13.06,35.97-31.4C144.48,47.96,147.08,41.64,143.81,39.52z"/>
					<polygon class="st10" points="41.76,46.6 39.43,45.91 40.69,67.32 43.01,68.14 					"/>
					<path class="st10" d="M85.93,72.47c-0.04-0.06-0.08-0.1-0.13-0.17c-0.4-0.52-0.82-1.03-1.24-1.55l-1.19,10.32l1.99,0.71l1-8.73
						C86.2,72.87,86.08,72.66,85.93,72.47z"/>
					<path class="st13" d="M190.29,93.62c-6.05,9.8-16.41,18.99-26.52,25.92c-0.17,0.13-0.25,0.33-0.21,0.52l1.76,8.23
						c0.06,0.31,0.4,0.5,0.71,0.38c4.54-2.03,24.08-19.41,26.84-25.94c0.15-0.33,0.15-0.73,0.08-1.09l-1.7-7.85
						C191.13,93.32,190.54,93.22,190.29,93.62z"/>
					<path class="st25" d="M165.63,126.88c-0.29,0.13-0.63-0.06-0.69-0.38l0.38,1.76c0.06,0.31,0.4,0.5,0.71,0.38
						c4.54-2.03,24.08-19.41,26.84-25.94c0.15-0.33,0.15-0.73,0.08-1.09l-0.38-1.76c0.08,0.36,0.06,0.75-0.08,1.09
						C189.7,107.5,170.17,124.85,165.63,126.88z"/>
					<path class="st10" d="M86.64,87.82l3.83-0.63c1.78-0.29,3.48-1,4.9-2.11c-1.11-1.61-2.16-3.24-3.31-4.84l-4.12,3.04
						L86.64,87.82z"/>
					<path class="st9" d="M87.71,81.79c-1.09,0.17-8.5,4.46-8.21,5.38c0.59,1.76,3.89,3.52,5.67,3.5c1.7-0.02,8.04-3.64,7.93-4.27
						C92.9,85.18,89.78,81.47,87.71,81.79z"/>
					<g>
						<path class="st29" d="M54.04,84.15l-2.6-0.84c-0.9-0.29-1.76-1.15-1.93-1.95l-0.63-2.91c-0.17-0.8,0.42-1.19,1.3-0.92
							l2.6,0.84c0.9,0.29,1.76,1.17,1.93,1.95l0.63,2.91C55.53,84.03,54.95,84.45,54.04,84.15z"/>
						<path class="st23" d="M55.64,82.54l-6.72-2.16c-0.71-0.23-1.38-0.92-1.53-1.55c-0.13-0.63,0.33-0.96,1.03-0.73l6.72,2.16
							c0.71,0.23,1.38,0.92,1.53,1.55C56.81,82.46,56.33,82.77,55.64,82.54z"/>
					</g>
					<path class="st10" d="M8.49,35.48c-0.23,0.17-0.25,0.5-0.15,0.65l12.39,4c0.38,0.13,0.59,0.5,0.48,0.9
						c-1.32,4.35-2.47,10.91-3.5,17.98c-0.04,0.36-0.42,0.59-0.77,0.48L2.38,54.89c-0.21-0.06-0.29,0.92-0.08,1
						c5.76,1.86,13.21,4.29,15.93,5.17c0.54,0.19,1.11-0.19,1.15-0.77c0.25-3.27,1.13-12.98,3.24-19.45
						c0.15-0.44-0.08-0.88-0.52-1.03L8.49,35.48z"/>
					<path class="st33" d="M1.73,71.13c0.06,0.36,0.25,0.71,0.52,0.96c0.5,0.44,2.85,0.71,3.73,0.33c1.19-0.5,1.61-3.35-0.06-4.42
						C3.91,66.74,0.74,66.09,1.73,71.13z"/>
					<path class="st33" d="M1.44,63.26c0.06,0.36,0.25,0.71,0.52,0.96c0.5,0.44,2.85,0.71,3.73,0.33c1.19-0.5,1.61-3.35-0.06-4.42
						C3.59,58.87,0.43,58.22,1.44,63.26z"/>
					<path class="st34" d="M161.07,101.43c-6.39,4.31-17.15,7.06-26.65,8.29c-3.08,0.4,2.37,9.57,6.85,9
						c6.22-0.8,17.33-5.57,22.92-10.22C165.98,107.02,163.31,99.9,161.07,101.43z"/>
					<path class="st35" d="M146.72,117.02c-2.39-2.51-4-5.51-5.78-8.39c-2.2,0.42-4.4,0.8-6.51,1.07c-3.08,0.4,2.37,9.57,6.85,9
						c1.63-0.21,3.62-0.71,5.76-1.38C146.91,117.21,146.81,117.13,146.72,117.02z"/>
					<path class="st34" d="M191.38,75.95c0.04,0.92-0.21,2.05-0.52,3.16c-0.75,2.66-3.08,7.39-4.88,9.5
						c-0.92,1.09-2.28-4.08-2.58-6.07c-0.4-2.68,4.12-4.84,3.12-15.03C187.49,67.39,191.23,73.58,191.38,75.95z"/>
					<path class="st10" d="M101.07,81.39L79.61,56.48c-0.15-0.17-0.1-0.44,0.08-0.57c13.06-8.16,27.26-20.22,35.65-32.34
						c0.23-0.33,0.44-0.82,0.8-0.63c9.02,4.84,17.71,10.13,27.66,16.58c1.36,0.88,1.72,4.08,1.78,4.06
						c0.13-1.65-0.15-3.31-0.42-4.58c-6.64-4.31-26.42-16.85-33.12-19.03L50.95,0.27c-1.88-0.61-3.98-0.17-5.44,1.17L10.96,32.7
						c-0.77,0.69-1.42,1.28-2.11,2.24c0,0,1.3-0.88,3.56-0.15c11.24,3.62,40.76,13.15,49.68,15.99c7.7,2.45,13.38,3.98,17.96,10.95
						c5.25,7.98,11.64,14.36,16.92,22.34c0,0,5.42-0.17,9.13-1.4C104.39,82.4,102.43,82.94,101.07,81.39z"/>
					<path class="st0" d="M113.84,20.66c-0.65-0.27-1.26-0.52-1.78-0.69L50.97,0.27c-1.88-0.61-3.98-0.17-5.44,1.17L10.96,32.7
						c-0.77,0.69-1.42,1.28-2.11,2.24c0,0,1.3-0.88,3.56-0.15c11.24,3.62,40.76,13.15,49.68,15.99c4.67,1.49,8.58,2.66,11.97,4.88
						C81.11,53.55,109.52,33.05,113.84,20.66z"/>
				</g>
			</g>
		</g>
		<g>
			<path class="st60" d="M208.28,59.89c0,0,1.58-25.22,31.52-18.91c0,0,3.15,22.06-25.22,26.79c0,0-3.15,3.15-3.15,6.3h-3.15
				c0,0,3.94-14.97,22.85-26C231.14,48.07,220.1,48.07,208.28,59.89z"/>
		</g>
	</g>
</g>
</svg>
