<svg id="Capa_1" data-name="Capa 1" xmlns="http://www.w3.org/2000/svg" xmlns:xlink="http://www.w3.org/1999/xlink" viewBox="0 0 39.88 30.62"><defs><style>.cls-1{fill:none;}.cls-2,.cls-30{fill:#441a7b;}.cls-10,.cls-2,.cls-22,.cls-23{opacity:0.5;}.cls-10,.cls-18,.cls-2,.cls-23,.cls-26,.cls-5,.cls-6{isolation:isolate;}.cls-3{fill:#e8e7e7;}.cls-4{fill:#0a1415;}.cls-5{fill:#254345;opacity:0.7;}.cls-7{fill:#5a5a5a;}.cls-8{fill:#121111;}.cls-10,.cls-9{fill:#1e1c1b;}.cls-11{fill:#b9b9b9;}.cls-12{fill:#dcdcdc;}.cls-13{clip-path:url(#clip-path);}.cls-14{fill:#9c9c9c;}.cls-15{fill:#c7c6c6;}.cls-16{clip-path:url(#clip-path-2);}.cls-17{fill:#dadada;}.cls-18{opacity:0.6;fill:url(#Degradado_sin_nombre_4);}.cls-19{fill:#ebebeb;}.cls-20{fill:#060e0e;}.cls-21{fill:#1a2b2c;}.cls-23{fill:#a7a7a6;}.cls-24{fill:url(#Degradado_sin_nombre_2);}.cls-25{fill:#848585;}.cls-26{opacity:0.4;fill:url(#Degradado_sin_nombre_3);}.cls-27{fill:#cc171a;}.cls-28{fill:#a3b7bc;}.cls-29{fill:#ef7e15;}</style><clipPath id="clip-path"><path class="cls-1" d="M4.76,18.56c-1-.34-1.6.2-1.41,1.2a3.51,3.51,0,0,0,2.1,2.4c1,.33,1.61-.2,1.42-1.2A3.52,3.52,0,0,0,4.76,18.56Z"/></clipPath><clipPath id="clip-path-2"><path class="cls-1" d="M23.19,24.5c-1-.34-1.6.2-1.41,1.2a3.51,3.51,0,0,0,2.1,2.4c1,.34,1.6-.2,1.41-1.2A3.51,3.51,0,0,0,23.19,24.5Z"/></clipPath><linearGradient id="Degradado_sin_nombre_4" x1="160.4" y1="263.79" x2="153.26" y2="263.79" gradientTransform="matrix(0.98, -0.21, -0.21, -0.98, -71.15, 309.42)" gradientUnits="userSpaceOnUse"><stop offset="0" stop-color="#fff"/><stop offset="1" stop-color="#c7c6c6"/></linearGradient><linearGradient id="Degradado_sin_nombre_2" x1="155.11" y1="260.89" x2="162.28" y2="261.09" gradientTransform="matrix(0.98, -0.21, -0.21, -0.98, -71.15, 309.42)" gradientUnits="userSpaceOnUse"><stop offset="0" stop-color="#c7c6c6"/><stop offset="0.62" stop-color="#e0e0e0"/><stop offset="1" stop-color="#ebebeb"/></linearGradient><linearGradient id="Degradado_sin_nombre_3" x1="164.92" y1="269.72" x2="132.85" y2="247.24" gradientTransform="matrix(0.98, -0.21, -0.21, -0.98, -71.15, 309.42)" gradientUnits="userSpaceOnUse"><stop offset="0" stop-color="#ebebeb"/><stop offset="1"/></linearGradient></defs><title>VEHICULO</title><g id="_2" data-name="2"><path class="cls-2" d="M39.33,19.11c3.29,1.06-9.35,12.5-12.65,11.44l-26-8.38c-2-.64,10.66-12.08,12.65-11.44Z"/><g id="_16" data-name="16"><path class="cls-3" d="M27.92,6.76c.1-.21.77-1.16.89-1.1s.34,1,.21,1.38a4.25,4.25,0,0,1-.79,1.28A3.57,3.57,0,0,1,27.92,6.76Z"/><polygon class="cls-4" points="0.47 10.97 0.56 11.07 4.05 7.91 4.06 7.72 0.47 10.97"/><polygon class="cls-5" points="3.48 7.46 2.95 7.25 1.7 7.18 0.51 11.04 3.44 11.98 3.72 11.92 4.12 9.29 4.44 8.1 3.48 7.46"/><g class="cls-6"><path class="cls-7" d="M4.13,15l-3,2.35c-.43.38.19,2.51.67,3.36L7,16.06A11.4,11.4,0,0,0,4.13,15Z"/><path class="cls-7" d="M22.68,21.22l-.59-.35-2.2,1.9c-.43.39,0,2.58.45,3.32L22.55,24,24,22.22Z"/><g class="cls-6"><path class="cls-8" d="M8.26,18.5A6,6,0,0,0,7,17.21a4.24,4.24,0,0,0-1.27-.68,1.79,1.79,0,0,0-1.79.21L2.74,17.82a1.76,1.76,0,0,1,1.79-.21,4.58,4.58,0,0,1,1.27.67,6.26,6.26,0,0,1,1.27,1.3,4.58,4.58,0,0,1,.82,1.75,1.73,1.73,0,0,1-.38,1.73L8.7,22a1.79,1.79,0,0,0,.38-1.73A5,5,0,0,0,8.26,18.5Z"/><path class="cls-9" d="M4.53,17.61C3,17.11,2,18,2.36,19.54a5.5,5.5,0,0,0,3.37,3.72c1.52.5,2.49-.37,2.16-1.93A5.51,5.51,0,0,0,4.53,17.61Z"/></g><path class="cls-10" d="M4.7,18.41c-1.1-.36-1.79.26-1.56,1.38a4,4,0,0,0,2.42,2.67c1.09.36,1.78-.27,1.55-1.39A4,4,0,0,0,4.7,18.41Z"/><g class="cls-6"><path class="cls-11" d="M3.87,18.47l.07,0,.46-.05s.1,0,0,0a.87.87,0,0,0-.35,1,3,3,0,0,0,1.78,2,.88.88,0,0,0,1.08-.22c0-.06,0,.12,0,.12l-.09.29c-.16.52-.69.74-1.39.5a3.51,3.51,0,0,1-2.1-2.4C3.21,19.05,3.35,18.56,3.87,18.47Z"/><path class="cls-12" d="M4.74,18.44A3.74,3.74,0,0,1,7,21c.21,1.06-.47,1.62-1.49,1.27a3.76,3.76,0,0,1-2.24-2.56C3,18.66,3.71,18.09,4.74,18.44Zm0,.12c-1-.34-1.6.2-1.41,1.2a3.51,3.51,0,0,0,2.1,2.4c1,.33,1.61-.2,1.41-1.2a3.51,3.51,0,0,0-2.1-2.4Z"/></g><g class="cls-13"><g class="cls-6"><path class="cls-14" d="M5.13,18.45A3.18,3.18,0,0,1,7,20.66c.17.91-.42,1.4-1.3,1.08a3.21,3.21,0,0,1-1.89-2.21C3.67,18.61,4.25,18.13,5.13,18.45Z"/><path class="cls-12" d="M5.09,19a2.35,2.35,0,0,1,1.39,1.63c.12.67-.31,1-1,.8a2.36,2.36,0,0,1-1.4-1.63C4,19.1,4.44,18.75,5.09,19Z"/><path class="cls-11" d="M4.11,19.65v0C4,19,4.35,18.56,5,18.67l.23.06a2.6,2.6,0,0,1,1.12.88,2.38,2.38,0,0,1,.44,1c.14.75-.34,1.15-1.07.89l-.14-.05c.64.23,1.07-.13,1-.8a2,2,0,0,0-.39-.85,2.4,2.4,0,0,0-1-.78l-.2-.05c-.53-.1-.86.25-.76.85,0,0,0,0,0,0Z"/></g></g><polygon class="cls-15" points="18.59 22.54 10.11 19.69 8.57 20.94 8.88 22.37 20.35 26.09 20.04 24.6 18.59 22.54"/><g class="cls-6"><path class="cls-8" d="M26.68,24.44a5.76,5.76,0,0,0-1.27-1.29,4.62,4.62,0,0,0-1.27-.68,1.79,1.79,0,0,0-1.79.21l-1.19,1.08A1.79,1.79,0,0,1,23,23.55a4.13,4.13,0,0,1,1.27.68,6,6,0,0,1,1.28,1.29,4.81,4.81,0,0,1,.82,1.75A1.76,1.76,0,0,1,25.94,29l1.18-1.08a1.74,1.74,0,0,0,.38-1.73A4.72,4.72,0,0,0,26.68,24.44Z"/><path class="cls-9" d="M23,23.55c-1.52-.49-2.49.38-2.16,1.94a5.51,5.51,0,0,0,3.36,3.72c1.53.49,2.5-.38,2.17-1.94A5.55,5.55,0,0,0,23,23.55Z"/></g><path class="cls-10" d="M23.13,24.35c-1.1-.35-1.79.27-1.56,1.39A4,4,0,0,0,24,28.41c1.1.35,1.79-.27,1.56-1.39A4,4,0,0,0,23.13,24.35Z"/><g class="cls-6"><path class="cls-11" d="M22.3,24.41l.06,0,.46,0s.1,0,0,0a.88.88,0,0,0-.36,1,3,3,0,0,0,1.78,2,.86.86,0,0,0,1.08-.23c0-.05,0,.13,0,.13l-.09.29c-.16.52-.69.74-1.4.5a3.53,3.53,0,0,1-2.1-2.41C21.64,25,21.77,24.51,22.3,24.41Z"/><path class="cls-12" d="M23.17,24.39a3.73,3.73,0,0,1,2.23,2.55c.2,1.06-.47,1.63-1.5,1.27a3.71,3.71,0,0,1-2.23-2.55C21.47,24.6,22.13,24,23.17,24.39Zm0,.11c-1-.34-1.6.2-1.42,1.2a3.55,3.55,0,0,0,2.11,2.4c1,.34,1.6-.2,1.41-1.2a3.51,3.51,0,0,0-2.1-2.4Z"/></g><g class="cls-16"><g class="cls-6"><path class="cls-14" d="M23.56,24.39a3.21,3.21,0,0,1,1.89,2.21c.16.92-.42,1.4-1.3,1.08a3.18,3.18,0,0,1-1.89-2.21C22.09,24.56,22.67,24.08,23.56,24.39Z"/><path class="cls-12" d="M23.52,24.92a2.37,2.37,0,0,1,1.39,1.63c.12.67-.31,1-1,.8a2.35,2.35,0,0,1-1.39-1.63C22.44,25.05,22.87,24.69,23.52,24.92Z"/><path class="cls-11" d="M22.54,25.59s0,0,0,0c-.12-.67.25-1,.85-.95l.23.06a2.52,2.52,0,0,1,1.11.88,2.28,2.28,0,0,1,.45,1c.13.75-.35,1.15-1.07.89l-.15,0c.65.23,1.08-.13,1-.8a2.12,2.12,0,0,0-.4-.85,2.31,2.31,0,0,0-1-.78l-.21-.05c-.53-.1-.85.25-.75.85v0Z"/></g></g><path class="cls-17" d="M38.79,15.65a.34.34,0,0,0-.13-.2c-.1-.08-.21-.12-.21-.14a1.53,1.53,0,0,0-.16-.41c-.12-.17-.23-.14-.29-.17s-.15,0-.22-.15c-.19-.35-.34-.69-.58-1.23a4.31,4.31,0,0,0-1.55-1.7c-1.86-1.1-6.2-3.56-6.2-3.56S24,4.51,22.38,4L10.18.06A1.1,1.1,0,0,0,9.1.29L2.19,6.53A2.35,2.35,0,0,0,1.76,7a.65.65,0,0,0-.09.13l0,.08c.48.11,2.7.86,2.7.86-.18.47-.71,4-.71,4l-3.23-1c0,1.23.14,2.87.28,4.44A1.67,1.67,0,0,0,0,17a17,17,0,0,0,.32,2.05A2.21,2.21,0,0,0,1.8,20.67c-.25-1.72-.25-4.94,2.91-3.9l.11,0a6.54,6.54,0,0,1,3.75,4.14l11.48,3.72c-.3-1.76.82-2.71,2.53-2.16l.11,0c1.67.59,3.71,1.88,4.56,5.67,2.88.52,5.16-1.23,7.66-3.2s4.37-4.3,4.57-5.83a1.49,1.49,0,0,0,0-.47C39.3,18,38.88,16,38.79,15.65ZM22,6.07A14.38,14.38,0,0,0,23,4.7a52.65,52.65,0,0,1,5.4,3.44Z"/><path class="cls-18" d="M30.57,22.3a18.71,18.71,0,0,1-5.43.34C20.77,22.27,11.78,19.74.62,14c0,.51.08,1,.13,1.54A1.66,1.66,0,0,0,0,17,17.17,17.17,0,0,0,.32,19.1,2.24,2.24,0,0,0,1.8,20.68c-.25-1.72-.25-4.94,2.91-3.91l.11,0A6.54,6.54,0,0,1,8.57,21l.31,1.43,11.47,3.71L20,24.66c-.29-1.76.83-2.7,2.54-2.16l.11,0c1.67.59,3.71,1.89,4.56,5.68,2.07.37,3.83-.43,5.58-1.64A10.64,10.64,0,0,0,30.57,22.3Z"/><path class="cls-19" d="M35.48,11.54c-2.64-1.58-6-3.45-6-3.45s-.46-.31-1.08-.71c1.21,1.88-4.7,8-9,9.41a18.18,18.18,0,0,0,4.26,3.26,8.21,8.21,0,0,0,9.13-.48,22.65,22.65,0,0,0,3.51-3.25A3.18,3.18,0,0,0,35.48,11.54Z"/><path class="cls-20" d="M28.72,7.89c-2-1.28-3.72-2.34-5.52-3.31a.08.08,0,0,0-.09,0,.49.49,0,0,1-.07.11,52.65,52.65,0,0,1,5.4,3.44L22,6.07a26.71,26.71,0,0,1-6,5.09.08.08,0,0,0,0,.12l4.29,5a.85.85,0,0,0,1.07.16,21.48,21.48,0,0,0,7.19-6.27C28.86,9.58,29.38,8.32,28.72,7.89Z"/></g><polygon class="cls-21" points="4.31 7.97 4.06 7.87 0.5 11.09 3.57 12.11 4.02 9.75 4.39 8.12 4.31 7.97"/><g class="cls-22"><path class="cls-23" d="M18.79,16.88l-.14.07a5.43,5.43,0,0,1,.56,1.59c0,.45-.2,5.24-.2,5.24l-7.82-2.51L8.9,17.9l-.46-4.52-.19-.05.49,4.61,2.41,3.48,8,2.57s.25-5,.23-5.45A5.61,5.61,0,0,0,18.79,16.88Z"/></g><path class="cls-24" d="M38.82,15.75l0-.1a.39.39,0,0,0-.13-.2c-.1-.08-.21-.12-.22-.14-.31,2.51-3.88,5.88-7,7.59a15.31,15.31,0,0,1-5,1.69,3.56,3.56,0,0,0,1.61,0C33.33,23.6,38.43,18.14,38.82,15.75Z"/><path class="cls-20" d="M18.9,17,7.35,13.33c-.36-.11-.68-4.52,0-4.3C10,9.9,12.83,10.8,14,11.18a2.16,2.16,0,0,1,.93.61A55.31,55.31,0,0,1,18.9,17Z"/><path class="cls-25" d="M24.67,8.77a3,3,0,0,0-1.45,2.3c0,.8.65,1.08,1.46.61a3,3,0,0,0,1.45-2.3C26.12,8.58,25.47,8.3,24.67,8.77Zm0,.24.14-.07-.15,1.29-1-.07A2.82,2.82,0,0,1,24.7,9ZM26,9.54a2.61,2.61,0,0,1-1.25,2c-.69.4-1.26.17-1.26-.52a1.82,1.82,0,0,1,.14-.66l1.26.09L25,8.87A.65.65,0,0,1,26,9.54Z"/><path class="cls-25" d="M28.68,9c-.05-.27.24-.41.08-.62a1.71,1.71,0,0,0-.57-.23,27.62,27.62,0,0,0-8.38,7.67c.76,1.13,1.12.16,1.68.23A24.17,24.17,0,0,0,28.68,9Z"/><path class="cls-25" d="M27.21,8.8c-.06,1.1-2.15,2.79-3.93,3.1a6.2,6.2,0,0,1,1.63-2A4.17,4.17,0,0,1,27.21,8.8Z"/><path class="cls-5" d="M23.11,4.6a24.6,24.6,0,0,1-7.19,6.56.08.08,0,0,0,0,.12l4.29,5a.85.85,0,0,0,1.07.16,21.48,21.48,0,0,0,7.19-6.27c.41-.57.93-1.82.28-2.25-2-1.28-3.72-2.34-5.53-3.31A.08.08,0,0,0,23.11,4.6Z"/><path class="cls-5" d="M18.9,17,7.35,13.33c-.36-.11-.68-4.52,0-4.3C10,9.9,12.83,10.8,14,11.18a2.16,2.16,0,0,1,.93.61A55.31,55.31,0,0,1,18.9,17Z"/><path class="cls-4" d="M18.2,15.76c-.26-.37-.54-.74-.81-1.1-.55-.73-1.11-1.45-1.69-2.16L15.26,12a3.74,3.74,0,0,0-.47-.51,2.51,2.51,0,0,0-.61-.36c-.22-.08-.44-.14-.66-.21l-2.61-.83-.12,0L7.24,8.88c-.66-.21-.44,4.33-.27,4.38l3,1,8.87,2.82h.08a.09.09,0,0,0,0-.12A11.66,11.66,0,0,0,18.2,15.76ZM10.06,14l-2.62-.8C7,13,6.88,8.9,7.32,9l3.43,1.11.12,0,2.6.84c.21.07.44.14.64.22a2,2,0,0,1,.57.33,4.22,4.22,0,0,1,.45.49l.44.53c.57.71,1.13,1.44,1.67,2.17.27.36.55.73.81,1.1s.43.61.61.92Z"/><path class="cls-26" d="M29.58,8.91S28,13.23,21.75,16.82a55.2,55.2,0,0,0,6.8,2.56,4.36,4.36,0,0,0,3.75-.65,12.92,12.92,0,0,0,3.5-3.59,1.23,1.23,0,0,0-.2-1.54A44,44,0,0,0,29.58,8.91Z"/><path class="cls-4" d="M28.85,7.93a1.79,1.79,0,0,0-.28-.2L28,7.38c-1.43-.92-2.66-1.66-3.52-2.15l-1-.56-.27-.15a.14.14,0,0,0-.14,0l0,0a14.8,14.8,0,0,1-.95,1.23A25.47,25.47,0,0,1,19.2,8.68c-.65.54-1.37,1.11-2.17,1.66-.2.14-.4.28-.62.41L16.1,11l-.16.1,0,0a.15.15,0,0,0-.06,0,.15.15,0,0,0,0,.18l1,1.2L19,15l1.11,1.27a.88.88,0,0,0,.8.32,1.09,1.09,0,0,0,.43-.14l.37-.2a22.53,22.53,0,0,0,5.2-4.17c.17-.2.35-.39.53-.58s.33-.41.49-.6a7.25,7.25,0,0,0,.86-1.24A2.85,2.85,0,0,0,29,9a1.59,1.59,0,0,0,0-.72A.72.72,0,0,0,28.85,7.93ZM28.7,9.6a6.88,6.88,0,0,1-.85,1.22l-.49.6-.52.59a20.92,20.92,0,0,1-5.19,4.12l-.37.2a1.07,1.07,0,0,1-.38.13.79.79,0,0,1-.7-.28L19.11,14.9,17,12.41l-1-1.18.06,0,.16-.1.32-.21c.21-.13.42-.27.61-.41a24.32,24.32,0,0,0,2.18-1.68,24.83,24.83,0,0,0,2.92-2.9,14.42,14.42,0,0,0,1-1.25l.27.15,1,.56c.86.49,2.08,1.21,3.51,2.13l.55.35.27.18a.74.74,0,0,1,.16.27A2,2,0,0,1,28.7,9.6Z"/><path class="cls-4" d="M28.72,7.89l-.28-.18c1,2.28-7.42,9-8.25,8.55a.87.87,0,0,0,1.07.16,21.43,21.43,0,0,0,7.18-6.28C28.86,9.58,29.38,8.32,28.72,7.89Z"/><polygon class="cls-4" points="8.34 9.31 7.88 9.17 8.13 13.45 8.59 13.61 8.34 9.31"/><path class="cls-4" d="M17.16,14.47l0,0c-.08-.1-.17-.2-.25-.31l-.24,2.06.4.15.2-1.75Z"/><path class="cls-7" d="M38,18.7a18.94,18.94,0,0,1-5.3,5.17.12.12,0,0,0,0,.11L33,25.62a.1.1,0,0,0,.14.08c.91-.41,4.81-3.88,5.36-5.18a.42.42,0,0,0,0-.22l-.34-1.57A.1.1,0,0,0,38,18.7Z"/><path class="cls-19" d="M33.08,25.34a.1.1,0,0,1-.14-.07l.08.35a.1.1,0,0,0,.14.07c.91-.4,4.81-3.87,5.36-5.18a.37.37,0,0,0,0-.21l-.08-.36a.41.41,0,0,1,0,.22C37.89,21.47,34,24.94,33.08,25.34Z"/><path class="cls-4" d="M17.3,17.54l.77-.13a2.1,2.1,0,0,0,1-.42c-.22-.32-.43-.65-.66-1l-.83.6Z"/><path class="cls-3" d="M17.52,16.34c-.22,0-1.7.89-1.64,1.07a1.49,1.49,0,0,0,1.13.7,4.06,4.06,0,0,0,1.59-.85C18.55,17,17.93,16.27,17.52,16.34Z"/><path class="cls-23" d="M10.79,16.81l-.51-.17a.61.61,0,0,1-.39-.39l-.12-.58c0-.16.08-.24.25-.18l.52.16a.65.65,0,0,1,.39.39l.12.58C11.09,16.78,11,16.87,10.79,16.81Z"/><path class="cls-17" d="M11.11,16.49l-1.34-.43a.53.53,0,0,1-.31-.31c0-.13.07-.2.21-.15L11,16a.5.5,0,0,1,.31.31C11.35,16.47,11.25,16.53,11.11,16.49Z"/><path class="cls-4" d="M1.7,7.09a.1.1,0,0,0,0,.13L4.14,8a.15.15,0,0,1,.1.18,25.55,25.55,0,0,0-.7,3.6.12.12,0,0,1-.16.09L.47,11s0,.19,0,.2l3.18,1A.18.18,0,0,0,3.87,12a19.61,19.61,0,0,1,.65-3.88A.16.16,0,0,0,4.41,8Z"/><path class="cls-27" d="M.35,14.21a.35.35,0,0,0,.1.19,1.14,1.14,0,0,0,.74.07.56.56,0,0,0,0-.89C.78,13.33.15,13.2.35,14.21Z"/><path class="cls-27" d="M.29,12.64a.35.35,0,0,0,.1.19,1.1,1.1,0,0,0,.75.06.56.56,0,0,0,0-.88C.72,11.76.09,11.63.29,12.64Z"/><path class="cls-28" d="M32.17,20.26a13.49,13.49,0,0,1-5.32,1.65c-.62.08.47,1.91,1.36,1.8a11.15,11.15,0,0,0,4.58-2C33.15,21.37,32.62,20,32.17,20.26Z"/><path class="cls-29" d="M29.31,23.37a10,10,0,0,1-1.16-1.67l-1.3.21c-.61.08.47,1.91,1.37,1.8a6.53,6.53,0,0,0,1.15-.28A.17.17,0,0,1,29.31,23.37Z"/><path class="cls-28" d="M38.22,15.17a2.16,2.16,0,0,1-.1.63,6.69,6.69,0,0,1-1,1.9c-.19.22-.46-.82-.52-1.21s.82-1,.62-3C37.45,13.46,38.19,14.7,38.22,15.17Z"/><path class="cls-4" d="M20.19,16.26l-4.29-5a.07.07,0,0,1,0-.11A25.69,25.69,0,0,0,23,4.71c0-.07.09-.17.16-.13,1.8,1,3.53,2,5.52,3.31.27.18.34.82.36.81A3.19,3.19,0,0,0,29,7.79,51.34,51.34,0,0,0,22.38,4L10.18.05A1.11,1.11,0,0,0,9.09.29L2.19,6.53A2.26,2.26,0,0,0,1.77,7a.83.83,0,0,1,.71,0l9.92,3.19c1.54.49,2.67.8,3.59,2.19,1,1.59,2.32,2.87,3.38,4.46a7.6,7.6,0,0,0,1.82-.28C20.85,16.46,20.46,16.57,20.19,16.26Z"/><path class="cls-30" d="M22.74,4.13A2.4,2.4,0,0,0,22.38,4L10.18.05A1.12,1.12,0,0,0,9.09.29L2.19,6.53A2.26,2.26,0,0,0,1.77,7a.83.83,0,0,1,.71,0l9.92,3.19a9.54,9.54,0,0,1,2.39,1C16.2,10.69,21.87,6.6,22.74,4.13Z"/></g></g></svg>