<?xml version="1.0" encoding="utf-8"?>
<!-- Generator: Adobe Illustrator 24.0.2, SVG Export Plug-In . SVG Version: 6.00 Build 0)  -->
<svg version="1.1" xmlns="http://www.w3.org/2000/svg" xmlns:xlink="http://www.w3.org/1999/xlink" x="0px" y="0px"
	 viewBox="0 0 94.64 95.11" style="enable-background:new 0 0 94.64 95.11;" xml:space="preserve">
<style type="text/css">
	.st0{fill:#441A7B;}
	.st1{fill:#FFFFFF;}
	.st2{opacity:0.3;}
	.st3{fill:#46197B;}
	.st4{fill:#F4F4F6;}
	.st5{fill:#36DE94;}
	.st6{fill-rule:evenodd;clip-rule:evenodd;fill:#FFFFFF;}
	.st7{fill:none;}
	.st8{opacity:0.5;fill:#035C71;enable-background:new    ;}
	.st9{fill:#E8E7E7;}
	.st10{fill:#0A1415;}
	.st11{opacity:0.7;fill:#254345;enable-background:new    ;}
	.st12{enable-background:new    ;}
	.st13{fill:#5A5A5A;}
	.st14{fill:#121111;}
	.st15{fill:#1E1C1B;}
	.st16{opacity:0.5;fill:#1E1C1B;enable-background:new    ;}
	.st17{fill:#B9B9B9;}
	.st18{fill:#DCDCDC;}
	.st19{clip-path:url(#SVGID_2_);enable-background:new    ;}
	.st20{fill:#9C9C9C;}
	.st21{fill:#C7C6C6;}
	.st22{clip-path:url(#SVGID_4_);enable-background:new    ;}
	.st23{fill:#DADADA;}
	.st24{opacity:0.6;fill:url(#SVGID_5_);enable-background:new    ;}
	.st25{fill:#EBEBEB;}
	.st26{fill:#060E0E;}
	.st27{fill:#1A2B2C;}
	.st28{opacity:0.5;}
	.st29{opacity:0.5;fill:#A7A7A6;enable-background:new    ;}
	.st30{fill:url(#SVGID_6_);}
	.st31{fill:#848585;}
	.st32{opacity:0.4;fill:url(#SVGID_7_);enable-background:new    ;}
	.st33{fill:#CC171A;}
	.st34{fill:#A3B7BC;}
	.st35{fill:#EF7E15;}
	.st36{opacity:0.75;}
	.st37{fill:#E2DAD7;}
	.st38{fill:#C5B5AF;}
	.st39{fill:#A88F87;}
	.st40{fill:#8B6A5F;}
	.st41{fill:#6E4537;}
	.st42{fill:url(#SVGID_12_);}
	.st43{fill:url(#SVGID_13_);}
	.st44{fill:url(#SVGID_14_);}
	.st45{fill:url(#SVGID_15_);}
	.st46{clip-path:url(#SVGID_17_);}
	.st47{fill:#333333;}
	.st48{clip-path:url(#SVGID_19_);}
	.st49{opacity:0.8;fill:#EBD3BB;}
	.st50{fill:#DBC6AF;}
	.st51{fill:#37322C;}
	.st52{fill:#B98042;}
	.st53{opacity:0.9;fill:url(#Tape_4_);}
	.st54{opacity:0.9;fill:url(#Tape_5_);}
	.st55{clip-path:url(#SVGID_21_);enable-background:new    ;}
	.st56{clip-path:url(#SVGID_23_);enable-background:new    ;}
	.st57{opacity:0.6;fill:url(#SVGID_24_);enable-background:new    ;}
	.st58{fill:url(#SVGID_25_);}
	.st59{opacity:0.4;fill:url(#SVGID_26_);enable-background:new    ;}
	.st60{fill:#659A37;}
	.st61{clip-path:url(#SVGID_28_);enable-background:new    ;}
	.st62{clip-path:url(#SVGID_30_);enable-background:new    ;}
	.st63{opacity:0.6;fill:url(#SVGID_31_);enable-background:new    ;}
	.st64{fill:url(#SVGID_32_);}
	.st65{opacity:0.4;fill:url(#SVGID_33_);enable-background:new    ;}
	.st66{fill:url(#SVGID_38_);}
	.st67{fill:url(#SVGID_39_);}
	.st68{fill:url(#SVGID_40_);}
	.st69{fill:url(#SVGID_41_);}
	.st70{clip-path:url(#SVGID_43_);}
	.st71{clip-path:url(#SVGID_45_);}
	.st72{opacity:0.9;fill:url(#Tape_6_);}
	.st73{opacity:0.9;fill:url(#Tape_10_);}
	.st74{clip-path:url(#SVGID_47_);enable-background:new    ;}
	.st75{clip-path:url(#SVGID_49_);enable-background:new    ;}
	.st76{opacity:0.6;fill:url(#SVGID_50_);enable-background:new    ;}
	.st77{fill:url(#SVGID_51_);}
	.st78{opacity:0.4;fill:url(#SVGID_52_);enable-background:new    ;}
	.st79{opacity:0.2;fill:#606060;}
	.st80{fill-rule:evenodd;clip-rule:evenodd;}
	.st81{fill:none;stroke:#FFFFFF;stroke-width:10;stroke-miterlimit:10;}
	.st82{fill:#606060;}
	.st83{opacity:0.6;}
	.st84{fill:none;stroke:#36DE94;stroke-width:11;stroke-miterlimit:10;}
</style>
<g id="Capa_1">
</g>
<g id="Capa_2">
	<g>
		<g>
			<path class="st0" d="M53.07,63.51c-3.68,0-7.27,0.02-10.85-0.03c-0.28,0-0.76-0.46-0.79-0.75c-0.47-4.52-2.6-8.31-5.09-11.97
				c-2.34-3.44-4.66-6.89-6.95-10.37c-4.86-7.37-7.59-15.57-9.02-24.2c-0.74-4.44-1.01-8.96-1.4-13.46C18.79,0.62,19.46,0,21.53,0
				C38.72,0,55.9,0,73.08,0c1.91,0,2.65,0.58,2.61,2.19c-0.32,12.09-2.45,23.8-8.29,34.53c-2.34,4.3-5.28,8.28-7.99,12.37
				c-2.32,3.51-4.79,6.93-5.73,11.14C53.45,61.26,53.29,62.31,53.07,63.51z"/>
			<path class="st0" d="M47.25,95.11c-5.76,0-11.51,0-17.27,0c-2.17,0-2.72-0.57-2.72-2.77c0-3.32-0.01-6.64,0-9.96
				c0-1.93,0.47-2.33,2.33-2.68c5.37-1.04,9.11-4.12,11.06-9.24c0.36-0.93,0.72-1.3,1.75-1.28c3.36,0.07,6.73,0.05,10.09,0.01
				c0.79-0.01,1.11,0.25,1.4,1.01c1.98,5.34,5.78,8.55,11.42,9.53c1.54,0.26,2.05,0.82,2.05,2.4c0.01,3.45,0.01,6.91,0,10.36
				c0,2.02-0.6,2.63-2.6,2.63C58.94,95.11,53.09,95.11,47.25,95.11z M47.19,89.38c3.54,0,7.09,0.01,10.63,0
				c1.61,0,1.72-0.15,1.72-2.05c0-1.84-0.13-2-1.78-2c-6.96-0.01-13.91,0-20.87,0c-1.66,0-1.78,0.15-1.79,2
				c0,1.94,0.09,2.06,1.85,2.06C40.36,89.38,43.77,89.38,47.19,89.38z"/>
			<path class="st0" d="M80.69,12.12c0.18-1.8,0.37-3.59,0.58-5.75c2.71,0.71,5.35,1.14,7.78,2.09c3.92,1.52,5.57,4.58,5.58,8.92
				c0.01,3.28-1.07,6.21-2.73,8.89c-5.83,9.42-14.43,15.63-24.21,20.49c1.05-1.54,2.32-2.98,3.11-4.65c1.84-3.9,4.65-6.83,8.05-9.42
				c3.32-2.53,6.05-5.71,8.27-9.28c1.24-2,1.98-4.12,1.81-6.53c-0.12-1.7-0.82-2.91-2.46-3.38C84.62,12.97,82.72,12.59,80.69,12.12z
				"/>
			<path class="st0" d="M13.95,12.25c-1.42,0.25-2.77,0.43-4.1,0.72c-3.68,0.81-4.82,2.68-3.97,6.4c0.62,2.71,2.13,4.94,3.83,7.05
				c2.84,3.55,6.24,6.51,9.87,9.23c0.67,0.51,1.22,1.24,1.67,1.97c1.79,2.92,3.51,5.89,5.42,9.1c-2.37-1.37-4.62-2.56-6.76-3.93
				C13.63,38.78,8,34.03,3.74,27.83c-2.4-3.49-4.11-7.21-3.67-11.64c0.36-3.62,1.95-6.41,5.39-7.71c2.49-0.94,5.14-1.43,7.9-2.17
				C13.58,8.54,13.76,10.37,13.95,12.25z"/>
		</g>
	</g>
</g>
</svg>
