<?xml version="1.0" encoding="utf-8"?>
<!-- Generator: Adobe Illustrator 24.0.2, SVG Export Plug-In . SVG Version: 6.00 Build 0)  -->
<svg version="1.1" xmlns="http://www.w3.org/2000/svg" xmlns:xlink="http://www.w3.org/1999/xlink" x="0px" y="0px"
	 viewBox="0 0 145.08 123.19" style="enable-background:new 0 0 145.08 123.19;" xml:space="preserve">
<style type="text/css">
	.st0{fill:#441A7B;}
	.st1{fill:#FFFFFF;}
	.st2{opacity:0.3;}
	.st3{fill:#46197B;}
	.st4{fill:#F4F4F6;}
	.st5{fill:#36DE94;}
	.st6{fill-rule:evenodd;clip-rule:evenodd;fill:#FFFFFF;}
	.st7{fill:none;}
	.st8{opacity:0.5;fill:#035C71;enable-background:new    ;}
	.st9{fill:#E8E7E7;}
	.st10{fill:#0A1415;}
	.st11{opacity:0.7;fill:#254345;enable-background:new    ;}
	.st12{enable-background:new    ;}
	.st13{fill:#5A5A5A;}
	.st14{fill:#121111;}
	.st15{fill:#1E1C1B;}
	.st16{opacity:0.5;fill:#1E1C1B;enable-background:new    ;}
	.st17{fill:#B9B9B9;}
	.st18{fill:#DCDCDC;}
	.st19{clip-path:url(#SVGID_2_);enable-background:new    ;}
	.st20{fill:#9C9C9C;}
	.st21{fill:#C7C6C6;}
	.st22{clip-path:url(#SVGID_4_);enable-background:new    ;}
	.st23{fill:#DADADA;}
	.st24{opacity:0.6;fill:url(#SVGID_5_);enable-background:new    ;}
	.st25{fill:#EBEBEB;}
	.st26{fill:#060E0E;}
	.st27{fill:#1A2B2C;}
	.st28{opacity:0.5;}
	.st29{opacity:0.5;fill:#A7A7A6;enable-background:new    ;}
	.st30{fill:url(#SVGID_6_);}
	.st31{fill:#848585;}
	.st32{opacity:0.4;fill:url(#SVGID_7_);enable-background:new    ;}
	.st33{fill:#CC171A;}
	.st34{fill:#A3B7BC;}
	.st35{fill:#EF7E15;}
	.st36{opacity:0.75;}
	.st37{fill:#E2DAD7;}
	.st38{fill:#C5B5AF;}
	.st39{fill:#A88F87;}
	.st40{fill:#8B6A5F;}
	.st41{fill:#6E4537;}
	.st42{fill:url(#SVGID_12_);}
	.st43{fill:url(#SVGID_13_);}
	.st44{fill:url(#SVGID_14_);}
	.st45{fill:url(#SVGID_15_);}
	.st46{clip-path:url(#SVGID_17_);}
	.st47{fill:#333333;}
	.st48{clip-path:url(#SVGID_19_);}
	.st49{opacity:0.8;fill:#EBD3BB;}
	.st50{fill:#DBC6AF;}
	.st51{fill:#37322C;}
	.st52{fill:#B98042;}
	.st53{opacity:0.9;fill:url(#Tape_4_);}
	.st54{opacity:0.9;fill:url(#Tape_5_);}
	.st55{clip-path:url(#SVGID_21_);enable-background:new    ;}
	.st56{clip-path:url(#SVGID_23_);enable-background:new    ;}
	.st57{opacity:0.6;fill:url(#SVGID_24_);enable-background:new    ;}
	.st58{fill:url(#SVGID_25_);}
	.st59{opacity:0.4;fill:url(#SVGID_26_);enable-background:new    ;}
	.st60{fill:#659A37;}
	.st61{clip-path:url(#SVGID_28_);enable-background:new    ;}
	.st62{clip-path:url(#SVGID_30_);enable-background:new    ;}
	.st63{opacity:0.6;fill:url(#SVGID_31_);enable-background:new    ;}
	.st64{fill:url(#SVGID_32_);}
	.st65{opacity:0.4;fill:url(#SVGID_33_);enable-background:new    ;}
	.st66{fill:url(#SVGID_38_);}
	.st67{fill:url(#SVGID_39_);}
	.st68{fill:url(#SVGID_40_);}
	.st69{fill:url(#SVGID_41_);}
	.st70{clip-path:url(#SVGID_43_);}
	.st71{clip-path:url(#SVGID_45_);}
	.st72{opacity:0.9;fill:url(#Tape_6_);}
	.st73{opacity:0.9;fill:url(#Tape_10_);}
	.st74{clip-path:url(#SVGID_47_);enable-background:new    ;}
	.st75{clip-path:url(#SVGID_49_);enable-background:new    ;}
	.st76{opacity:0.6;fill:url(#SVGID_50_);enable-background:new    ;}
	.st77{fill:url(#SVGID_51_);}
	.st78{opacity:0.4;fill:url(#SVGID_52_);enable-background:new    ;}
	.st79{opacity:0.2;fill:#606060;}
	.st80{fill-rule:evenodd;clip-rule:evenodd;}
	.st81{fill:none;stroke:#FFFFFF;stroke-width:10;stroke-miterlimit:10;}
	.st82{fill:#606060;}
	.st83{opacity:0.6;}
	.st84{fill:none;stroke:#36DE94;stroke-width:11;stroke-miterlimit:10;}
</style>
<g id="Capa_1">
</g>
<g id="Capa_2">
	<g>
		<g>
			<path class="st0" d="M118.57,84.9c0.51,1.6,0.95,2.79,1.28,4.01c0.71,2.69,1.41,5.39,1.99,8.11c0.13,0.6-0.04,1.46-0.41,1.94
				c-10.58,13.54-24.41,21.7-41.45,23.71c-22.87,2.71-41.54-5.44-56.23-23.03c-0.71-0.85-0.93-1.62-0.61-2.73
				c0.9-3.16,1.66-6.36,2.49-9.54c0.16-0.6,0.4-1.18,0.69-2.02c0.63,1.06,1.12,1.92,1.63,2.76c6.76,11.03,16.27,18.64,28.56,22.69
				c5.33,1.76,9.61-1.4,9.62-7c0.01-6.63-0.02-13.25,0.01-19.88c0.02-2.95-1.13-5.2-3.66-6.75c-2.63-1.6-4.73-3.75-6.23-6.43
				c-1.54-2.76-3.87-3.97-6.98-3.95c-5.3,0.04-10.59,0.01-16.02,0.01c0.14-4.02,0.28-7.97,0.42-12.05c0.52-0.03,1-0.07,1.48-0.07
				c5.07-0.01,10.15-0.03,15.22,0.01c2.84,0.02,4.96-1.12,6.58-3.47c7.48-10.85,23.13-10.82,30.53,0.06
				c1.58,2.33,3.64,3.44,6.44,3.41c5.21-0.05,10.42-0.01,15.63-0.01c0.55,0,1.09,0,1.78,0c0.15,4.02,0.3,7.97,0.46,12.11
				c-0.64,0-1.26,0-1.87,0c-4.98,0.01-9.96,0.03-14.94,0.01c-3.01-0.01-5.27,1.18-6.77,3.84c-1.56,2.76-3.71,4.96-6.42,6.62
				c-2.44,1.49-3.55,3.69-3.54,6.53c0.02,6.72,0,13.44,0.01,20.15c0.01,5.51,4.28,8.68,9.54,6.98c12.9-4.18,22.74-12.18,29.56-23.9
				C117.7,86.45,118.03,85.86,118.57,84.9z M72.41,52.97c-4.81-0.01-8.7,3.81-8.7,8.54c0,4.83,3.75,8.62,8.55,8.67
				c4.74,0.05,8.7-3.8,8.76-8.53C81.08,56.95,77.14,52.98,72.41,52.97z"/>
			<path class="st0" d="M125.9,107.38c-0.6-2.52-1.18-5.09-1.82-7.64c-1.09-4.39-2.16-8.78-3.37-13.13
				c-0.32-1.15-0.88-2.43-1.74-3.19c-3.76-3.34-4.8-7.79-5.23-12.43c-0.4-4.36-0.51-8.75-0.74-13.13
				c-0.26-5.11-0.54-10.22-0.75-15.33c-0.04-1.04,0.04-2.11,0.25-3.13c0.54-2.69,2.39-4.05,5.11-3.88c2.55,0.15,4.64,1.95,4.75,4.45
				c0.19,4.24,0.16,8.49,0.22,12.74c0.01,0.91-0.04,1.83,0.06,2.74c0.23,1.93,1.47,2.79,3.36,2.43c3.61-0.68,5.85-3.42,5.63-7.14
				c-0.1-1.63-0.47-3.25-0.88-4.84c-1.04-4.06-2.18-8.1-3.28-12.14c0.11-0.06,0.22-0.13,0.33-0.19c0.37,0.4,0.74,0.79,1.1,1.19
				c4.65,5.28,9.24,10.62,13.98,15.81c1.97,2.15,2.42,4.64,2.06,7.24c-0.85,6.2-1.93,12.36-2.97,18.53
				c-0.2,1.16-0.42,2.39-0.95,3.42c-1.7,3.32-1.67,6.72-1,10.28c0.78,4.17,1.38,8.38,2,12.58c0.05,0.33-0.31,0.99-0.6,1.07
				c-5.04,1.3-10.1,2.53-15.15,3.77C126.22,107.45,126.13,107.41,125.9,107.38z"/>
			<path class="st0" d="M19.08,107.54c-4.57-1.15-8.99-2.25-13.41-3.36c-2.8-0.7-2.77-0.7-2.34-3.5c0.71-4.6,1.5-9.2,2.01-13.83
				c0.18-1.66,0.03-3.57-0.63-5.08c-1.41-3.21-1.82-6.58-2.36-9.96c-0.69-4.28-1.43-8.56-2.14-12.84C-0.34,55.63,0.1,52.68,2.6,50
				c4.74-5.07,9.22-10.38,13.81-15.6c0.24-0.27,0.49-0.53,0.97-0.72c-0.16,0.76-0.28,1.53-0.47,2.28c-1.08,4.11-2.19,8.2-3.25,12.32
				c-0.2,0.79-0.28,1.62-0.31,2.44c-0.17,3.67,1.91,6.34,5.51,7.11c2.04,0.44,3.42-0.43,3.49-2.53c0.16-4.29,0.12-8.58,0.17-12.87
				c0.01-0.59,0-1.19,0.04-1.78c0.2-3.11,2.19-5.11,5.12-5.14c3.03-0.03,4.91,1.76,5,5.12c0.08,3.05-0.07,6.12-0.21,9.17
				c-0.27,5.93-0.48,11.87-0.95,17.79c-0.26,3.26-0.91,6.5-1.58,9.7c-0.44,2.08-1.69,3.76-3.15,5.36c-1.1,1.2-2.13,2.71-2.55,4.26
				c-1.78,6.56-3.33,13.19-4.96,19.8C19.24,106.92,19.18,107.13,19.08,107.54z"/>
			<path class="st0" d="M124.04,47.66c0-2.19,0.07-4.39-0.02-6.58c-0.18-4.54-2.66-6.91-7.17-7.11c-0.45-0.02-1.02-0.49-1.3-0.9
				c-4.16-6.2-9.36-11.34-15.68-15.31C76.19,2.87,45.12,9.43,29.46,32.64c-0.61,0.9-1.18,1.38-2.35,1.44
				c-3.21,0.16-5.74,2.48-5.95,5.74c-0.27,4.23-0.18,8.49-0.24,12.74c-0.01,0.73,0.05,1.46,0.01,2.19
				c-0.09,1.55-0.63,1.92-2.14,1.51c-2.51-0.68-3.95-2.38-3.87-4.97c0.05-1.62,0.38-3.26,0.75-4.85c1.31-5.6,2.68-11.18,4.06-16.76
				c0.13-0.52,0.39-1.02,0.69-1.47C31.24,12.05,46.19,2.09,65.61,0.33c25.07-2.28,44.91,7.36,58.98,28.42
				c0.46,0.69,0.72,1.56,0.93,2.39c1.3,5.09,2.59,10.17,3.82,15.28c0.37,1.55,0.7,3.13,0.76,4.71c0.12,2.73-1.35,4.51-3.98,5.17
				c-1.44,0.36-1.99,0.01-2.03-1.5c-0.06-2.37-0.02-4.75-0.02-7.13C124.07,47.66,124.05,47.66,124.04,47.66z"/>
		</g>
	</g>
</g>
</svg>
