<?xml version="1.0" encoding="UTF-8" standalone="no"?>
<!-- Generator: Adobe Illustrator 24.0.2, SVG Export Plug-In . SVG Version: 6.00 Build 0)  -->

<svg
   xmlns:dc="http://purl.org/dc/elements/1.1/"
   xmlns:cc="http://creativecommons.org/ns#"
   xmlns:rdf="http://www.w3.org/1999/02/22-rdf-syntax-ns#"
   xmlns:svg="http://www.w3.org/2000/svg"
   xmlns="http://www.w3.org/2000/svg"
   xmlns:sodipodi="http://sodipodi.sourceforge.net/DTD/sodipodi-0.dtd"
   xmlns:inkscape="http://www.inkscape.org/namespaces/inkscape"
   version="1.1"
   id="Capa_1"
   x="0px"
   y="0px"
   viewBox="0 0 425.66892 275.58499"
   xml:space="preserve"
   sodipodi:docname="logo.svg"
   width="425.66895"
   height="275.58499"
   inkscape:version="0.92.3 (2405546, 2018-03-11)"><metadata
   id="metadata33"><rdf:RDF><cc:Work
       rdf:about=""><dc:format>image/svg+xml</dc:format><dc:type
         rdf:resource="http://purl.org/dc/dcmitype/StillImage" /><dc:title></dc:title></cc:Work></rdf:RDF></metadata><defs
   id="defs31" /><sodipodi:namedview
   pagecolor="#ffffff"
   bordercolor="#666666"
   borderopacity="1"
   objecttolerance="10"
   gridtolerance="10"
   guidetolerance="10"
   inkscape:pageopacity="0"
   inkscape:pageshadow="2"
   inkscape:window-width="1366"
   inkscape:window-height="719"
   id="namedview29"
   showgrid="false"
   fit-margin-top="0"
   fit-margin-left="0"
   fit-margin-right="0"
   fit-margin-bottom="0"
   inkscape:zoom="0.28032165"
   inkscape:cx="131.77066"
   inkscape:cy="87.994987"
   inkscape:window-x="0"
   inkscape:window-y="25"
   inkscape:window-maximized="1"
   inkscape:current-layer="Capa_1" />
<style
   type="text/css"
   id="style2">
	.st0{fill:#FFFFFF;}
</style>
<g
   id="g26"
   transform="translate(-103.44107,-233.35501)">
	<path
   class="st0"
   d="m 195.58,288.48 6,-1.35 c 0.99,-0.22 1.61,-1.2 1.39,-2.19 l -1.35,-6 c -0.22,-0.99 -1.2,-1.61 -2.19,-1.39 l -6,1.35 c -0.99,0.22 -1.61,1.2 -1.39,2.19 l 1.35,6 c 0.22,0.99 1.2,1.61 2.19,1.39 z"
   id="path4"
   inkscape:connector-curvature="0"
   style="fill:#ffffff" />
	<path
   class="st0"
   d="m 208.25,300.05 6,-1.35 c 0.99,-0.22 1.61,-1.2 1.39,-2.19 l -1.35,-6 c -0.22,-0.99 -1.2,-1.61 -2.19,-1.39 l -6,1.35 c -0.99,0.22 -1.61,1.2 -1.39,2.19 l 1.35,6 c 0.22,0.99 1.2,1.61 2.19,1.39 z"
   id="path6"
   inkscape:connector-curvature="0"
   style="fill:#ffffff" />
	<path
   class="st0"
   d="m 252.95,286.05 c -7.32,-0.93 -13.51,5.26 -12.58,12.58 0.64,5 4.65,9.01 9.65,9.65 7.32,0.93 13.51,-5.26 12.58,-12.58 -0.64,-5 -4.65,-9.02 -9.65,-9.65 z"
   id="path8"
   inkscape:connector-curvature="0"
   style="fill:#ffffff" />
	<rect
   x="240.28"
   y="319.12"
   class="st0"
   width="22.41"
   height="122.82"
   id="rect10"
   style="fill:#ffffff" />
	<path
   class="st0"
   d="m 427.97,318.83 -35.14,70.78 -37.67,-70.78 h -32.99 l 0.03,0.06 h -26.35 v -4.57 -18.98 h -22.41 v 22.41 1.14 22.41 37.74 1.37 c 0,33.16 26.3,60.15 59.24,61.3 v -22.19 c -20.58,-0.91 -36.82,-18.07 -36.82,-39.11 v -1.37 -3.89 -10.06 -26.3 h 36.82 v -0.94 l 44.86,81.22 -48.03,89.87 h 32.48 l 98.08,-190.1 h -32.1 z"
   id="path12"
   inkscape:connector-curvature="0"
   style="fill:#ffffff" />
	<path
   class="st0"
   d="m 188.55,334.16 c 8.58,0 16.42,2.7 23.03,6.86 l 17.4,-17.15 c -11.27,-8.58 -25.24,-13.72 -40.43,-13.72 -40.92,0 -73.1,37.43 -64.16,80.27 5.25,25.18 25.18,44.81 50.39,49.91 20.46,4.14 39.59,-1.21 54.2,-12.32 l -17.4,-17.15 c -6.61,4.41 -14.46,6.86 -23.03,6.86 -23.03,0 -41.65,-18.62 -41.65,-41.65 -0.01,-23.05 18.62,-41.91 41.65,-41.91 z"
   id="path14"
   inkscape:connector-curvature="0"
   style="fill:#ffffff" />
	<path
   class="st0"
   d="m 228.39,298.9 -10.5,-46.65 c -0.96,-4.27 -5.2,-6.95 -9.46,-5.99 l -27.54,6.2 -2.55,-11.34 c -0.61,-2.72 -2.89,-4.72 -5.67,-4.97 l -30.76,-2.77 c -2.03,-0.18 -4.04,0.62 -5.39,2.16 -1.34,1.53 -1.88,3.63 -1.43,5.62 l 3.9,17.34 -26.88,26.33 c -3.25,3.18 -4.64,7.91 -3.65,12.35 l 7.69,34.13 c -0.68,1.08 -1.39,2.25 -2.14,3.56 -10,17.79 -13.03,38.55 -8.55,58.46 4.21,18.67 14.72,35.18 29.76,46.89 0.3,2.47 2.33,4.42 4.88,4.42 2.76,0 5,-2.24 5,-5 0,-2.76 -2.24,-5 -5,-5 -0.36,0 -0.68,0.13 -1.02,0.21 -13.73,-10.77 -23.38,-25.85 -27.23,-42.96 -4.13,-18.33 -1.33,-37.44 7.85,-53.79 0.95,-1.66 1.83,-3.09 2.68,-4.37 l 0.77,-1.16 -2.46,-10.94 c 0.02,0 0.04,0 0.06,0 0.44,-0.1 0.86,-0.29 1.24,-0.57 l 7.62,-5.69 c 1.45,-1.08 1.75,-3.13 0.67,-4.59 -1.08,-1.45 -3.13,-1.75 -4.58,-0.67 l -6.5,4.85 -1.91,-8.49 c 0.02,0 0.04,0 0.06,0 0.44,-0.1 0.86,-0.29 1.24,-0.57 l 7.62,-5.69 c 1.45,-1.08 1.75,-3.13 0.67,-4.59 -1.08,-1.45 -3.13,-1.75 -4.59,-0.67 l -6.5,4.85 -0.92,-4.08 c -0.5,-2.24 0.2,-4.62 1.84,-6.23 l 21.78,-21.33 9.32,41.37 3.78,-1.97 c 0.66,-0.35 1.35,-0.67 2.02,-0.99 l 2.67,-1.26 -14.73,-65.4 30.44,2.74 3.62,16.1 -8.06,-1.68 c -1.77,-0.37 -3.51,0.77 -3.87,2.54 -0.37,1.77 0.77,3.51 2.54,3.88 l 10.97,2.28 1.67,7.43 -8.06,-1.68 c -1.77,-0.37 -3.51,0.77 -3.87,2.54 -0.37,1.77 0.77,3.51 2.54,3.88 l 10.97,2.28 4.26,18.9 2.34,0.24 c 0.27,0.03 0.56,0.03 0.88,0.03 l 4.06,-0.03 -5.05,-22.44 c 0,0 0,0 0,0 l -3.25,-14.45 c 0,0 0,0 0,0 l -0.84,-3.75 27.06,-6.09 c 0.73,-0.17 1.47,0.3 1.63,1.03 l 10.54,46.8 c -0.55,0.81 -0.95,1.73 -0.95,2.78 0,2.76 2.24,5 5,5 2.76,0 5,-2.24 5,-5 -0.04,-1.89 -1.15,-3.5 -2.73,-4.34 z"
   id="path16"
   inkscape:connector-curvature="0"
   style="fill:#ffffff" />
	<path
   class="st0"
   d="m 441.43,414.99 c -3.72,0 -6.8,1.54 -9.24,4.62 v -15.08 h -5.58 v 38.49 h 5.53 v -3.91 c 2.37,3.05 5.45,4.57 9.24,4.57 3.93,0 7.19,-1.37 9.8,-4.11 2.61,-2.81 3.91,-6.21 3.91,-10.21 0,-4 -1.3,-7.4 -3.91,-10.21 -2.57,-2.77 -5.82,-4.16 -9.75,-4.16 z m 5.48,20.81 c -1.56,1.76 -3.64,2.64 -6.24,2.64 -2.61,0 -4.72,-0.88 -6.35,-2.64 -1.59,-1.79 -2.39,-3.96 -2.39,-6.5 0,-2.5 0.8,-4.65 2.39,-6.45 1.63,-1.79 3.74,-2.69 6.35,-2.69 2.61,0 4.69,0.88 6.24,2.64 1.63,1.76 2.44,3.93 2.44,6.5 0,2.58 -0.81,4.74 -2.44,6.5 z"
   id="path18"
   inkscape:connector-curvature="0"
   style="fill:#ffffff" />
	<path
   class="st0"
   d="m 471.49,414.99 c -4.13,0 -7.5,1.35 -10.1,4.06 -2.57,2.67 -3.86,6.08 -3.86,10.21 0,3.96 1.24,7.34 3.73,10.15 2.49,2.81 6.14,4.21 10.94,4.21 4.47,0 8.41,-1.27 11.83,-3.81 l -2.34,-4.11 c -1.22,0.88 -2.68,1.59 -4.39,2.13 -1.71,0.54 -3.34,0.81 -4.9,0.81 -2.57,0 -4.63,-0.64 -6.17,-1.93 -1.54,-1.29 -2.51,-3.03 -2.92,-5.23 h 21.38 c 0.14,-0.91 0.2,-1.81 0.2,-2.69 0,-4.23 -1.25,-7.6 -3.76,-10.1 -2.47,-2.47 -5.68,-3.7 -9.64,-3.7 z m -8.18,11.93 c 0.41,-2.13 1.35,-3.85 2.82,-5.15 1.47,-1.3 3.26,-1.96 5.36,-1.96 2.06,0 3.82,0.65 5.25,1.96 1.44,1.3 2.28,3.02 2.51,5.15 z"
   id="path20"
   inkscape:connector-curvature="0"
   style="fill:#ffffff" />
	<path
   class="st0"
   d="m 502.41,428.29 c -0.78,-0.41 -2.06,-0.98 -3.86,-1.73 l -2.79,-1.17 c -1.52,-0.64 -2.28,-1.64 -2.28,-2.99 0,-0.85 0.33,-1.56 0.99,-2.13 0.66,-0.58 1.55,-0.86 2.67,-0.86 2.37,0 4.37,1 5.99,2.99 l 3.25,-3.45 c -2.1,-2.81 -5.1,-4.21 -8.99,-4.21 -2.78,0 -5.04,0.74 -6.8,2.23 -1.69,1.49 -2.54,3.37 -2.54,5.64 0,2.98 1.46,5.23 4.37,6.75 0.47,0.27 1.62,0.8 3.45,1.57 1.79,0.68 2.89,1.13 3.3,1.37 1.56,0.75 2.34,1.79 2.34,3.15 0,0.95 -0.42,1.75 -1.27,2.41 -0.85,0.66 -1.93,0.99 -3.25,0.99 -1.32,0 -2.62,-0.36 -3.88,-1.09 -1.27,-0.73 -2.31,-1.75 -3.12,-3.07 l -3.61,3.25 c 1.12,1.86 2.61,3.28 4.47,4.27 1.86,0.98 3.88,1.47 6.04,1.47 3.01,0 5.46,-0.81 7.36,-2.44 1.9,-1.63 2.84,-3.64 2.84,-6.04 -0.01,-2.98 -1.57,-5.29 -4.68,-6.91 z"
   id="path22"
   inkscape:connector-curvature="0"
   style="fill:#ffffff" />
	<path
   class="st0"
   d="m 527.18,437.02 c -1.73,1.02 -3.33,1.52 -4.82,1.52 -2.81,0 -4.22,-1.74 -4.22,-5.23 v -12.89 h 9.44 v -4.77 h -9.44 v -9.7 h -5.53 v 9.7 h -4.77 v 4.77 h 4.72 v 12.79 c 0,3.38 0.76,5.97 2.28,7.77 1.52,1.79 3.76,2.69 6.7,2.69 3.01,0 5.54,-0.76 7.57,-2.28 z"
   id="path24"
   inkscape:connector-curvature="0"
   style="fill:#ffffff" />
</g>
</svg>