<?xml version="1.0" encoding="utf-8"?>
<!-- Generator: Adobe Illustrator 24.0.2, SVG Export Plug-In . SVG Version: 6.00 Build 0)  -->
<svg version="1.1" xmlns="http://www.w3.org/2000/svg" xmlns:xlink="http://www.w3.org/1999/xlink" x="0px" y="0px"
	 viewBox="0 0 75.02 75.02" style="enable-background:new 0 0 75.02 75.02;" xml:space="preserve">
<style type="text/css">
	.st0{fill:#441A7B;}
	.st1{fill:#FFFFFF;}
	.st2{opacity:0.3;}
	.st3{fill:#46197B;}
	.st4{fill:#F4F4F6;}
	.st5{fill:#36DE94;}
	.st6{fill-rule:evenodd;clip-rule:evenodd;fill:#FFFFFF;}
	.st7{fill:none;}
	.st8{opacity:0.5;fill:#035C71;enable-background:new    ;}
	.st9{fill:#E8E7E7;}
	.st10{fill:#0A1415;}
	.st11{opacity:0.7;fill:#254345;enable-background:new    ;}
	.st12{enable-background:new    ;}
	.st13{fill:#5A5A5A;}
	.st14{fill:#121111;}
	.st15{fill:#1E1C1B;}
	.st16{opacity:0.5;fill:#1E1C1B;enable-background:new    ;}
	.st17{fill:#B9B9B9;}
	.st18{fill:#DCDCDC;}
	.st19{clip-path:url(#SVGID_2_);enable-background:new    ;}
	.st20{fill:#9C9C9C;}
	.st21{fill:#C7C6C6;}
	.st22{clip-path:url(#SVGID_4_);enable-background:new    ;}
	.st23{fill:#DADADA;}
	.st24{opacity:0.6;fill:url(#SVGID_5_);enable-background:new    ;}
	.st25{fill:#EBEBEB;}
	.st26{fill:#060E0E;}
	.st27{fill:#1A2B2C;}
	.st28{opacity:0.5;}
	.st29{opacity:0.5;fill:#A7A7A6;enable-background:new    ;}
	.st30{fill:url(#SVGID_6_);}
	.st31{fill:#848585;}
	.st32{opacity:0.4;fill:url(#SVGID_7_);enable-background:new    ;}
	.st33{fill:#CC171A;}
	.st34{fill:#A3B7BC;}
	.st35{fill:#EF7E15;}
	.st36{opacity:0.75;}
	.st37{fill:#E2DAD7;}
	.st38{fill:#C5B5AF;}
	.st39{fill:#A88F87;}
	.st40{fill:#8B6A5F;}
	.st41{fill:#6E4537;}
	.st42{fill:url(#SVGID_12_);}
	.st43{fill:url(#SVGID_13_);}
	.st44{fill:url(#SVGID_14_);}
	.st45{fill:url(#SVGID_15_);}
	.st46{clip-path:url(#SVGID_17_);}
	.st47{fill:#333333;}
	.st48{clip-path:url(#SVGID_19_);}
	.st49{opacity:0.8;fill:#EBD3BB;}
	.st50{fill:#DBC6AF;}
	.st51{fill:#37322C;}
	.st52{fill:#B98042;}
	.st53{opacity:0.9;fill:url(#Tape_4_);}
	.st54{opacity:0.9;fill:url(#Tape_5_);}
	.st55{clip-path:url(#SVGID_21_);enable-background:new    ;}
	.st56{clip-path:url(#SVGID_23_);enable-background:new    ;}
	.st57{opacity:0.6;fill:url(#SVGID_24_);enable-background:new    ;}
	.st58{fill:url(#SVGID_25_);}
	.st59{opacity:0.4;fill:url(#SVGID_26_);enable-background:new    ;}
	.st60{fill:#659A37;}
	.st61{clip-path:url(#SVGID_28_);enable-background:new    ;}
	.st62{clip-path:url(#SVGID_30_);enable-background:new    ;}
	.st63{opacity:0.6;fill:url(#SVGID_31_);enable-background:new    ;}
	.st64{fill:url(#SVGID_32_);}
	.st65{opacity:0.4;fill:url(#SVGID_33_);enable-background:new    ;}
	.st66{fill:url(#SVGID_38_);}
	.st67{fill:url(#SVGID_39_);}
	.st68{fill:url(#SVGID_40_);}
	.st69{fill:url(#SVGID_41_);}
	.st70{clip-path:url(#SVGID_43_);}
	.st71{clip-path:url(#SVGID_45_);}
	.st72{opacity:0.9;fill:url(#Tape_6_);}
	.st73{opacity:0.9;fill:url(#Tape_10_);}
	.st74{clip-path:url(#SVGID_47_);enable-background:new    ;}
	.st75{clip-path:url(#SVGID_49_);enable-background:new    ;}
	.st76{opacity:0.6;fill:url(#SVGID_50_);enable-background:new    ;}
	.st77{fill:url(#SVGID_51_);}
	.st78{opacity:0.4;fill:url(#SVGID_52_);enable-background:new    ;}
	.st79{opacity:0.2;fill:#606060;}
	.st80{fill-rule:evenodd;clip-rule:evenodd;}
	.st81{fill:none;stroke:#FFFFFF;stroke-width:10;stroke-miterlimit:10;}
	.st82{fill:#606060;}
	.st83{opacity:0.6;}
	.st84{fill:none;stroke:#36DE94;stroke-width:11;stroke-miterlimit:10;}
</style>
<g id="Capa_1">
</g>
<g id="Capa_2">
	<g>
		<circle class="st0" cx="37.51" cy="37.51" r="37.51"/>
		<g>
			<path class="st1" d="M49.86,47.69c-8.27,0-16.46,0-24.7,0c0-5.07,0-10.1,0-15.18c8.24,0,16.45,0,24.7,0
				C49.86,37.57,49.86,42.6,49.86,47.69z M37.52,34c-0.37,0.53-0.67,0.93-0.94,1.34c-1.19,1.84-2.44,3.65-3.09,5.77
				c-0.48,1.56,0.18,3.3,1.57,4.3c1.41,1.02,3.36,1.06,4.78,0.09c1.42-0.97,2.2-2.71,1.74-4.24C40.78,38.59,39.13,36.37,37.52,34z"
				/>
			<path class="st1" d="M31.07,18.26c-0.73,0-1.36,0.01-1.99,0c-0.81-0.02-1.33-0.49-1.31-1.16c0.02-0.65,0.52-1.08,1.31-1.08
				c5.63,0,11.26,0,16.89,0c0.79,0,1.28,0.42,1.29,1.09c0.02,0.68-0.5,1.14-1.32,1.16c-0.59,0.01-1.18,0.01-1.77,0.02
				c-0.04,0-0.08,0.03-0.21,0.09c0,1.49-0.01,3.01,0.02,4.53c0,0.14,0.32,0.35,0.52,0.4c3.45,0.96,5.52,3.78,5.39,7.35
				c0,0.09-0.02,0.18-0.04,0.33c-8.22,0-16.43,0-24.64,0c-0.62-2.91,1.5-6.37,4.57-7.45c1.28-0.45,1.28-0.45,1.28-1.85
				C31.07,20.58,31.07,19.48,31.07,18.26z M36.36,22.3c-0.28-0.02-0.49-0.02-0.7-0.06c-0.59-0.11-0.91-0.5-0.93-1.08
				c-0.02-0.59,0.33-1.06,0.9-1.09c1.27-0.07,2.54-0.06,3.81,0.01c0.58,0.03,0.9,0.52,0.86,1.11c-0.04,0.57-0.36,0.96-0.96,1.05
				c-0.2,0.03-0.41,0.04-0.64,0.06c0,0.28,0,0.52,0,0.78c1.01,0,1.96,0,2.94,0c0-1.6,0-3.17,0-4.76c-2.78,0-5.51,0-8.24,0
				c0,1.63,0,3.19,0,4.76c1.01,0,1.97,0,2.96,0C36.36,22.81,36.36,22.58,36.36,22.3z"/>
			<path class="st1" d="M49.81,49.22c0.62,3.32-1.86,6.89-5.34,7.68c-0.52,0.12-1.07,0.18-1.61,0.18c-3.56,0.02-7.12,0.03-10.68,0
				c-4.16-0.03-7.28-3.39-7.05-7.54c0.01-0.09,0.03-0.18,0.05-0.32C33.39,49.22,41.58,49.22,49.81,49.22z"/>
		</g>
	</g>
</g>
</svg>
