<?xml version="1.0" encoding="utf-8"?>
<!-- Generator: Adobe Illustrator 24.0.2, SVG Export Plug-In . SVG Version: 6.00 Build 0)  -->
<svg version="1.1" xmlns="http://www.w3.org/2000/svg" xmlns:xlink="http://www.w3.org/1999/xlink" x="0px" y="0px"
	 viewBox="0 0 92.1 103.22" style="enable-background:new 0 0 92.1 103.22;" xml:space="preserve">
<style type="text/css">
	.st0{fill:#441A7B;}
	.st1{fill:#FFFFFF;}
	.st2{opacity:0.3;}
	.st3{fill:#46197B;}
	.st4{fill:#F4F4F6;}
	.st5{fill:#36DE94;}
	.st6{fill-rule:evenodd;clip-rule:evenodd;fill:#FFFFFF;}
	.st7{fill:none;}
	.st8{opacity:0.5;fill:#035C71;enable-background:new    ;}
	.st9{fill:#E8E7E7;}
	.st10{fill:#0A1415;}
	.st11{opacity:0.7;fill:#254345;enable-background:new    ;}
	.st12{enable-background:new    ;}
	.st13{fill:#5A5A5A;}
	.st14{fill:#121111;}
	.st15{fill:#1E1C1B;}
	.st16{opacity:0.5;fill:#1E1C1B;enable-background:new    ;}
	.st17{fill:#B9B9B9;}
	.st18{fill:#DCDCDC;}
	.st19{clip-path:url(#SVGID_2_);enable-background:new    ;}
	.st20{fill:#9C9C9C;}
	.st21{fill:#C7C6C6;}
	.st22{clip-path:url(#SVGID_4_);enable-background:new    ;}
	.st23{fill:#DADADA;}
	.st24{opacity:0.6;fill:url(#SVGID_5_);enable-background:new    ;}
	.st25{fill:#EBEBEB;}
	.st26{fill:#060E0E;}
	.st27{fill:#1A2B2C;}
	.st28{opacity:0.5;}
	.st29{opacity:0.5;fill:#A7A7A6;enable-background:new    ;}
	.st30{fill:url(#SVGID_6_);}
	.st31{fill:#848585;}
	.st32{opacity:0.4;fill:url(#SVGID_7_);enable-background:new    ;}
	.st33{fill:#CC171A;}
	.st34{fill:#A3B7BC;}
	.st35{fill:#EF7E15;}
	.st36{opacity:0.75;}
	.st37{fill:#E2DAD7;}
	.st38{fill:#C5B5AF;}
	.st39{fill:#A88F87;}
	.st40{fill:#8B6A5F;}
	.st41{fill:#6E4537;}
	.st42{fill:url(#SVGID_12_);}
	.st43{fill:url(#SVGID_13_);}
	.st44{fill:url(#SVGID_14_);}
	.st45{fill:url(#SVGID_15_);}
	.st46{clip-path:url(#SVGID_17_);}
	.st47{fill:#333333;}
	.st48{clip-path:url(#SVGID_19_);}
	.st49{opacity:0.8;fill:#EBD3BB;}
	.st50{fill:#DBC6AF;}
	.st51{fill:#37322C;}
	.st52{fill:#B98042;}
	.st53{opacity:0.9;fill:url(#Tape_4_);}
	.st54{opacity:0.9;fill:url(#Tape_5_);}
	.st55{clip-path:url(#SVGID_21_);enable-background:new    ;}
	.st56{clip-path:url(#SVGID_23_);enable-background:new    ;}
	.st57{opacity:0.6;fill:url(#SVGID_24_);enable-background:new    ;}
	.st58{fill:url(#SVGID_25_);}
	.st59{opacity:0.4;fill:url(#SVGID_26_);enable-background:new    ;}
	.st60{fill:#659A37;}
	.st61{clip-path:url(#SVGID_28_);enable-background:new    ;}
	.st62{clip-path:url(#SVGID_30_);enable-background:new    ;}
	.st63{opacity:0.6;fill:url(#SVGID_31_);enable-background:new    ;}
	.st64{fill:url(#SVGID_32_);}
	.st65{opacity:0.4;fill:url(#SVGID_33_);enable-background:new    ;}
	.st66{fill:url(#SVGID_38_);}
	.st67{fill:url(#SVGID_39_);}
	.st68{fill:url(#SVGID_40_);}
	.st69{fill:url(#SVGID_41_);}
	.st70{clip-path:url(#SVGID_43_);}
	.st71{clip-path:url(#SVGID_45_);}
	.st72{opacity:0.9;fill:url(#Tape_6_);}
	.st73{opacity:0.9;fill:url(#Tape_10_);}
	.st74{clip-path:url(#SVGID_47_);enable-background:new    ;}
	.st75{clip-path:url(#SVGID_49_);enable-background:new    ;}
	.st76{opacity:0.6;fill:url(#SVGID_50_);enable-background:new    ;}
	.st77{fill:url(#SVGID_51_);}
	.st78{opacity:0.4;fill:url(#SVGID_52_);enable-background:new    ;}
	.st79{opacity:0.2;fill:#606060;}
	.st80{fill-rule:evenodd;clip-rule:evenodd;}
	.st81{fill:none;stroke:#FFFFFF;stroke-width:10;stroke-miterlimit:10;}
	.st82{fill:#606060;}
	.st83{opacity:0.6;}
	.st84{fill:none;stroke:#36DE94;stroke-width:11;stroke-miterlimit:10;}
</style>
<g id="Capa_1">
</g>
<g id="Capa_2">
	<g>
		<g>
			<path class="st0" d="M57.79,31.11c0.83,0,1.66,0,2.48,0c9.31,0,18.62-0.01,27.93,0c2.99,0,3.87,0.85,3.88,3.79
				c0.01,5.69,0.02,11.38,0,17.08c-0.01,3.03-0.92,3.91-4,3.91c-12.06,0.01-24.12,0.01-36.17,0c-2.77,0-3.31-0.54-3.31-3.25
				c0-6.29,0.02-12.59-0.01-18.88c-0.01-2.15-0.92-2.88-3.01-2.69c-1.78,0.16-2.1,1.3-2.09,2.81c0.03,6.16,0.02,12.32,0.01,18.48
				c0,3.05-0.47,3.53-3.46,3.53c-11.99,0-23.98,0-35.97,0c-3.2,0-4.05-0.86-4.05-4.06C0,46.2,0,40.58,0.01,34.95
				c0.01-2.95,0.9-3.84,3.83-3.84c9.45-0.01,18.89,0,28.34,0c0.7,0,1.41,0,2.11,0c0.04-0.19,0.09-0.38,0.13-0.57
				c-0.62-0.2-1.26-0.36-1.85-0.62c-4.28-1.85-8.83-3.27-12.76-5.7c-6.4-3.96-7.39-9.61-3.44-16.06c2.24-3.67,5.4-6.27,9.55-7.56
				c5.21-1.62,9.61,0.01,12.46,4.64c2.81,4.56,3.68,9.71,4.41,14.9c0.07,0.53,0.11,1.07,0.17,1.6c0.38,3,1.7,3.91,4.64,2.96
				c0.61-0.2,1.21-1.18,1.36-1.89c0.75-3.67,1.17-7.41,2.08-11.03c0.58-2.3,1.61-4.55,2.8-6.62c2.4-4.15,6.19-5.74,10.93-4.94
				c6.11,1.03,12.05,7.09,13.06,13.25c0.55,3.37-0.38,6.23-2.79,8.6c-4.25,4.19-9.67,6.11-15.21,7.78c-0.69,0.21-1.38,0.4-2.07,0.61
				C57.76,30.69,57.77,30.9,57.79,31.11z M29.07,6.19c-2.88,0.31-5.24,2.07-7.08,4.6c-2.92,4.01-2.31,7.88,2.13,10.02
				c3.31,1.6,7.04,2.37,10.63,3.33c1.36,0.36,2.14-0.57,2.04-1.99c-0.08-1.2-0.16-2.42-0.45-3.58c-0.81-3.22-1.58-6.47-2.68-9.6
				C33.05,7.17,31.48,6.14,29.07,6.19z M71.8,14.82c-0.43-3.38-2.69-6.06-6.08-7.8c-3.55-1.82-6.51-0.93-7.73,2.84
				c-1.29,3.96-1.89,8.16-2.68,12.27c-0.24,1.26,0.55,2.19,1.85,2c4.32-0.62,8.58-1.52,12.18-4.19
				C70.84,18.84,71.87,17.38,71.8,14.82z"/>
			<path class="st0" d="M48.6,81.81c0-6.09-0.01-12.18,0-18.27c0-2.5,0.55-3.04,3.09-3.05c10.18-0.01,20.35-0.01,30.53,0
				c2.65,0,3.62,0.97,3.63,3.64c0.01,11.85,0.01,23.69,0,35.54c0,2.56-0.92,3.52-3.5,3.53c-10.31,0.03-20.62,0.03-30.93,0.01
				c-2.22,0-2.81-0.64-2.81-2.93C48.59,94.12,48.6,87.96,48.6,81.81z"/>
			<path class="st0" d="M43.5,81.82c0,6.09,0.01,12.18-0.01,18.27c-0.01,2.55-0.53,3.11-3.04,3.11c-10.24,0.02-20.49,0.02-30.73,0
				c-2.54-0.01-3.48-0.99-3.48-3.56c-0.01-11.85-0.02-23.69,0-35.54c0-2.66,0.97-3.61,3.65-3.62c10.24-0.01,20.49-0.01,30.73,0
				c2.25,0,2.87,0.62,2.87,2.87C43.51,69.51,43.5,75.67,43.5,81.82z"/>
		</g>
	</g>
</g>
</svg>
