<?xml version="1.0" encoding="utf-8"?>
<!-- Generator: Adobe Illustrator 24.1.1, SVG Export Plug-In . SVG Version: 6.00 Build 0)  -->
<svg version="1.1" id="Capa_1" xmlns="http://www.w3.org/2000/svg" xmlns:xlink="http://www.w3.org/1999/xlink" x="0px" y="0px"
	 viewBox="0 0 221.17 58.68" style="enable-background:new 0 0 221.17 58.68;" xml:space="preserve">
<style type="text/css">
	.st0{opacity:0.8;fill:#36DE94;}
	.st1{fill:#FFFFFF;}
	.st2{fill:#36DE94;}
	.st3{fill:#441A7B;}
</style>
<g>
	<g>
		<path class="st3" d="M210.51,0H44.54c11.82,5.64,19.99,17.71,19.99,31.68c0,10.86-7.46,20.56-15.21,27h161.19
			c5.89,0,10.66-4.77,10.66-10.66V10.66C221.17,4.77,216.4,0,210.51,0z"/>
		<path class="st2" d="M41.96,2.85C38.14,1.02,33.86,0,29.34,0C13.14,0,0,13.14,0,29.34s13.14,29.34,29.34,29.34
			c7.12,0,13.65-2.54,18.73-6.76c6.48-5.38,10.6-13.5,10.6-22.58C58.68,17.66,51.85,7.57,41.96,2.85z"/>
	</g>
	<g>
		<g>
			<path class="st1" d="M82.93,8.24h4.92l-7.23,20.75h-5.75L67.64,8.24h4.92l5.19,16.07L82.93,8.24z"/>
			<path class="st1" d="M93.57,8.24v20.75h-4.62V8.24H93.57z"/>
			<path class="st1" d="M109.96,8.24h4.92l-7.23,20.75h-5.75L94.66,8.24h4.92l5.19,16.07L109.96,8.24z"/>
			<path class="st1" d="M115.83,8.24h14.08v3.62h-9.46v4.68h8.77v3.62h-8.77v5.22h9.72v3.62h-14.35V8.24z"/>
			<path class="st1" d="M138.92,8.24h4.62v17.13h10.26v3.62h-14.88V8.24z"/>
			<path class="st1" d="M166.42,24.36h-7.47l-1.45,4.62h-4.92l7.23-20.75h5.75l7.23,20.75h-4.92L166.42,24.36z M160.08,20.75h5.22
				l-2.61-8.39L160.08,20.75z"/>
			<path class="st2" d="M68.9,32.36h11.19v2.87h-7.52v3.72h6.97v2.87h-6.97v4.15h7.73v2.87H68.9V32.36z"/>
			<path class="st2" d="M88.14,37.8l3.72-5.44h4.1l-5.61,8.1l5.82,8.39h-4.1l-3.94-5.72l-3.93,5.72h-4.1l5.82-8.39l-5.61-8.1h4.1
				L88.14,37.8z"/>
			<path class="st2" d="M109.13,37.75c0,0.9-0.15,1.68-0.46,2.36c-0.31,0.68-0.75,1.24-1.32,1.7c-0.57,0.46-1.27,0.8-2.08,1.03
				s-1.74,0.34-2.76,0.34h-2.03v5.68h-3.67V32.36h5.7c1.02,0,1.94,0.11,2.76,0.34s1.51,0.57,2.08,1.02
				c0.57,0.46,1.01,1.02,1.32,1.68C108.98,36.08,109.13,36.86,109.13,37.75z M105.41,37.75c0-0.94-0.26-1.61-0.78-2.01
				c-0.52-0.4-1.33-0.6-2.45-0.6h-1.7v5.25h1.7c1.12,0,1.93-0.2,2.45-0.61C105.15,39.37,105.41,38.69,105.41,37.75z"/>
			<path class="st2" d="M110.19,32.36h11.19v2.87h-7.52v3.72h6.97v2.87h-6.97v4.15h7.73v2.87h-11.4V32.36z"/>
			<path class="st2" d="M135.35,37.42c0,1.12-0.29,2.07-0.88,2.85c-0.59,0.79-1.4,1.38-2.44,1.79l4.55,6.78h-4.01l-4-6.22h-2v6.22
				h-3.67V32.36h5.96c0.93,0,1.79,0.11,2.58,0.32s1.48,0.53,2.06,0.94c0.58,0.42,1.04,0.94,1.37,1.58
				C135.19,35.83,135.35,36.57,135.35,37.42z M131.63,37.42c0-0.8-0.26-1.38-0.79-1.74c-0.53-0.36-1.27-0.54-2.23-0.54h-2.05v4.71
				h2.05c0.96,0,1.7-0.2,2.23-0.61C131.37,38.83,131.63,38.22,131.63,37.42z"/>
			<path class="st2" d="M140.89,32.36v16.49h-3.68V32.36H140.89z"/>
			<path class="st2" d="M143.13,32.36h11.19v2.87h-7.52v3.72h6.97v2.87h-6.97v4.15h7.73v2.87h-11.4V32.36z"/>
			<path class="st2" d="M155.82,32.36h4.15l6.36,11.31V32.36h3.56v16.49h-4.15l-6.36-11.31v11.31h-3.56V32.36z"/>
			<path class="st2" d="M171.18,40.6c0-1.26,0.2-2.41,0.61-3.45c0.41-1.04,0.99-1.94,1.74-2.7s1.67-1.34,2.74-1.75
				s2.28-0.63,3.62-0.63c0.77,0,1.54,0.07,2.32,0.21c0.78,0.14,1.46,0.35,2.06,0.64l-0.26,3.06c-0.5-0.35-1.08-0.6-1.72-0.75
				c-0.64-0.16-1.3-0.24-1.98-0.24c-0.87,0-1.63,0.13-2.31,0.4c-0.68,0.27-1.24,0.65-1.7,1.14c-0.46,0.49-0.8,1.09-1.05,1.78
				c-0.24,0.69-0.37,1.45-0.37,2.29c0,1.77,0.49,3.16,1.46,4.15c0.97,0.99,2.32,1.48,4.03,1.48c0.69,0,1.35-0.09,1.97-0.26
				c0.62-0.17,1.21-0.45,1.75-0.82l0.28,3.13c-0.68,0.31-1.4,0.54-2.17,0.67c-0.77,0.13-1.52,0.2-2.24,0.2
				c-1.35,0-2.57-0.21-3.65-0.61s-2.01-0.99-2.78-1.73c-0.77-0.75-1.36-1.64-1.77-2.7C171.39,43.06,171.18,41.89,171.18,40.6z"/>
			<path class="st2" d="M189.37,32.36v16.49h-3.67V32.36H189.37z"/>
			<path class="st2" d="M200.94,45.17H195l-1.15,3.67h-3.91l5.75-16.49h4.57L206,48.85h-3.91L200.94,45.17z M195.89,42.3h4.15
				l-2.07-6.67L195.89,42.3z"/>
		</g>
	</g>
	<g>
		<g>
			<g>
				<g>
					<polygon class="st1" points="192.6,17.94 188.21,13.55 181.06,6.4 177.93,9.54 186.55,18.16 177.5,27.21 180.42,30.12 
						187.99,22.55 					"/>
				</g>
			</g>
		</g>
		<g>
			<g>
				<g>
					<polygon class="st2" points="202.29,17.94 197.9,13.55 190.76,6.4 187.62,9.54 196.24,18.16 187.19,27.21 190.11,30.12 
						197.68,22.55 					"/>
				</g>
			</g>
		</g>
	</g>
</g>
<g>
	<g>
		<path class="st3" d="M33.62,18.37l1.3-0.29c0.21-0.05,0.35-0.26,0.3-0.48l-0.29-1.3c-0.05-0.21-0.26-0.35-0.48-0.3l-1.3,0.29
			c-0.21,0.05-0.35,0.26-0.3,0.48l0.29,1.3C33.19,18.28,33.4,18.42,33.62,18.37z"/>
		<path class="st3" d="M36.37,20.88l1.3-0.29c0.21-0.05,0.35-0.26,0.3-0.48l-0.29-1.3c-0.05-0.21-0.26-0.35-0.48-0.3l-1.3,0.29
			c-0.21,0.05-0.35,0.26-0.3,0.48l0.29,1.3C35.94,20.79,36.15,20.93,36.37,20.88z"/>
		<path class="st3" d="M32.09,28.29c1.86,0,3.56,0.59,5,1.49l3.78-3.72c-2.45-1.86-5.48-2.98-8.78-2.98
			c-8.88,0-15.87,8.13-13.93,17.43c1.14,5.47,5.47,9.73,10.94,10.83c4.44,0.9,8.59-0.26,11.77-2.68l-3.78-3.72
			c-1.44,0.96-3.14,1.49-5,1.49c-5,0-9.04-4.04-9.04-9.04S27.09,28.29,32.09,28.29z"/>
		<path class="st3" d="M40.74,20.63L38.46,10.5C38.25,9.58,37.33,9,36.4,9.2l-5.98,1.35l-0.55-2.46c-0.13-0.59-0.63-1.02-1.23-1.08
			l-6.68-0.6c-0.44-0.04-0.88,0.13-1.17,0.47c-0.29,0.33-0.41,0.79-0.31,1.22l0.85,3.76l-5.84,5.72c-0.71,0.69-1.01,1.72-0.79,2.68
			l1.67,7.41c-0.15,0.23-0.3,0.49-0.47,0.77c-2.17,3.86-2.83,8.37-1.86,12.69c0.91,4.05,3.2,7.64,6.46,10.18
			c0.07,0.54,0.51,0.96,1.06,0.96c0.6,0,1.09-0.49,1.09-1.09c0-0.6-0.49-1.09-1.09-1.09c-0.08,0-0.15,0.03-0.22,0.04
			c-2.98-2.34-5.08-5.61-5.91-9.33c-0.9-3.98-0.29-8.13,1.7-11.68c0.21-0.36,0.4-0.67,0.58-0.95l0.17-0.25l-0.53-2.38
			c0,0,0.01,0,0.01,0c0.09-0.02,0.19-0.06,0.27-0.12l1.65-1.23c0.31-0.24,0.38-0.68,0.14-1c-0.23-0.31-0.68-0.38-1-0.14l-1.41,1.05
			l-0.42-1.84c0,0,0.01,0,0.01,0c0.09-0.02,0.19-0.06,0.27-0.12l1.65-1.23c0.31-0.24,0.38-0.68,0.14-1c-0.24-0.32-0.68-0.38-1-0.14
			l-1.41,1.05l-0.2-0.89c-0.11-0.49,0.04-1,0.4-1.35l4.73-4.63l2.02,8.98l0.82-0.43c0.14-0.08,0.29-0.15,0.44-0.21l0.58-0.27
			l-3.2-14.2l6.61,0.59l0.79,3.5l-1.75-0.36c-0.38-0.08-0.76,0.17-0.84,0.55c-0.08,0.38,0.17,0.76,0.55,0.84l2.38,0.5l0.36,1.61
			l-1.75-0.36c-0.38-0.08-0.76,0.17-0.84,0.55c-0.08,0.38,0.17,0.76,0.55,0.84l2.38,0.5l0.92,4.1l0.51,0.05
			c0.06,0.01,0.12,0.01,0.19,0.01l0.88-0.01l-1.1-4.87c0,0,0,0,0,0l-0.71-3.14c0,0,0,0,0,0l-0.18-0.81l5.87-1.32
			c0.16-0.04,0.32,0.06,0.35,0.22l2.29,10.16c-0.12,0.17-0.21,0.37-0.21,0.6c0,0.6,0.49,1.09,1.09,1.09c0.6,0,1.09-0.49,1.09-1.09
			C41.32,21.16,41.08,20.81,40.74,20.63z"/>
	</g>
</g>
</svg>
