<?xml version="1.0" encoding="utf-8"?>
<!-- Generator: Adobe Illustrator 24.0.2, SVG Export Plug-In . SVG Version: 6.00 Build 0)  -->
<svg version="1.1" xmlns="http://www.w3.org/2000/svg" xmlns:xlink="http://www.w3.org/1999/xlink" x="0px" y="0px"
	 viewBox="0 0 170.24 139.04" style="enable-background:new 0 0 170.24 139.04;" xml:space="preserve">
<style type="text/css">
	.st0{fill:#441A7B;}
	.st1{fill:#FFFFFF;}
	.st2{opacity:0.3;}
	.st3{fill:#46197B;}
	.st4{fill:#F4F4F6;}
	.st5{fill:#36DE94;}
	.st6{fill-rule:evenodd;clip-rule:evenodd;fill:#FFFFFF;}
	.st7{fill:none;}
	.st8{opacity:0.5;fill:#035C71;enable-background:new    ;}
	.st9{fill:#E8E7E7;}
	.st10{fill:#0A1415;}
	.st11{opacity:0.7;fill:#254345;enable-background:new    ;}
	.st12{enable-background:new    ;}
	.st13{fill:#5A5A5A;}
	.st14{fill:#121111;}
	.st15{fill:#1E1C1B;}
	.st16{opacity:0.5;fill:#1E1C1B;enable-background:new    ;}
	.st17{fill:#B9B9B9;}
	.st18{fill:#DCDCDC;}
	.st19{clip-path:url(#SVGID_2_);enable-background:new    ;}
	.st20{fill:#9C9C9C;}
	.st21{fill:#C7C6C6;}
	.st22{clip-path:url(#SVGID_4_);enable-background:new    ;}
	.st23{fill:#DADADA;}
	.st24{opacity:0.6;fill:url(#SVGID_5_);enable-background:new    ;}
	.st25{fill:#EBEBEB;}
	.st26{fill:#060E0E;}
	.st27{fill:#1A2B2C;}
	.st28{opacity:0.5;}
	.st29{opacity:0.5;fill:#A7A7A6;enable-background:new    ;}
	.st30{fill:url(#SVGID_6_);}
	.st31{fill:#848585;}
	.st32{opacity:0.4;fill:url(#SVGID_7_);enable-background:new    ;}
	.st33{fill:#CC171A;}
	.st34{fill:#A3B7BC;}
	.st35{fill:#EF7E15;}
	.st36{opacity:0.75;}
	.st37{fill:#E2DAD7;}
	.st38{fill:#C5B5AF;}
	.st39{fill:#A88F87;}
	.st40{fill:#8B6A5F;}
	.st41{fill:#6E4537;}
	.st42{fill:url(#SVGID_12_);}
	.st43{fill:url(#SVGID_13_);}
	.st44{fill:url(#SVGID_14_);}
	.st45{fill:url(#SVGID_15_);}
	.st46{clip-path:url(#SVGID_17_);}
	.st47{fill:#333333;}
	.st48{clip-path:url(#SVGID_19_);}
	.st49{opacity:0.8;fill:#EBD3BB;}
	.st50{fill:#DBC6AF;}
	.st51{fill:#37322C;}
	.st52{fill:#B98042;}
	.st53{opacity:0.9;fill:url(#Tape_4_);}
	.st54{opacity:0.9;fill:url(#Tape_5_);}
	.st55{clip-path:url(#SVGID_21_);enable-background:new    ;}
	.st56{clip-path:url(#SVGID_23_);enable-background:new    ;}
	.st57{opacity:0.6;fill:url(#SVGID_24_);enable-background:new    ;}
	.st58{fill:url(#SVGID_25_);}
	.st59{opacity:0.4;fill:url(#SVGID_26_);enable-background:new    ;}
	.st60{fill:#659A37;}
	.st61{clip-path:url(#SVGID_28_);enable-background:new    ;}
	.st62{clip-path:url(#SVGID_30_);enable-background:new    ;}
	.st63{opacity:0.6;fill:url(#SVGID_31_);enable-background:new    ;}
	.st64{fill:url(#SVGID_32_);}
	.st65{opacity:0.4;fill:url(#SVGID_33_);enable-background:new    ;}
	.st66{fill:url(#SVGID_38_);}
	.st67{fill:url(#SVGID_39_);}
	.st68{fill:url(#SVGID_40_);}
	.st69{fill:url(#SVGID_41_);}
	.st70{clip-path:url(#SVGID_43_);}
	.st71{clip-path:url(#SVGID_45_);}
	.st72{opacity:0.9;fill:url(#Tape_6_);}
	.st73{opacity:0.9;fill:url(#Tape_10_);}
	.st74{clip-path:url(#SVGID_47_);enable-background:new    ;}
	.st75{clip-path:url(#SVGID_49_);enable-background:new    ;}
	.st76{opacity:0.6;fill:url(#SVGID_50_);enable-background:new    ;}
	.st77{fill:url(#SVGID_51_);}
	.st78{opacity:0.4;fill:url(#SVGID_52_);enable-background:new    ;}
	.st79{opacity:0.2;fill:#606060;}
	.st80{fill-rule:evenodd;clip-rule:evenodd;}
	.st81{fill:none;stroke:#FFFFFF;stroke-width:10;stroke-miterlimit:10;}
	.st82{fill:#606060;}
	.st83{opacity:0.6;}
	.st84{fill:none;stroke:#36DE94;stroke-width:11;stroke-miterlimit:10;}
</style>
<g id="Capa_1">
</g>
<g id="Capa_2">
	<g>
		<g>
			<path class="st0" d="M84.74,89.58c10.25,2.52,20.56,3.69,30.77-0.07c2.76-1.02,5.48-2.32,7.98-3.87
				c2.74-1.69,4.05-4.28,3.02-7.63c12.02-6.3,24.19-12.21,36.98-16.74c0.84-0.3,1.79-0.48,2.68-0.45c3.29,0.08,5.08,2.85,3.45,5.69
				c-1.19,2.08-2.78,4.04-4.55,5.66c-11.32,10.43-24.05,18.92-37.33,26.61c-6.31,3.65-13.21,5.88-20.37,7.22
				c-10.27,1.92-20.61,1.83-30.98,1.17c-4.02-0.26-8.08-0.62-12.09-0.42c-7.22,0.37-13.22,3.77-18.68,8.66
				c-7.09-10.24-14.1-20.36-21.1-30.47c4.47-1.91,8.33-4.65,11.14-8.43c6.64-8.91,15.97-11.09,26.16-10.39
				c5,0.35,10.16,1.54,14.8,3.46c7.99,3.3,16.24,4.57,24.72,4.91c4.79,0.19,9.6,0.01,14.4,0.11c1.73,0.04,3.5,0.27,5.18,0.7
				c2.21,0.57,3.81,2.07,4.23,4.34c0.41,2.17-1.12,3.57-2.67,4.71c-4.44,3.24-9.64,4.74-14.97,5.08
				c-6.89,0.45-13.82,0.19-20.74,0.23C86.1,89.68,85.42,89.61,84.74,89.58z"/>
			<path class="st0" d="M0,92.84c5.65-4.36,11.18-8.63,16.96-13.1c10.51,15.14,20.96,30.18,31.53,45.41
				c-5.01,4.62-9.97,9.21-15.05,13.89C22.27,123.6,11.2,108.31,0,92.84z M34.71,120.7c-2.03,0.01-3.77,1.75-3.75,3.77
				c0.01,2.04,1.74,3.73,3.79,3.72c2.06-0.01,3.77-1.71,3.76-3.76C38.49,122.4,36.76,120.69,34.71,120.7z"/>
			<path class="st0" d="M78.74,30.44C78.66,13.9,92.34,0.1,108.92,0c17-0.1,30.8,13.52,30.85,30.47
				c0.05,16.8-13.69,30.55-30.53,30.55C92.4,61.02,78.82,47.4,78.74,30.44z M109.35,5.75C95.6,5.7,84.46,16.74,84.42,30.46
				c-0.04,13.59,11,24.73,24.61,24.83c13.74,0.1,24.93-10.9,25.04-24.63C134.19,16.98,123.1,5.81,109.35,5.75z"/>
			<path class="st0" d="M111.79,27.16c4.67,1.49,10,2.62,9.81,9.15c-0.18,6.13-4.95,7.58-9.88,8.6c-0.1,1.11-0.19,2.15-0.29,3.32
				c-1.32,0-2.5,0-3.88,0c-0.09-1.06-0.18-2.09-0.29-3.38c-5.2-0.83-9.41-3.06-10.52-9.1c1.98,0,3.77,0,5.83,0
				c0.78,1.91,1.96,3.7,4.64,4.06c0-2.6,0-5.06,0-7.64c-4.54-1.43-9.78-2.48-9.36-8.88c0.36-5.49,4.66-7,9.36-7.83
				c0.1-0.82,0.2-1.62,0.32-2.6c1.26,0,2.5,0,3.95,0c-0.43,2.42,1.06,2.93,3,3.44c3.59,0.96,5.87,3.34,6.57,7.54
				c-1.78,0-3.42,0.08-5.03-0.05c-0.44-0.04-0.85-0.68-1.25-1.06c-0.83-0.8-1.64-1.62-2.47-2.43c-0.17,0.1-0.34,0.2-0.51,0.3
				C111.79,22.75,111.79,24.9,111.79,27.16z M111.7,40.05c2.28-0.41,3.82-1.21,3.79-3.53c-0.02-1.78-1.39-2.84-3.79-3.02
				C111.7,35.61,111.7,37.71,111.7,40.05z M107.27,26.13c0-1.98,0-3.85,0-5.83c-1.98,0.12-3.48,0.81-3.51,2.87
				C103.72,25.31,105.42,25.79,107.27,26.13z"/>
		</g>
	</g>
</g>
</svg>
