<?xml version="1.0" encoding="utf-8"?>
<!-- Generator: Adobe Illustrator 24.0.2, SVG Export Plug-In . SVG Version: 6.00 Build 0)  -->
<svg version="1.1" xmlns="http://www.w3.org/2000/svg" xmlns:xlink="http://www.w3.org/1999/xlink" x="0px" y="0px"
	 viewBox="0 0 143.56 143.56" style="enable-background:new 0 0 143.56 143.56;" xml:space="preserve">
<style type="text/css">
	.st0{fill:#441A7B;}
	.st1{fill:#FFFFFF;}
	.st2{opacity:0.3;}
	.st3{fill:#46197B;}
	.st4{fill:#F4F4F6;}
	.st5{fill:#36DE94;}
	.st6{fill-rule:evenodd;clip-rule:evenodd;fill:#FFFFFF;}
	.st7{fill:none;}
	.st8{opacity:0.5;fill:#035C71;enable-background:new    ;}
	.st9{fill:#E8E7E7;}
	.st10{fill:#0A1415;}
	.st11{opacity:0.7;fill:#254345;enable-background:new    ;}
	.st12{enable-background:new    ;}
	.st13{fill:#5A5A5A;}
	.st14{fill:#121111;}
	.st15{fill:#1E1C1B;}
	.st16{opacity:0.5;fill:#1E1C1B;enable-background:new    ;}
	.st17{fill:#B9B9B9;}
	.st18{fill:#DCDCDC;}
	.st19{clip-path:url(#SVGID_2_);enable-background:new    ;}
	.st20{fill:#9C9C9C;}
	.st21{fill:#C7C6C6;}
	.st22{clip-path:url(#SVGID_4_);enable-background:new    ;}
	.st23{fill:#DADADA;}
	.st24{opacity:0.6;fill:url(#SVGID_5_);enable-background:new    ;}
	.st25{fill:#EBEBEB;}
	.st26{fill:#060E0E;}
	.st27{fill:#1A2B2C;}
	.st28{opacity:0.5;}
	.st29{opacity:0.5;fill:#A7A7A6;enable-background:new    ;}
	.st30{fill:url(#SVGID_6_);}
	.st31{fill:#848585;}
	.st32{opacity:0.4;fill:url(#SVGID_7_);enable-background:new    ;}
	.st33{fill:#CC171A;}
	.st34{fill:#A3B7BC;}
	.st35{fill:#EF7E15;}
	.st36{opacity:0.75;}
	.st37{fill:#E2DAD7;}
	.st38{fill:#C5B5AF;}
	.st39{fill:#A88F87;}
	.st40{fill:#8B6A5F;}
	.st41{fill:#6E4537;}
	.st42{fill:url(#SVGID_12_);}
	.st43{fill:url(#SVGID_13_);}
	.st44{fill:url(#SVGID_14_);}
	.st45{fill:url(#SVGID_15_);}
	.st46{clip-path:url(#SVGID_17_);}
	.st47{fill:#333333;}
	.st48{clip-path:url(#SVGID_19_);}
	.st49{opacity:0.8;fill:#EBD3BB;}
	.st50{fill:#DBC6AF;}
	.st51{fill:#37322C;}
	.st52{fill:#B98042;}
	.st53{opacity:0.9;fill:url(#Tape_4_);}
	.st54{opacity:0.9;fill:url(#Tape_5_);}
	.st55{clip-path:url(#SVGID_21_);enable-background:new    ;}
	.st56{clip-path:url(#SVGID_23_);enable-background:new    ;}
	.st57{opacity:0.6;fill:url(#SVGID_24_);enable-background:new    ;}
	.st58{fill:url(#SVGID_25_);}
	.st59{opacity:0.4;fill:url(#SVGID_26_);enable-background:new    ;}
	.st60{fill:#659A37;}
	.st61{clip-path:url(#SVGID_28_);enable-background:new    ;}
	.st62{clip-path:url(#SVGID_30_);enable-background:new    ;}
	.st63{opacity:0.6;fill:url(#SVGID_31_);enable-background:new    ;}
	.st64{fill:url(#SVGID_32_);}
	.st65{opacity:0.4;fill:url(#SVGID_33_);enable-background:new    ;}
	.st66{fill:url(#SVGID_38_);}
	.st67{fill:url(#SVGID_39_);}
	.st68{fill:url(#SVGID_40_);}
	.st69{fill:url(#SVGID_41_);}
	.st70{clip-path:url(#SVGID_43_);}
	.st71{clip-path:url(#SVGID_45_);}
	.st72{opacity:0.9;fill:url(#Tape_6_);}
	.st73{opacity:0.9;fill:url(#Tape_10_);}
	.st74{clip-path:url(#SVGID_47_);enable-background:new    ;}
	.st75{clip-path:url(#SVGID_49_);enable-background:new    ;}
	.st76{opacity:0.6;fill:url(#SVGID_50_);enable-background:new    ;}
	.st77{fill:url(#SVGID_51_);}
	.st78{opacity:0.4;fill:url(#SVGID_52_);enable-background:new    ;}
	.st79{opacity:0.2;fill:#606060;}
	.st80{fill-rule:evenodd;clip-rule:evenodd;}
	.st81{fill:none;stroke:#FFFFFF;stroke-width:10;stroke-miterlimit:10;}
	.st82{fill:#606060;}
	.st83{opacity:0.6;}
	.st84{fill:none;stroke:#36DE94;stroke-width:11;stroke-miterlimit:10;}
</style>
<g id="Capa_1">
</g>
<g id="Capa_2">
	<g>
		<g>
			<path class="st0" d="M71.84,0c39.93,0.07,71.8,32.19,71.72,72.31c-0.07,39.56-32.46,71.37-72.54,71.25
				C31.73,143.43-0.08,111.05,0,71.25C0.08,31.97,32.38-0.07,71.84,0z M68,90.75c0,4.06-0.02,8.12,0.01,12.18
				c0.01,1.32-0.31,2.14-1.89,1.8c-4.91-1.07-8.93-3.32-10.84-8.27c-0.59-1.52-1.13-3.12-1.28-4.72c-0.23-2.51-1.39-3.31-3.83-3.16
				c-2.96,0.19-5.93,0.1-8.9,0.03c-2.07-0.05-2.78,0.83-2.58,2.85c1.32,13.52,9.2,22.41,22.5,25.28c2.18,0.47,5.29,0.24,6.31,1.59
				c1.15,1.52,0.48,4.46,0.48,6.79c0,6.11-0.5,5.62,6.01,5.63c0.08,0,0.16,0,0.23-0.01c1.44-0.03,2.14-0.81,2.16-2.21
				c0.03-1.72,0.02-3.44,0.02-5.15c0.01-5.3,0-5.3,5.21-6.15c13.2-2.16,22.03-10.78,23.13-23.63c1.28-14.92-4.82-22.57-15.64-26.77
				c-3.47-1.35-7.16-2.13-10.79-3.02c-1.25-0.31-1.93-0.66-1.92-2.09c0.04-7.81,0.04-15.62,0.01-23.43
				c-0.01-1.52,0.68-1.95,2.05-1.62c2.9,0.7,5.57,1.94,7.04,4.62c1.42,2.57,2.49,5.35,3.51,8.12c0.52,1.41,1.2,2.08,2.73,1.84
				c3.39-0.52,6.79-1,10.19-1.49c1.45-0.21,2.04-1.08,1.75-2.48c-1.14-5.58-2.98-10.84-7.19-14.95c-4.77-4.67-10.59-7.12-17.12-7.86
				c-2.41-0.27-3.23-1.17-3-3.52c0.19-1.93,0.02-3.9,0.02-5.85c0-1.4-0.66-2.42-2.07-2.24c-2.09,0.27-4.62-1.27-6.18,1.31
				c-0.25,0.41-0.13,1.07-0.13,1.61C67.99,17.35,68,18.91,68,20.47c0,3.54,0,3.54-3.43,3.97c-16.34,2.02-25.52,12.93-24.18,28.92
				c0.68,8.1,4.35,14.61,11.71,18.26c4.35,2.15,9.2,3.31,13.9,4.7c1.47,0.43,2.07,0.93,2.03,2.49C67.94,82.78,68,86.76,68,90.75z"/>
			<path class="st0" d="M76.41,91.46c0-3.67,0.03-7.34-0.02-11.01c-0.02-1.6,0.56-2.02,2.14-1.68c9.87,2.12,14.22,13.17,8.38,21.43
				c-2.14,3.03-5.32,4.2-8.79,4.78c-1.42,0.24-1.72-0.61-1.72-1.81C76.43,99.26,76.41,95.36,76.41,91.46z"/>
			<path class="st0" d="M68,49.02c0,3.51-0.02,7.02,0.01,10.53c0.01,1.3-0.28,2.23-1.86,1.83c-4.35-1.11-8.49-2.68-9.98-7.46
				c-1.5-4.8-1.69-9.53,2.08-13.6c2.18-2.36,5.03-3.32,8.06-3.87c1.44-0.26,1.69,0.63,1.68,1.82C67.97,41.84,67.99,45.43,68,49.02
				C67.99,49.02,68,49.02,68,49.02z"/>
		</g>
	</g>
</g>
</svg>
