<?xml version="1.0" encoding="utf-8"?>
<!-- Generator: Adobe Illustrator 24.0.2, SVG Export Plug-In . SVG Version: 6.00 Build 0)  -->
<svg version="1.1" xmlns="http://www.w3.org/2000/svg" xmlns:xlink="http://www.w3.org/1999/xlink" x="0px" y="0px"
	 viewBox="0 0 196.14 140.25" style="enable-background:new 0 0 196.14 140.25;" xml:space="preserve">
<style type="text/css">
	.st0{fill:#441A7B;}
	.st1{fill:#FFFFFF;}
	.st2{opacity:0.3;}
	.st3{fill:#46197B;}
	.st4{fill:#F4F4F6;}
	.st5{fill:#36DE94;}
	.st6{fill-rule:evenodd;clip-rule:evenodd;fill:#FFFFFF;}
	.st7{fill:none;}
	.st8{opacity:0.5;fill:#035C71;enable-background:new    ;}
	.st9{fill:#E8E7E7;}
	.st10{fill:#0A1415;}
	.st11{opacity:0.7;fill:#254345;enable-background:new    ;}
	.st12{enable-background:new    ;}
	.st13{fill:#5A5A5A;}
	.st14{fill:#121111;}
	.st15{fill:#1E1C1B;}
	.st16{opacity:0.5;fill:#1E1C1B;enable-background:new    ;}
	.st17{fill:#B9B9B9;}
	.st18{fill:#DCDCDC;}
	.st19{clip-path:url(#SVGID_2_);enable-background:new    ;}
	.st20{fill:#9C9C9C;}
	.st21{fill:#C7C6C6;}
	.st22{clip-path:url(#SVGID_4_);enable-background:new    ;}
	.st23{fill:#DADADA;}
	.st24{opacity:0.6;fill:url(#SVGID_5_);enable-background:new    ;}
	.st25{fill:#EBEBEB;}
	.st26{fill:#060E0E;}
	.st27{fill:#1A2B2C;}
	.st28{opacity:0.5;}
	.st29{opacity:0.5;fill:#A7A7A6;enable-background:new    ;}
	.st30{fill:url(#SVGID_6_);}
	.st31{fill:#848585;}
	.st32{opacity:0.4;fill:url(#SVGID_7_);enable-background:new    ;}
	.st33{fill:#CC171A;}
	.st34{fill:#A3B7BC;}
	.st35{fill:#EF7E15;}
	.st36{opacity:0.75;}
	.st37{fill:#E2DAD7;}
	.st38{fill:#C5B5AF;}
	.st39{fill:#A88F87;}
	.st40{fill:#8B6A5F;}
	.st41{fill:#6E4537;}
	.st42{fill:url(#SVGID_12_);}
	.st43{fill:url(#SVGID_13_);}
	.st44{fill:url(#SVGID_14_);}
	.st45{fill:url(#SVGID_15_);}
	.st46{clip-path:url(#SVGID_17_);}
	.st47{fill:#333333;}
	.st48{clip-path:url(#SVGID_19_);}
	.st49{opacity:0.8;fill:#EBD3BB;}
	.st50{fill:#DBC6AF;}
	.st51{fill:#37322C;}
	.st52{fill:#B98042;}
	.st53{opacity:0.9;fill:url(#Tape_4_);}
	.st54{opacity:0.9;fill:url(#Tape_5_);}
	.st55{clip-path:url(#SVGID_21_);enable-background:new    ;}
	.st56{clip-path:url(#SVGID_23_);enable-background:new    ;}
	.st57{opacity:0.6;fill:url(#SVGID_24_);enable-background:new    ;}
	.st58{fill:url(#SVGID_25_);}
	.st59{opacity:0.4;fill:url(#SVGID_26_);enable-background:new    ;}
	.st60{fill:#659A37;}
	.st61{clip-path:url(#SVGID_28_);enable-background:new    ;}
	.st62{clip-path:url(#SVGID_30_);enable-background:new    ;}
	.st63{opacity:0.6;fill:url(#SVGID_31_);enable-background:new    ;}
	.st64{fill:url(#SVGID_32_);}
	.st65{opacity:0.4;fill:url(#SVGID_33_);enable-background:new    ;}
	.st66{fill:url(#SVGID_38_);}
	.st67{fill:url(#SVGID_39_);}
	.st68{fill:url(#SVGID_40_);}
	.st69{fill:url(#SVGID_41_);}
	.st70{clip-path:url(#SVGID_43_);}
	.st71{clip-path:url(#SVGID_45_);}
	.st72{opacity:0.9;fill:url(#Tape_6_);}
	.st73{opacity:0.9;fill:url(#Tape_10_);}
	.st74{clip-path:url(#SVGID_47_);enable-background:new    ;}
	.st75{clip-path:url(#SVGID_49_);enable-background:new    ;}
	.st76{opacity:0.6;fill:url(#SVGID_50_);enable-background:new    ;}
	.st77{fill:url(#SVGID_51_);}
	.st78{opacity:0.4;fill:url(#SVGID_52_);enable-background:new    ;}
	.st79{opacity:0.2;fill:#606060;}
	.st80{fill-rule:evenodd;clip-rule:evenodd;}
	.st81{fill:none;stroke:#FFFFFF;stroke-width:10;stroke-miterlimit:10;}
	.st82{fill:#606060;}
	.st83{opacity:0.6;}
	.st84{fill:none;stroke:#36DE94;stroke-width:11;stroke-miterlimit:10;}
</style>
<g id="Capa_1">
</g>
<g id="Capa_2">
	<g>
		<g>
			<path class="st0" d="M123.47,98.73c0.36-2.1,0.66-4.15,1.09-6.17c0.19-0.91-0.04-1.38-0.8-1.89
				c-6.47-4.33-10.75-10.16-12.11-17.94c-0.14-0.8-0.58-0.92-1.24-1.03c-13.75-2.42-27.49-4.87-41.24-7.3
				c-10.01-1.77-20.02-3.53-30.02-5.33c-0.93-0.17-1.47,0.03-2.04,0.8c-4.66,6.25-10.67,10.37-18.51,11.52
				c-0.16,0.02-0.32,0.05-0.49,0.07c-2.65,0.3-2.64,0.3-3.1,2.91c-1.03,5.87-2.07,11.74-3.12,17.6c-0.12,0.65-0.16,1.13,0.55,1.53
				c6.96,3.93,11.02,10.03,12.97,17.63c0.31,1.21,0.85,1.59,2,1.79c14.64,2.56,29.26,5.18,43.9,7.74c0.97,0.17,1.25,0.53,1.26,1.48
				c0.02,2.07,0.18,4.14,0.29,6.21c0.05,0.95-0.57,0.81-1.14,0.71c-2.41-0.41-4.83-0.84-7.24-1.27
				c-20.22-3.58-40.43-7.17-60.65-10.75c-2.85-0.5-4.24-2.39-3.74-5.24C3.29,93.7,6.5,75.61,9.7,57.53
				c0.44-2.49,0.88-4.98,1.33-7.47c0.39-2.17,1.74-3.43,3.99-3.33c1.94,0.09,3.88,0.5,5.81,0.82c2.82,0.47,5.64,0.94,8.44,1.52
				c0.9,0.19,1.32-0.15,1.81-0.79c8.18-10.86,16.39-21.7,24.59-32.55c1.4-1.86,2.73-3.78,4.24-5.54c0.74-0.87,1.74-1.59,2.76-2.12
				c1.14-0.59,2.29-0.17,3.31,0.61c4.88,3.7,9.78,7.38,14.67,11.07c0.19,0.15,0.4,0.28,0.72,0.52c0.37-0.41,0.75-0.81,1.1-1.24
				c4.75-5.71,9.5-11.43,14.26-17.14c1.87-2.25,4.04-2.48,6.39-0.59c2.64,2.13,5.22,4.32,7.83,6.49
				c23.08,19.19,46.16,38.37,69.24,57.56c4.74,3.94,9.49,7.88,14.22,11.83c1.97,1.64,2.3,3.13,0.74,5.19
				c-2.58,3.42-5.33,6.71-8.07,10c-10.74,12.95-21.51,25.88-32.26,38.82c-1.83,2.2-4.05,2.52-6.29,0.72
				c-3.06-2.45-6.06-4.98-9.04-7.52c-0.37-0.31-0.62-0.95-0.64-1.45c-0.1-2.61-0.13-5.23-0.13-7.84c0-1.83,0.11-3.66,0.11-5.49
				c0.01-1.84-0.09-3.68-0.06-5.51c0.01-0.48,0.27-1.02,0.56-1.42c1.32-1.82,2.66-3.62,4.05-5.38c0.46-0.58,0.43-1,0.07-1.62
				c-3.63-6.19-5.04-12.78-3.56-19.89c0.08-0.38-0.09-0.99-0.37-1.25c-0.88-0.78-1.86-1.45-3.02-2.32
				c-0.25,1.35-0.48,2.52-0.68,3.69c-1.29,7.23-2.59,14.47-3.82,21.71c-0.16,0.95-0.54,1.18-1.42,1.16
				C128.26,98.69,125.94,98.73,123.47,98.73z M140.53,114.73c0.43,0.08,0.57,0.14,0.66,0.11c0.38-0.15,0.75-0.33,1.11-0.51
				c5.72-2.84,11.67-4.66,18.15-4.13c0.89,0.07,1.41-0.22,1.96-0.88c3.82-4.63,7.65-9.25,11.53-13.83c0.65-0.77,0.8-1.43,0.53-2.41
				c-1.89-6.69-1.86-13.31,1.02-19.75c0.39-0.88,0-1.23-0.57-1.7c-19.72-16.39-39.44-32.78-59.13-49.2
				c-0.82-0.68-1.39-0.76-2.35-0.29c-7.04,3.44-14.31,4.35-21.84,1.73c-2.03-0.71-2.02-0.73-3.32,0.96
				c-0.09,0.12-0.14,0.28-0.26,0.5c11.24,8.49,22.47,16.97,33.74,25.49c2.29-2.58,5.1-3.36,8.29-2.9c1.12,0.16,2.38,0.89,3.28,0.55
				c0.91-0.34,1.42-1.7,2.16-2.56c0.64-0.75,1.41-0.94,2.26-0.29c0.78,0.6,1.58,1.16,2.34,1.78c1,0.81,1.08,1.49,0.34,2.52
				c-0.56,0.79-1.15,1.56-1.62,2.2c1.25,1.67,2.46,3.15,3.52,4.74c0.77,1.16,0.5,1.95-0.67,2.66c-0.77,0.47-1.55,0.91-2.34,1.34
				c-1.21,0.65-1.86,0.41-2.62-0.79c-0.63-1-1.28-2-2.04-2.89c-1.14-1.32-2.54-2.3-4.28-2.71c-0.99-0.23-1.85-0.09-2.38,0.99
				c0.31,0.26,0.57,0.5,0.86,0.72c10.55,7.97,21.11,15.95,31.67,23.91c2.69,2.03,3.01,4.1,0.99,6.77
				c-6.67,8.82-13.35,17.65-20.02,26.47C141.23,113.74,140.94,114.16,140.53,114.73z M128.68,66.59c0.04-0.08,0.08-0.17,0.13-0.25
				c-0.47-0.36-0.94-0.73-1.41-1.09c-16.1-12.16-32.2-24.31-48.28-36.5c-0.84-0.64-1.5-0.77-2.52-0.41
				c-6.29,2.26-12.62,2.47-18.91-0.01c-0.89-0.35-1.29-0.09-1.79,0.58c-4.88,6.5-9.79,12.98-14.69,19.46
				c-0.56,0.74-1.1,1.48-1.78,2.4c13.56,2.4,26.9,4.76,40.23,7.11c1.16-4.94,3.39-7.37,7.87-7.58c2.64-0.13,4.22-0.65,4.78-3.39
				c0.2-1,1.18-1.27,2.19-0.86c0.83,0.33,1.68,0.63,2.51,0.98c1.32,0.56,1.57,1.17,1.08,2.51c-0.32,0.87-0.65,1.74-0.99,2.62
				c0.92,0.58,1.77,1.05,2.56,1.62c0.79,0.57,1.55,1.2,2.25,1.89c0.92,0.91,0.9,1.71,0.02,2.66c-0.56,0.6-1.14,1.17-1.71,1.75
				c-1.22,1.23-1.75,1.11-3.1,0.04c-1.52-1.2-3.12-2.4-4.88-3.15c-1.08-0.46-2.55-0.21-3.79,0.01c-0.43,0.08-0.92,0.97-1.02,1.55
				c-0.13,0.81,0.67,0.84,1.28,0.95c10.89,1.94,21.78,3.88,32.67,5.81C123.81,65.75,126.24,66.17,128.68,66.59z"/>
			<path class="st0" d="M75.56,125.95c0-2.9-0.03-5.63,0.05-8.35c0.01-0.23,0.74-0.61,1.15-0.62c5.26-0.11,10.53-0.17,15.79-0.25
				c13.84-0.22,27.67-0.45,41.51-0.67c0.48-0.01,0.97,0,1.6,0c0,2.97,0,5.85,0,8.95C115.78,125.33,95.85,125.64,75.56,125.95z"/>
			<path class="st0" d="M75.55,140.25c0-2.87-0.03-5.56,0.04-8.25c0.01-0.25,0.6-0.69,0.93-0.7c2.32-0.1,4.65-0.12,6.98-0.15
				c16.95-0.27,33.89-0.53,50.84-0.8c0.36-0.01,0.73,0,1.28,0c0,2.96,0,5.87,0,8.98C115.79,139.63,95.85,139.94,75.55,140.25z"/>
			<path class="st0" d="M135.72,110.65c-0.43,0.03-0.83,0.07-1.23,0.08c-19.06,0.31-38.12,0.61-57.18,0.91
				c-1.62,0.03-1.62,0.02-1.64-1.54c-0.03-2.04-0.02-4.08-0.13-6.12c-0.05-1.02,0.28-1.32,1.29-1.33c8.37-0.08,16.74-0.21,25.1-0.34
				c10.78-0.17,21.55-0.34,32.32-0.56c1.09-0.02,1.52,0.22,1.49,1.39C135.66,105.62,135.72,108.1,135.72,110.65z"/>
			<path class="st0" d="M63.25,105.67c-0.26,1.09-0.5,2.21-0.78,3.31c-0.31,1.19-0.96,1.61-2.18,1.37
				c-0.96-0.19-1.91-0.45-2.86-0.66c-1.1-0.24-1.45-0.97-1.28-2c0.08-0.52,0.23-1.04,0.34-1.55c0.12-0.51,0.23-1.02,0.36-1.6
				c-0.58-0.25-1.13-0.41-1.61-0.69c-1.62-0.94-3.24-1.87-4.8-2.91c-0.96-0.64-1.1-1.56-0.37-2.54c0.51-0.69,0.98-1.41,1.48-2.1
				c0.95-1.3,1.72-1.42,2.95-0.4c1.79,1.47,3.71,2.73,6.03,3.08c1.1,0.17,2.3,0.12,3.38-0.14c2.28-0.56,2.91-2.31,1.5-4.17
				c-0.72-0.95-1.73-1.71-2.69-2.45c-1.58-1.22-3.32-2.24-4.84-3.53c-2.84-2.4-4.22-5.43-3.1-9.16c1.13-3.76,3.97-5.52,7.7-6.07
				c0.32-0.05,0.65-0.11,0.97-0.09c0.81,0.05,1.17-0.32,1.29-1.11c0.11-0.77,0.31-1.52,0.52-2.27c0.3-1.12,0.97-1.53,2.1-1.31
				c0.92,0.18,1.84,0.4,2.75,0.63c1.21,0.31,1.61,0.94,1.4,2.16c-0.09,0.48-0.22,0.96-0.32,1.43c-0.09,0.44-0.18,0.87-0.26,1.25
				c1.64,0.92,3.27,1.74,4.81,2.73c1.61,1.03,1.66,1.66,0.57,3.18c-0.36,0.5-0.72,0.99-1.09,1.48c-1.17,1.58-1.69,1.54-3.34,0.55
				c-1.58-0.96-3.3-1.75-5.04-2.38c-1.25-0.46-2.6-0.2-3.77,0.53c-1.07,0.67-1.37,1.63-0.56,2.58c1,1.17,2.15,2.22,3.36,3.17
				c1.34,1.07,2.86,1.9,4.2,2.96c3.19,2.52,4.43,5.84,3.4,9.79c-1.01,3.85-3.8,5.85-7.59,6.58
				C65.03,105.48,64.18,105.55,63.25,105.67z"/>
		</g>
	</g>
</g>
</svg>
