<?xml version="1.0" encoding="utf-8"?>
<!-- Generator: Adobe Illustrator 24.0.2, SVG Export Plug-In . SVG Version: 6.00 Build 0)  -->
<svg version="1.1" xmlns="http://www.w3.org/2000/svg" xmlns:xlink="http://www.w3.org/1999/xlink" x="0px" y="0px"
	 viewBox="0 0 102.51 130.88" style="enable-background:new 0 0 102.51 130.88;" xml:space="preserve">
<style type="text/css">
	.st0{fill:#441A7B;}
	.st1{fill:#FFFFFF;}
	.st2{opacity:0.3;}
	.st3{fill:#46197B;}
	.st4{fill:#F4F4F6;}
	.st5{fill:#36DE94;}
	.st6{fill-rule:evenodd;clip-rule:evenodd;fill:#FFFFFF;}
	.st7{fill:none;}
	.st8{opacity:0.5;fill:#035C71;enable-background:new    ;}
	.st9{fill:#E8E7E7;}
	.st10{fill:#0A1415;}
	.st11{opacity:0.7;fill:#254345;enable-background:new    ;}
	.st12{enable-background:new    ;}
	.st13{fill:#5A5A5A;}
	.st14{fill:#121111;}
	.st15{fill:#1E1C1B;}
	.st16{opacity:0.5;fill:#1E1C1B;enable-background:new    ;}
	.st17{fill:#B9B9B9;}
	.st18{fill:#DCDCDC;}
	.st19{clip-path:url(#SVGID_2_);enable-background:new    ;}
	.st20{fill:#9C9C9C;}
	.st21{fill:#C7C6C6;}
	.st22{clip-path:url(#SVGID_4_);enable-background:new    ;}
	.st23{fill:#DADADA;}
	.st24{opacity:0.6;fill:url(#SVGID_5_);enable-background:new    ;}
	.st25{fill:#EBEBEB;}
	.st26{fill:#060E0E;}
	.st27{fill:#1A2B2C;}
	.st28{opacity:0.5;}
	.st29{opacity:0.5;fill:#A7A7A6;enable-background:new    ;}
	.st30{fill:url(#SVGID_6_);}
	.st31{fill:#848585;}
	.st32{opacity:0.4;fill:url(#SVGID_7_);enable-background:new    ;}
	.st33{fill:#CC171A;}
	.st34{fill:#A3B7BC;}
	.st35{fill:#EF7E15;}
	.st36{opacity:0.75;}
	.st37{fill:#E2DAD7;}
	.st38{fill:#C5B5AF;}
	.st39{fill:#A88F87;}
	.st40{fill:#8B6A5F;}
	.st41{fill:#6E4537;}
	.st42{fill:url(#SVGID_12_);}
	.st43{fill:url(#SVGID_13_);}
	.st44{fill:url(#SVGID_14_);}
	.st45{fill:url(#SVGID_15_);}
	.st46{clip-path:url(#SVGID_17_);}
	.st47{fill:#333333;}
	.st48{clip-path:url(#SVGID_19_);}
	.st49{opacity:0.8;fill:#EBD3BB;}
	.st50{fill:#DBC6AF;}
	.st51{fill:#37322C;}
	.st52{fill:#B98042;}
	.st53{opacity:0.9;fill:url(#Tape_4_);}
	.st54{opacity:0.9;fill:url(#Tape_5_);}
	.st55{clip-path:url(#SVGID_21_);enable-background:new    ;}
	.st56{clip-path:url(#SVGID_23_);enable-background:new    ;}
	.st57{opacity:0.6;fill:url(#SVGID_24_);enable-background:new    ;}
	.st58{fill:url(#SVGID_25_);}
	.st59{opacity:0.4;fill:url(#SVGID_26_);enable-background:new    ;}
	.st60{fill:#659A37;}
	.st61{clip-path:url(#SVGID_28_);enable-background:new    ;}
	.st62{clip-path:url(#SVGID_30_);enable-background:new    ;}
	.st63{opacity:0.6;fill:url(#SVGID_31_);enable-background:new    ;}
	.st64{fill:url(#SVGID_32_);}
	.st65{opacity:0.4;fill:url(#SVGID_33_);enable-background:new    ;}
	.st66{fill:url(#SVGID_38_);}
	.st67{fill:url(#SVGID_39_);}
	.st68{fill:url(#SVGID_40_);}
	.st69{fill:url(#SVGID_41_);}
	.st70{clip-path:url(#SVGID_43_);}
	.st71{clip-path:url(#SVGID_45_);}
	.st72{opacity:0.9;fill:url(#Tape_6_);}
	.st73{opacity:0.9;fill:url(#Tape_10_);}
	.st74{clip-path:url(#SVGID_47_);enable-background:new    ;}
	.st75{clip-path:url(#SVGID_49_);enable-background:new    ;}
	.st76{opacity:0.6;fill:url(#SVGID_50_);enable-background:new    ;}
	.st77{fill:url(#SVGID_51_);}
	.st78{opacity:0.4;fill:url(#SVGID_52_);enable-background:new    ;}
	.st79{opacity:0.2;fill:#606060;}
	.st80{fill-rule:evenodd;clip-rule:evenodd;}
	.st81{fill:none;stroke:#FFFFFF;stroke-width:10;stroke-miterlimit:10;}
	.st82{fill:#606060;}
	.st83{opacity:0.6;}
	.st84{fill:none;stroke:#36DE94;stroke-width:11;stroke-miterlimit:10;}
</style>
<g id="Capa_1">
</g>
<g id="Capa_2">
	<g>
		<g>
			<path class="st0" d="M83.22,112.86c-1.35,3.59-2.67,7.07-3.98,10.56c-0.69,1.85-1.4,3.69-2.07,5.54
				c-0.38,1.06-0.99,1.83-2.2,1.89c-1.29,0.07-1.94-0.7-2.43-1.79c-5.8-12.93-11.64-25.84-17.42-38.78c-0.52-1.16-1.2-1.37-2.4-1.59
				c-3.55-0.65-4.86,1.19-6.13,4.12c-5.23,12.04-10.7,23.98-16.09,35.96c-0.09,0.19-0.18,0.37-0.27,0.56
				c-0.45,0.99-1.22,1.79-2.27,1.47c-0.81-0.25-1.8-0.96-2.1-1.71c-1.94-4.81-3.71-9.69-5.54-14.55c-0.2-0.52-0.4-1.05-0.64-1.69
				c-5.22,1.95-10.31,3.85-15.4,5.75c-0.29,0.11-0.59,0.35-0.86,0.32c-0.92-0.09-2-0.03-2.7-0.49c-0.98-0.65-0.83-1.82-0.33-2.83
				c1.52-3.07,3.05-6.12,4.59-9.18c4.87-9.74,9.72-19.48,14.64-29.19c0.53-1.05,0.29-1.59-0.45-2.36
				C2.07,56.95,3.22,27.83,21.73,11.37c9.03-8.03,19.7-11.79,31.75-11.34c21.59,0.8,39.76,17.87,42.06,39.25
				c0.92,8.55-0.43,16.68-4.05,24.4c-1.96,4.19-4.57,8.02-7.9,11.29c-0.79,0.78-0.77,1.32-0.3,2.24
				c6.31,12.55,12.58,25.12,18.86,37.68c0.12,0.23,0.34,0.46,0.34,0.69c-0.02,0.92,0.16,1.98-0.23,2.73
				c-0.55,1.06-1.71,0.99-2.77,0.59C94.14,116.93,88.79,114.94,83.22,112.86z M51.43,84.21c21.79,0.03,39.85-17.87,39.87-39.52
				C91.31,22.5,73.57,4.61,51.54,4.59C29.46,4.56,11.63,22.39,11.61,44.5C11.59,66.28,29.54,84.19,51.43,84.21z M95.9,112.69
				c-5.72-11.43-11.23-22.44-16.78-33.56c-5.94,4.7-12.57,7.6-19.95,9.04c5.18,11.5,10.26,22.78,15.46,34.32
				c0.29-0.7,0.46-1.07,0.6-1.46c1.39-3.69,2.77-7.38,4.16-11.06c0.91-2.41,1.76-2.79,4.14-1.9
				C87.5,109.57,91.47,111.04,95.9,112.69z M28.26,122.57c5.26-11.68,10.35-22.99,15.49-34.43c-7.53-1.38-14.05-4.4-19.97-8.98
				C18.21,90.3,12.7,101.32,7.01,112.7c4.53-1.7,8.6-3.24,12.68-4.76c1.91-0.71,2.94-0.24,3.69,1.63c0.46,1.16,0.86,2.33,1.3,3.5
				C25.82,116.11,26.97,119.15,28.26,122.57z"/>
			<path class="st0" d="M51.43,11.73c18-0.02,32.72,14.52,32.73,32.31c0.01,18.58-14.39,33.03-32.91,33.02
				c-18.11,0-32.48-14.6-32.49-32.98C18.75,26.3,33.43,11.75,51.43,11.73z M79.59,44.55c0.22-15.14-12.38-28.07-27.57-28.28
				C36.27,16.05,23.5,28.44,23.34,44.2C23.18,59.26,35.06,72.02,50.5,72.48C66.58,72.95,79.36,60.49,79.59,44.55z"/>
			<path class="st0" d="M47.37,52.9c3.32-4.62,6.49-9.04,9.66-13.46c2.54-3.54,5.08-7.09,7.64-10.63c1.41-1.95,3.56-2.43,5.25-1.22
				c1.6,1.15,1.79,3.3,0.39,5.26C63.81,41.93,57.31,51,50.79,60.05c-1.73,2.39-4.14,2.42-6.16,0.18
				c-3.95-4.41-7.92-8.81-11.88-13.21c-1.45-1.61-1.47-3.86-0.04-5.17c1.44-1.32,3.65-1.18,5.14,0.45
				C41,45.75,44.1,49.24,47.37,52.9z"/>
		</g>
	</g>
</g>
</svg>
