<?xml version="1.0" encoding="utf-8"?>
<!-- Generator: Adobe Illustrator 24.0.2, SVG Export Plug-In . SVG Version: 6.00 Build 0)  -->
<svg version="1.1" xmlns="http://www.w3.org/2000/svg" xmlns:xlink="http://www.w3.org/1999/xlink" x="0px" y="0px"
	 viewBox="0 0 89.63 124.57" style="enable-background:new 0 0 89.63 124.57;" xml:space="preserve">
<style type="text/css">
	.st0{fill:#441A7B;}
	.st1{fill:#FFFFFF;}
	.st2{opacity:0.3;}
	.st3{fill:#46197B;}
	.st4{fill:#F4F4F6;}
	.st5{fill:#36DE94;}
	.st6{fill-rule:evenodd;clip-rule:evenodd;fill:#FFFFFF;}
	.st7{fill:none;}
	.st8{opacity:0.5;fill:#035C71;enable-background:new    ;}
	.st9{fill:#E8E7E7;}
	.st10{fill:#0A1415;}
	.st11{opacity:0.7;fill:#254345;enable-background:new    ;}
	.st12{enable-background:new    ;}
	.st13{fill:#5A5A5A;}
	.st14{fill:#121111;}
	.st15{fill:#1E1C1B;}
	.st16{opacity:0.5;fill:#1E1C1B;enable-background:new    ;}
	.st17{fill:#B9B9B9;}
	.st18{fill:#DCDCDC;}
	.st19{clip-path:url(#SVGID_2_);enable-background:new    ;}
	.st20{fill:#9C9C9C;}
	.st21{fill:#C7C6C6;}
	.st22{clip-path:url(#SVGID_4_);enable-background:new    ;}
	.st23{fill:#DADADA;}
	.st24{opacity:0.6;fill:url(#SVGID_5_);enable-background:new    ;}
	.st25{fill:#EBEBEB;}
	.st26{fill:#060E0E;}
	.st27{fill:#1A2B2C;}
	.st28{opacity:0.5;}
	.st29{opacity:0.5;fill:#A7A7A6;enable-background:new    ;}
	.st30{fill:url(#SVGID_6_);}
	.st31{fill:#848585;}
	.st32{opacity:0.4;fill:url(#SVGID_7_);enable-background:new    ;}
	.st33{fill:#CC171A;}
	.st34{fill:#A3B7BC;}
	.st35{fill:#EF7E15;}
	.st36{opacity:0.75;}
	.st37{fill:#E2DAD7;}
	.st38{fill:#C5B5AF;}
	.st39{fill:#A88F87;}
	.st40{fill:#8B6A5F;}
	.st41{fill:#6E4537;}
	.st42{fill:url(#SVGID_12_);}
	.st43{fill:url(#SVGID_13_);}
	.st44{fill:url(#SVGID_14_);}
	.st45{fill:url(#SVGID_15_);}
	.st46{clip-path:url(#SVGID_17_);}
	.st47{fill:#333333;}
	.st48{clip-path:url(#SVGID_19_);}
	.st49{opacity:0.8;fill:#EBD3BB;}
	.st50{fill:#DBC6AF;}
	.st51{fill:#37322C;}
	.st52{fill:#B98042;}
	.st53{opacity:0.9;fill:url(#Tape_4_);}
	.st54{opacity:0.9;fill:url(#Tape_5_);}
	.st55{clip-path:url(#SVGID_21_);enable-background:new    ;}
	.st56{clip-path:url(#SVGID_23_);enable-background:new    ;}
	.st57{opacity:0.6;fill:url(#SVGID_24_);enable-background:new    ;}
	.st58{fill:url(#SVGID_25_);}
	.st59{opacity:0.4;fill:url(#SVGID_26_);enable-background:new    ;}
	.st60{fill:#659A37;}
	.st61{clip-path:url(#SVGID_28_);enable-background:new    ;}
	.st62{clip-path:url(#SVGID_30_);enable-background:new    ;}
	.st63{opacity:0.6;fill:url(#SVGID_31_);enable-background:new    ;}
	.st64{fill:url(#SVGID_32_);}
	.st65{opacity:0.4;fill:url(#SVGID_33_);enable-background:new    ;}
	.st66{fill:url(#SVGID_38_);}
	.st67{fill:url(#SVGID_39_);}
	.st68{fill:url(#SVGID_40_);}
	.st69{fill:url(#SVGID_41_);}
	.st70{clip-path:url(#SVGID_43_);}
	.st71{clip-path:url(#SVGID_45_);}
	.st72{opacity:0.9;fill:url(#Tape_6_);}
	.st73{opacity:0.9;fill:url(#Tape_10_);}
	.st74{clip-path:url(#SVGID_47_);enable-background:new    ;}
	.st75{clip-path:url(#SVGID_49_);enable-background:new    ;}
	.st76{opacity:0.6;fill:url(#SVGID_50_);enable-background:new    ;}
	.st77{fill:url(#SVGID_51_);}
	.st78{opacity:0.4;fill:url(#SVGID_52_);enable-background:new    ;}
	.st79{opacity:0.2;fill:#606060;}
	.st80{fill-rule:evenodd;clip-rule:evenodd;}
	.st81{fill:none;stroke:#FFFFFF;stroke-width:10;stroke-miterlimit:10;}
	.st82{fill:#606060;}
	.st83{opacity:0.6;}
	.st84{fill:none;stroke:#36DE94;stroke-width:11;stroke-miterlimit:10;}
</style>
<g id="Capa_1">
</g>
<g id="Capa_2">
	<g>
		<g>
			<path class="st0" d="M89.6,45.94c0,7.01-0.09,14.02,0.02,21.03c0.19,12.42-4.39,22.96-12.44,32.17
				c-6.8,7.78-14.89,14.05-23.26,19.99c-2.21,1.57-4.45,3.08-6.69,4.61c-1.45,0.99-3.03,1.15-4.48,0.17
				c-11.16-7.51-22.14-15.24-30.95-25.59C3.93,89.09-0.15,78.53,0,66.27C0.2,51.25,0.05,36.22,0.05,21.2c0-3.07,0.64-3.78,3.7-3.81
				c13.36-0.13,24.9-4.99,35.11-13.36c1.18-0.97,2.37-1.94,3.55-2.92c1.84-1.53,2.91-1.44,4.85-0.02c4.66,3.39,9.2,6.98,14.12,9.96
				c7.48,4.52,15.86,6.1,24.53,6.34c3.05,0.08,3.68,0.73,3.68,3.81C89.6,29.44,89.59,37.69,89.6,45.94
				C89.6,45.94,89.6,45.94,89.6,45.94z M44.34,12.63c-0.07,0.05-0.55,0.39-1.01,0.75c-9.34,7.14-19.65,12.07-31.44,13.45
				c-1.48,0.17-1.79,0.71-1.78,2.08c0.05,12.43,0.15,24.86-0.01,37.29c-0.12,9.72,3.02,18.11,9.28,25.44
				c7.11,8.32,15.83,14.75,24.74,20.94c0.36,0.25,1.24,0.12,1.65-0.16c2.67-1.84,5.3-3.72,7.89-5.67
				c6.46-4.87,12.62-10.07,17.68-16.44c4.7-5.91,7.88-12.53,8-20.17c0.22-13.96,0.12-27.92,0.19-41.88
				c0.01-1.21-0.65-1.28-1.54-1.39c-5.82-0.73-11.55-1.97-16.78-4.64C55.59,19.35,50.19,15.99,44.34,12.63z"/>
			<path class="st0" d="M39.9,65.77c6.09-6.22,11.69-11.92,17.27-17.63c1.69-1.73,2.74-1.79,4.49-0.18c0.82,0.76,1.61,1.55,2.4,2.35
				c1.56,1.61,1.57,2.81-0.01,4.4c-4.62,4.63-9.25,9.24-13.88,13.86c-2.63,2.62-5.24,5.25-7.88,7.86c-1.56,1.54-2.84,1.55-4.42,0
				c-4.09-3.98-8.17-7.98-12.23-12c-1.43-1.41-1.42-2.68-0.05-4.15c0.84-0.9,1.71-1.79,2.61-2.64c1.48-1.42,2.68-1.47,4.13,0.02
				C34.77,60.19,37.14,62.81,39.9,65.77z"/>
		</g>
	</g>
</g>
</svg>
