<?xml version="1.0" encoding="utf-8"?>
<!-- Generator: Adobe Illustrator 24.1.1, SVG Export Plug-In . SVG Version: 6.00 Build 0)  -->
<svg version="1.1" id="Capa_1" xmlns="http://www.w3.org/2000/svg" xmlns:xlink="http://www.w3.org/1999/xlink" x="0px" y="0px"
	 viewBox="0 0 599.55 227.19" style="enable-background:new 0 0 599.55 227.19;" xml:space="preserve">
<style type="text/css">
	.st0{opacity:0.8;fill:#36DE94;}
	.st1{fill:#FFFFFF;}
	.st2{fill:#36DE94;}
	.st3{fill:#441A7B;}
</style>
<g>
	<g>
		<g>
			<path class="st1" d="M17.5,33.73c5.62,0,8.43,2.81,8.43,8.43c0,5.69-2.81,8.54-8.43,8.54c-5.62,0-8.43-2.85-8.43-8.54
				C9.07,36.54,11.88,33.73,17.5,33.73z M11.59,55.44h11.91l2.42,34.05v19.18H9.17V89.49L11.59,55.44z"/>
			<path class="st1" d="M92.34,38.47c0,4.99-1.32,9.24-3.95,12.75c-2.64,3.51-6.27,6.18-10.91,8.01L97.82,89.6H79.9L61.98,61.77
				h-8.96V89.6H36.58V15.81h26.67c4.15,0,7.99,0.47,11.54,1.42c3.55,0.95,6.62,2.35,9.22,4.22c2.6,1.86,4.64,4.22,6.11,7.06
				S92.34,34.68,92.34,38.47z M75.68,38.47c0-3.58-1.18-6.18-3.53-7.8c-2.35-1.62-5.67-2.42-9.96-2.42h-9.17v21.08h9.17
				c4.29,0,7.61-0.91,9.96-2.74C74.5,44.76,75.68,42.06,75.68,38.47z"/>
			<path class="st1" d="M100.13,15.81h50.07v12.86h-33.63v16.65h31.2v12.86h-31.2v18.55h34.57V89.6h-51.02V15.81z"/>
			<path class="st1" d="M153.26,52.7c0-5.48,0.91-10.54,2.74-15.18c1.83-4.64,4.48-8.66,7.96-12.07c3.48-3.41,7.73-6.08,12.75-8.01
				c5.02-1.93,10.73-2.9,17.13-2.9c8.92,0,17,1.55,24.24,4.64l-1.26,14.02c-3.16-1.83-6.57-3.21-10.22-4.16
				c-3.65-0.95-7.31-1.42-10.96-1.42c-3.94,0-7.48,0.58-10.65,1.74c-3.16,1.16-5.85,2.83-8.06,5.01c-2.21,2.18-3.94,4.81-5.17,7.91
				c-1.23,3.09-1.84,6.57-1.84,10.44c0,3.94,0.6,7.47,1.79,10.59c1.19,3.13,2.9,5.76,5.11,7.91c2.21,2.14,4.88,3.78,8.01,4.9
				c3.13,1.13,6.66,1.69,10.59,1.69c1.54,0,2.95-0.09,4.22-0.26c1.26-0.17,2.39-0.44,3.37-0.79V60.08H187.2V47.22h32.25v39.21
				c-3.79,1.62-7.71,2.76-11.75,3.43c-4.04,0.67-8.27,1-12.7,1c-6.47,0-12.28-0.93-17.45-2.79s-9.54-4.46-13.12-7.8
				c-3.58-3.34-6.34-7.34-8.27-12.02C154.23,63.58,153.26,58.39,153.26,52.7z"/>
			<path class="st1" d="M244.86,15.81V89.6h-16.44V15.81H244.86z"/>
			<path class="st1" d="M251.71,35.31c0-6.46,2.35-11.54,7.06-15.23c4.71-3.69,11.49-5.53,20.34-5.53c3.65,0,7.24,0.32,10.75,0.95
				c3.51,0.63,6.78,1.55,9.8,2.74l-1.16,13.28c-6.18-2.6-12.26-3.9-18.24-3.9c-4.29,0-7.34,0.67-9.17,2
				c-1.83,1.34-2.74,3.02-2.74,5.06c0,2.25,0.91,4.23,2.74,5.96c1.83,1.72,5.27,3.43,10.33,5.11c7.73,2.6,13.35,5.73,16.87,9.38
				c3.51,3.66,5.27,8.29,5.27,13.91c0,6.96-2.36,12.33-7.06,16.13c-4.71,3.79-11.88,5.69-21.5,5.69c-4,0-8.03-0.42-12.07-1.26
				c-4.04-0.84-7.68-2.07-10.91-3.69l1.26-14.44c2.95,2.04,6.24,3.6,9.86,4.69c3.62,1.09,7.4,1.63,11.33,1.63
				c3.79,0,6.82-0.65,9.06-1.95c2.25-1.3,3.37-3.32,3.37-6.06c0-1.27-0.21-2.42-0.63-3.48c-0.42-1.05-1.18-2.02-2.27-2.9
				c-1.09-0.88-2.55-1.74-4.37-2.58c-1.83-0.84-4.11-1.72-6.85-2.63c-7.24-2.25-12.56-5.23-15.97-8.96
				C253.41,45.5,251.71,40.86,251.71,35.31z"/>
			<path class="st1" d="M323.7,28.67h-21.19V15.81h58.82v12.86h-21.19V89.6H323.7V28.67z"/>
			<path class="st1" d="M419.73,38.47c0,4.99-1.32,9.24-3.95,12.75c-2.64,3.51-6.27,6.18-10.91,8.01l20.34,30.36h-17.92
				l-17.92-27.83h-8.96V89.6h-16.44V15.81h26.67c4.15,0,7.99,0.47,11.54,1.42c3.55,0.95,6.62,2.35,9.22,4.22
				c2.6,1.86,4.64,4.22,6.11,7.06S419.73,34.68,419.73,38.47z M403.07,38.47c0-3.58-1.18-6.18-3.53-7.8
				c-2.35-1.62-5.67-2.42-9.96-2.42h-9.17v21.08h9.17c4.29,0,7.61-0.91,9.96-2.74C401.9,44.76,403.07,42.06,403.07,38.47z"/>
			<path class="st1" d="M469.27,73.15h-26.56l-5.17,16.44h-17.5l25.72-73.79h20.45l25.72,73.79h-17.5L469.27,73.15z M446.71,60.29
				h18.55l-9.28-29.83L446.71,60.29z"/>
			<path class="st1" d="M508.27,28.67h-21.19V15.81h58.82v12.86h-21.19V89.6h-16.44V28.67z"/>
			<path class="st1" d="M548.53,15.81h50.07v12.86h-33.63v16.65h31.2v12.86h-31.2v18.55h34.57V89.6h-51.02V15.81z"/>
			<path class="st1" d="M43.45,138.46l20.81-34.2h20.57l-31.89,51.85v33.35H33.96v-33.35L2.07,104.26h20.57L43.45,138.46z"/>
			<path class="st1" d="M113.68,146.86c0-6.33,1.05-12.17,3.16-17.53c2.11-5.36,5.17-10,9.19-13.94c4.02-3.93,8.93-7.02,14.73-9.25
				c5.8-2.23,12.39-3.35,19.78-3.35c10.3,0,19.64,1.79,28,5.36l-1.46,16.19c-3.65-2.11-7.59-3.71-11.81-4.81
				c-4.22-1.1-8.44-1.64-12.66-1.64c-4.55,0-8.64,0.67-12.29,2.01s-6.75,3.27-9.31,5.78c-2.56,2.52-4.54,5.56-5.96,9.13
				c-1.42,3.57-2.13,7.59-2.13,12.05c0,4.55,0.69,8.62,2.07,12.23c1.38,3.61,3.35,6.66,5.9,9.13c2.56,2.48,5.64,4.36,9.25,5.66
				c3.61,1.3,7.69,1.95,12.23,1.95c1.78,0,3.41-0.1,4.87-0.3c1.46-0.2,2.76-0.51,3.89-0.91v-19.23h-18.26v-14.85h37.25v45.28
				c-4.38,1.87-8.91,3.19-13.57,3.96c-4.67,0.77-9.55,1.16-14.67,1.16c-7.47,0-14.18-1.08-20.14-3.23
				c-5.96-2.15-11.02-5.15-15.15-9.01c-4.14-3.85-7.32-8.48-9.55-13.88C114.8,159.42,113.68,153.43,113.68,146.86z"/>
			<path class="st1" d="M248.06,170.47h-30.67l-5.96,18.99h-20.21l29.7-85.2h23.61l29.7,85.2h-20.21L248.06,170.47z M222.01,155.62
				h21.42l-10.71-34.45L222.01,155.62z"/>
			<path class="st1" d="M276.54,104.26h21.42l32.86,58.42v-58.42h18.38v85.2h-21.42l-32.86-58.42v58.42h-18.38V104.26z"/>
			<path class="st1" d="M408.36,170.47h-30.67l-5.96,18.99h-20.21l29.7-85.2h23.61l29.7,85.2h-20.21L408.36,170.47z M382.31,155.62
				h21.42l-10.71-34.45L382.31,155.62z"/>
			<path class="st1" d="M438.18,181.06c0-6.57,3.24-9.86,9.74-9.86c6.49,0,9.74,3.29,9.74,9.86c0,6.57-3.25,9.86-9.74,9.86
				C441.42,190.92,438.18,187.63,438.18,181.06z M438.3,104.26v22.15l2.8,39.31h13.63l2.8-39.31v-22.15H438.3z"/>
		</g>
	</g>
	<g>
		<g>
			<g>
				<g>
					<polygon class="st1" points="551,147.18 532.69,128.87 502.92,99.1 489.85,112.17 525.77,148.09 488.06,185.8 500.22,197.96 
						531.78,166.41 					"/>
				</g>
			</g>
		</g>
		<g>
			<g>
				<g>
					<polygon class="st2" points="591.39,147.18 573.08,128.87 543.31,99.1 530.24,112.17 566.16,148.09 528.45,185.8 
						540.61,197.96 572.17,166.41 					"/>
				</g>
			</g>
		</g>
	</g>
</g>
</svg>
