<?xml version="1.0" encoding="utf-8"?>
<!-- Generator: Adobe Illustrator 24.1.1, SVG Export Plug-In . SVG Version: 6.00 Build 0)  -->
<svg version="1.1" id="Capa_1" xmlns="http://www.w3.org/2000/svg" xmlns:xlink="http://www.w3.org/1999/xlink" x="0px" y="0px"
	 viewBox="0 0 779.21 149.43" style="enable-background:new 0 0 779.21 149.43;" xml:space="preserve">
<style type="text/css">
	.st0{opacity:0.8;fill:#36DE94;}
	.st1{fill:#FFFFFF;}
	.st2{fill:#36DE94;}
	.st3{fill:#441A7B;}
</style>
<g>
	<g>
		<path class="st3" d="M53.68,32.44c0,4.21-1.11,7.79-3.33,10.75c-2.22,2.96-5.29,5.21-9.2,6.75l17.15,25.6H43.19L28.08,52.08h-7.55
			v23.46H6.67V13.33h22.49c3.5,0,6.74,0.4,9.73,1.2c2.99,0.8,5.58,1.99,7.78,3.56c2.19,1.57,3.91,3.55,5.15,5.95
			C53.06,26.44,53.68,29.24,53.68,32.44z M39.64,32.44c0-3.02-0.99-5.21-2.98-6.58c-1.99-1.36-4.79-2.04-8.4-2.04h-7.73v17.78h7.73
			c3.61,0,6.41-0.77,8.4-2.31C38.65,37.74,39.64,35.46,39.64,32.44z"/>
		<path class="st3" d="M80.17,76.61c-4.33,0-8.07-0.61-11.24-1.82c-3.17-1.21-5.79-2.9-7.87-5.07c-2.08-2.16-3.62-4.71-4.62-7.64
			c-1.01-2.93-1.51-6.15-1.51-9.64c0-3.61,0.52-6.9,1.56-9.87c1.04-2.96,2.53-5.5,4.49-7.6c1.96-2.1,4.31-3.72,7.07-4.84
			c2.75-1.12,5.82-1.69,9.2-1.69c3.61,0,6.81,0.61,9.6,1.82c2.78,1.21,5.14,2.9,7.07,5.07c1.92,2.16,3.38,4.74,4.35,7.73
			c0.98,2.99,1.47,6.3,1.47,9.91c0,0.47-0.02,1.07-0.04,1.78c-0.03,0.71-0.1,1.48-0.22,2.31H67.99c0.59,6.81,5.04,10.22,13.33,10.22
			c2.49,0,4.89-0.31,7.2-0.93c2.31-0.62,4.41-1.58,6.31-2.89l0.98,9.95c-2.07,1.13-4.47,1.94-7.2,2.44
			C85.88,76.36,83.07,76.61,80.17,76.61z M77.23,37.77c-2.73,0-4.89,0.88-6.49,2.62c-1.6,1.75-2.52,4.28-2.75,7.6h18.66
			c-0.3-3.32-1.25-5.85-2.84-7.6C82.21,38.65,80.02,37.77,77.23,37.77z"/>
		<path class="st3" d="M132.25,72.52c-1.36,1.19-3.04,2.16-5.02,2.93c-1.99,0.77-4.16,1.16-6.53,1.16c-2.96,0-5.69-0.56-8.18-1.69
			c-2.49-1.13-4.65-2.72-6.49-4.8c-1.84-2.07-3.27-4.61-4.31-7.6c-1.04-2.99-1.56-6.32-1.56-10c0-3.73,0.52-7.08,1.56-10.04
			c1.04-2.96,2.47-5.48,4.31-7.55c1.84-2.07,4-3.67,6.49-4.8c2.49-1.12,5.21-1.69,8.18-1.69c2.37,0,4.55,0.37,6.53,1.11
			c1.98,0.74,3.66,1.73,5.02,2.98V10.66h13.24v64.88h-13.24V72.52z M132.25,41.33c-0.95-1.01-2.15-1.82-3.6-2.44
			c-1.45-0.62-3.01-0.93-4.67-0.93c-3.08,0-5.59,1.17-7.51,3.51c-1.93,2.34-2.89,6.03-2.89,11.07s0.96,8.72,2.89,11.06
			c1.92,2.34,4.43,3.51,7.51,3.51c1.66,0,3.21-0.31,4.67-0.93c1.45-0.62,2.65-1.47,3.6-2.53V41.33z"/>
		<path class="st3" d="M176.86,28.44c5.87,0,10.4,1.75,13.6,5.24c1.9-1.6,4.04-2.87,6.44-3.82c2.4-0.95,4.93-1.42,7.6-1.42
			c5.33,0,9.64,1.73,12.93,5.2c3.29,3.47,4.93,8.67,4.93,15.6v26.31h-13.24V48.53c0-3.73-0.65-6.43-1.96-8.09
			c-1.3-1.66-3.11-2.49-5.42-2.49c-1.19,0-2.43,0.24-3.73,0.71c-1.3,0.48-2.52,1.16-3.64,2.04c0.83,2.84,1.24,5.99,1.24,9.42v25.42
			h-15.2V48.53c0-3.73-0.64-6.43-1.91-8.09c-1.28-1.66-3.1-2.49-5.47-2.49c-1.54,0-3.02,0.31-4.44,0.93s-2.64,1.5-3.64,2.62v34.04
			h-13.24V29.51h13.24v3.02c1.3-1.18,2.95-2.16,4.93-2.93C171.87,28.83,174.19,28.44,176.86,28.44z"/>
		<path class="st3" d="M227.7,17.33c0-2.19,0.58-3.85,1.73-4.98c1.16-1.13,3.1-1.69,5.82-1.69c2.72,0,4.67,0.56,5.82,1.69
			c1.16,1.13,1.73,2.79,1.73,4.98c0,2.25-0.58,3.93-1.73,5.02c-1.16,1.1-3.1,1.64-5.82,1.64c-2.73,0-4.67-0.55-5.82-1.64
			C228.27,21.26,227.7,19.58,227.7,17.33z M228.59,29.51h13.24v46.04h-13.24V29.51z"/>
		<path class="st3" d="M270.8,13.33h15.64l24,42.66V13.33h13.42v62.21h-15.64l-24-42.66v42.66H270.8V13.33z"/>
		<path class="st3" d="M352.21,76.61c-3.67,0-6.98-0.59-9.91-1.78c-2.93-1.18-5.44-2.84-7.51-4.98c-2.08-2.13-3.67-4.68-4.8-7.64
			c-1.13-2.96-1.69-6.19-1.69-9.69s0.56-6.71,1.69-9.64c1.13-2.93,2.72-5.47,4.8-7.6c2.07-2.13,4.58-3.81,7.51-5.02
			c2.93-1.21,6.24-1.82,9.91-1.82c3.67,0,6.98,0.61,9.91,1.82c2.93,1.21,5.44,2.89,7.51,5.02c2.07,2.13,3.67,4.67,4.8,7.6
			c1.13,2.93,1.69,6.15,1.69,9.64s-0.56,6.72-1.69,9.69c-1.13,2.96-2.73,5.51-4.8,7.64c-2.08,2.13-4.58,3.79-7.51,4.98
			C359.19,76.02,355.88,76.61,352.21,76.61z M352.21,67.1c3.26,0,5.82-1.26,7.69-3.78c1.87-2.52,2.8-6.12,2.8-10.8
			s-0.93-8.28-2.8-10.8c-1.87-2.52-4.43-3.78-7.69-3.78c-3.26,0-5.82,1.26-7.69,3.78c-1.87,2.52-2.8,6.12-2.8,10.8
			s0.93,8.28,2.8,10.8C346.39,65.84,348.95,67.1,352.21,67.1z"/>
		<path class="st3" d="M375.23,29.51h7.38V15.73h13.24v13.78h13.33v9.33h-13.33v18.31c0,2.08,0.13,3.75,0.4,5.02
			c0.27,1.28,0.68,2.28,1.24,3.02c0.56,0.74,1.27,1.25,2.13,1.51c0.86,0.27,1.88,0.4,3.07,0.4c1.9,0,3.79-0.27,5.69-0.8l1.07,9.42
			c-1.36,0.3-2.77,0.52-4.22,0.67c-1.45,0.15-2.86,0.22-4.22,0.22c-3.97,0-7.15-0.5-9.55-1.51c-2.4-1.01-4.25-2.52-5.55-4.53
			c-1.3-2.01-2.18-4.56-2.62-7.64c-0.44-3.08-0.67-6.67-0.67-10.75V38.84h-7.38V29.51z"/>
		<path class="st3" d="M434.24,76.61c-4.33,0-8.07-0.61-11.24-1.82c-3.17-1.21-5.79-2.9-7.87-5.07c-2.08-2.16-3.62-4.71-4.62-7.64
			c-1.01-2.93-1.51-6.15-1.51-9.64c0-3.61,0.52-6.9,1.56-9.87c1.04-2.96,2.53-5.5,4.49-7.6c1.96-2.1,4.31-3.72,7.07-4.84
			c2.75-1.12,5.82-1.69,9.2-1.69c3.61,0,6.81,0.61,9.6,1.82c2.78,1.21,5.14,2.9,7.07,5.07c1.92,2.16,3.38,4.74,4.35,7.73
			c0.98,2.99,1.47,6.3,1.47,9.91c0,0.47-0.02,1.07-0.04,1.78c-0.03,0.71-0.1,1.48-0.22,2.31h-31.46
			c0.59,6.81,5.04,10.22,13.33,10.22c2.49,0,4.89-0.31,7.2-0.93c2.31-0.62,4.41-1.58,6.31-2.89l0.98,9.95
			c-2.07,1.13-4.47,1.94-7.2,2.44C439.96,76.36,437.14,76.61,434.24,76.61z M431.31,37.77c-2.73,0-4.89,0.88-6.49,2.62
			c-1.6,1.75-2.52,4.28-2.75,7.6h18.66c-0.3-3.32-1.25-5.85-2.84-7.6C436.29,38.65,434.09,37.77,431.31,37.77z"/>
		<path class="st3" d="M494.85,65.77c4.09,0,7.24-1.13,9.47-3.38c2.22-2.25,3.63-6.1,4.22-11.55c-1.54,1.3-3.42,2.31-5.64,3.02
			c-2.22,0.71-4.58,1.07-7.07,1.07c-2.79,0-5.39-0.47-7.82-1.42c-2.43-0.95-4.55-2.33-6.36-4.13c-1.81-1.81-3.23-4.03-4.27-6.67
			c-1.04-2.64-1.56-5.64-1.56-9.02c0-3.2,0.53-6.12,1.6-8.75c1.07-2.64,2.58-4.89,4.53-6.75c1.96-1.87,4.32-3.32,7.11-4.36
			c2.78-1.04,5.89-1.55,9.33-1.55c3.61,0,6.93,0.59,9.95,1.78c3.02,1.19,5.61,3.02,7.78,5.51c2.16,2.49,3.84,5.69,5.02,9.6
			c1.18,3.91,1.78,8.59,1.78,14.04c0,10.84-2.3,19.12-6.89,24.84c-4.59,5.72-11.51,8.58-20.75,8.58c-2.73,0-5.45-0.25-8.18-0.75
			c-2.73-0.5-5.13-1.2-7.2-2.09l0.98-11.46c2.07,1.19,4.28,2.06,6.62,2.62C489.86,65.49,492.31,65.77,494.85,65.77z M498.59,23.11
			c-2.43,0-4.49,0.83-6.18,2.49c-1.69,1.66-2.53,4.33-2.53,8c0,3.73,0.8,6.41,2.4,8.04c1.6,1.63,3.7,2.44,6.31,2.44
			c1.9,0,3.73-0.38,5.51-1.16c1.78-0.77,3.32-1.84,4.62-3.2c-0.18-3.14-0.53-5.78-1.07-7.91c-0.53-2.13-1.23-3.84-2.09-5.11
			c-0.86-1.27-1.88-2.19-3.07-2.76C501.31,23.39,500.01,23.11,498.59,23.11z"/>
		<path class="st3" d="M26.07,136.04c-0.98,0.75-2.22,1.27-3.72,1.56c-1.5,0.29-3.1,0.44-4.79,0.44c-2.05,0-3.98-0.35-5.77-1.05
			c-1.79-0.7-3.36-1.77-4.7-3.2c-1.34-1.43-2.4-3.27-3.18-5.5s-1.17-4.88-1.17-7.95c0-3.19,0.43-5.91,1.3-8.14
			c0.86-2.23,2.01-4.06,3.42-5.48c1.42-1.42,3.01-2.45,4.77-3.11s3.55-0.98,5.38-0.98c1.96,0,3.55,0.11,4.79,0.32s2.3,0.5,3.18,0.86
			l-0.98,3.62c-1.57-0.78-3.8-1.17-6.7-1.17c-1.34,0-2.66,0.24-3.96,0.73c-1.3,0.49-2.47,1.29-3.5,2.4
			c-1.03,1.11-1.85,2.56-2.47,4.35c-0.62,1.79-0.93,3.99-0.93,6.6c0,2.35,0.29,4.4,0.88,6.16c0.59,1.76,1.39,3.23,2.42,4.4
			c1.03,1.17,2.23,2.05,3.62,2.64s2.89,0.88,4.52,0.88c1.47,0,2.75-0.15,3.84-0.44c1.09-0.29,2.01-0.67,2.76-1.13L26.07,136.04z"/>
		<path class="st3" d="M28.36,114.81c1.24-0.75,2.68-1.3,4.33-1.66c1.65-0.36,3.37-0.54,5.16-0.54c1.7,0,3.06,0.23,4.08,0.68
			c1.03,0.46,1.81,1.05,2.35,1.79c0.54,0.73,0.9,1.54,1.08,2.42c0.18,0.88,0.27,1.76,0.27,2.64c0,1.96-0.05,3.86-0.15,5.72
			s-0.15,3.62-0.15,5.28c0,1.21,0.05,2.35,0.15,3.42c0.1,1.08,0.28,2.07,0.54,2.98h-2.88l-1.03-3.42h-0.24
			c-0.29,0.46-0.66,0.9-1.1,1.34s-0.97,0.83-1.59,1.17c-0.62,0.34-1.34,0.63-2.15,0.86c-0.82,0.23-1.74,0.34-2.79,0.34
			c-1.04,0-2.01-0.16-2.91-0.49c-0.9-0.33-1.67-0.79-2.32-1.39s-1.17-1.33-1.54-2.18c-0.38-0.85-0.56-1.81-0.56-2.88
			c0-1.43,0.29-2.63,0.88-3.59c0.59-0.96,1.41-1.73,2.47-2.3c1.06-0.57,2.33-0.98,3.81-1.22c1.48-0.24,3.12-0.37,4.92-0.37
			c0.46,0,0.9,0,1.34,0s0.89,0.03,1.34,0.1c0.1-0.98,0.15-1.86,0.15-2.64c0-1.79-0.36-3.05-1.08-3.77
			c-0.72-0.72-2.02-1.08-3.91-1.08c-0.55,0-1.15,0.04-1.79,0.13s-1.29,0.2-1.96,0.35c-0.67,0.15-1.3,0.34-1.91,0.55
			c-0.6,0.22-1.13,0.46-1.59,0.73L28.36,114.81z M35.31,134.42c0.91,0,1.73-0.12,2.45-0.37c0.72-0.25,1.34-0.55,1.86-0.93
			c0.52-0.37,0.95-0.79,1.3-1.25c0.34-0.46,0.59-0.9,0.76-1.32v-4.06c-0.46-0.03-0.92-0.06-1.39-0.07s-0.94-0.02-1.39-0.02
			c-1.01,0-2,0.06-2.96,0.17s-1.81,0.33-2.54,0.64c-0.73,0.31-1.32,0.73-1.76,1.27c-0.44,0.54-0.66,1.21-0.66,2.03
			c0,1.14,0.41,2.08,1.22,2.81C32.99,134.05,34.04,134.42,35.31,134.42z M36.63,102.24h4.35v1.03l-4.94,6.26h-2.3L36.63,102.24z"/>
		<path class="st3" d="M64.4,137.45v-13.84c0-1.3-0.06-2.44-0.17-3.4c-0.11-0.96-0.33-1.77-0.66-2.42
			c-0.33-0.65-0.79-1.14-1.39-1.47c-0.6-0.33-1.39-0.49-2.37-0.49c-1.5,0-2.75,0.46-3.74,1.37c-0.99,0.91-1.69,2.05-2.08,3.42v16.82
			h-3.91V113h2.74l0.73,2.98h0.2c0.88-1.04,1.9-1.9,3.06-2.57c1.16-0.67,2.67-1,4.52-1c1.56,0,2.84,0.3,3.84,0.9
			c0.99,0.6,1.77,1.66,2.32,3.15c0.75-1.27,1.79-2.27,3.11-2.98c1.32-0.72,2.81-1.08,4.47-1.08c1.37,0,2.53,0.15,3.47,0.46
			c0.95,0.31,1.73,0.86,2.35,1.64s1.07,1.84,1.35,3.18c0.28,1.34,0.42,3.03,0.42,5.09v14.67h-3.91v-14.72
			c0-1.17-0.06-2.19-0.17-3.06c-0.12-0.86-0.34-1.58-0.68-2.15c-0.34-0.57-0.82-0.99-1.42-1.27s-1.39-0.42-2.37-0.42
			c-1.63,0-2.9,0.46-3.81,1.37c-0.91,0.91-1.57,2.22-1.96,3.91v16.33H64.4z"/>
		<path class="st3" d="M86.46,114.81c1.24-0.75,2.68-1.3,4.33-1.66s3.37-0.54,5.16-0.54c1.7,0,3.06,0.23,4.08,0.68
			c1.03,0.46,1.81,1.05,2.35,1.79c0.54,0.73,0.9,1.54,1.08,2.42c0.18,0.88,0.27,1.76,0.27,2.64c0,1.96-0.05,3.86-0.15,5.72
			s-0.15,3.62-0.15,5.28c0,1.21,0.05,2.35,0.15,3.42c0.1,1.08,0.28,2.07,0.54,2.98h-2.88l-1.03-3.42h-0.24
			c-0.29,0.46-0.66,0.9-1.1,1.34s-0.97,0.83-1.59,1.17c-0.62,0.34-1.34,0.63-2.15,0.86c-0.82,0.23-1.74,0.34-2.79,0.34
			c-1.04,0-2.01-0.16-2.91-0.49c-0.9-0.33-1.67-0.79-2.32-1.39s-1.17-1.33-1.54-2.18c-0.38-0.85-0.56-1.81-0.56-2.88
			c0-1.43,0.29-2.63,0.88-3.59c0.59-0.96,1.41-1.73,2.47-2.3c1.06-0.57,2.33-0.98,3.81-1.22c1.48-0.24,3.12-0.37,4.92-0.37
			c0.46,0,0.9,0,1.34,0s0.89,0.03,1.34,0.1c0.1-0.98,0.15-1.86,0.15-2.64c0-1.79-0.36-3.05-1.08-3.77
			c-0.72-0.72-2.02-1.08-3.91-1.08c-0.55,0-1.15,0.04-1.79,0.13s-1.29,0.2-1.96,0.35c-0.67,0.15-1.3,0.34-1.91,0.55
			c-0.6,0.22-1.13,0.46-1.59,0.73L86.46,114.81z M93.4,134.42c0.91,0,1.73-0.12,2.45-0.37c0.72-0.25,1.34-0.55,1.86-0.93
			c0.52-0.37,0.95-0.79,1.3-1.25c0.34-0.46,0.59-0.9,0.76-1.32v-4.06c-0.46-0.03-0.92-0.06-1.39-0.07s-0.94-0.02-1.39-0.02
			c-1.01,0-2,0.06-2.96,0.17s-1.81,0.33-2.54,0.64c-0.73,0.31-1.32,0.73-1.76,1.27c-0.44,0.54-0.66,1.21-0.66,2.03
			c0,1.14,0.41,2.08,1.22,2.81C91.09,134.05,92.13,134.42,93.4,134.42z"/>
		<path class="st3" d="M119.71,116.77c-0.98-0.33-1.91-0.49-2.79-0.49c-1.4,0-2.51,0.38-3.33,1.15c-0.81,0.77-1.32,1.74-1.52,2.91
			v17.12h-3.91V113h2.74l0.73,2.98h0.2c0.62-1.11,1.36-1.96,2.22-2.57c0.86-0.6,1.96-0.9,3.3-0.9c0.95,0,2.01,0.16,3.18,0.49
			L119.71,116.77z"/>
		<path class="st3" d="M121.47,114.81c1.24-0.75,2.68-1.3,4.33-1.66s3.37-0.54,5.16-0.54c1.7,0,3.06,0.23,4.08,0.68
			c1.03,0.46,1.81,1.05,2.35,1.79c0.54,0.73,0.9,1.54,1.08,2.42c0.18,0.88,0.27,1.76,0.27,2.64c0,1.96-0.05,3.86-0.15,5.72
			s-0.15,3.62-0.15,5.28c0,1.21,0.05,2.35,0.15,3.42c0.1,1.08,0.28,2.07,0.54,2.98h-2.88l-1.03-3.42h-0.24
			c-0.29,0.46-0.66,0.9-1.1,1.34s-0.97,0.83-1.59,1.17c-0.62,0.34-1.34,0.63-2.15,0.86c-0.82,0.23-1.74,0.34-2.79,0.34
			c-1.04,0-2.01-0.16-2.91-0.49c-0.9-0.33-1.67-0.79-2.32-1.39s-1.17-1.33-1.54-2.18c-0.38-0.85-0.56-1.81-0.56-2.88
			c0-1.43,0.29-2.63,0.88-3.59c0.59-0.96,1.41-1.73,2.47-2.3c1.06-0.57,2.33-0.98,3.81-1.22c1.48-0.24,3.12-0.37,4.92-0.37
			c0.46,0,0.9,0,1.34,0s0.89,0.03,1.34,0.1c0.1-0.98,0.15-1.86,0.15-2.64c0-1.79-0.36-3.05-1.08-3.77
			c-0.72-0.72-2.02-1.08-3.91-1.08c-0.55,0-1.15,0.04-1.79,0.13s-1.29,0.2-1.96,0.35c-0.67,0.15-1.3,0.34-1.91,0.55
			c-0.6,0.22-1.13,0.46-1.59,0.73L121.47,114.81z M128.42,134.42c0.91,0,1.73-0.12,2.45-0.37c0.72-0.25,1.34-0.55,1.86-0.93
			c0.52-0.37,0.95-0.79,1.3-1.25c0.34-0.46,0.59-0.9,0.76-1.32v-4.06c-0.46-0.03-0.92-0.06-1.39-0.07s-0.94-0.02-1.39-0.02
			c-1.01,0-2,0.06-2.96,0.17s-1.81,0.33-2.54,0.64c-0.73,0.31-1.32,0.73-1.76,1.27c-0.44,0.54-0.66,1.21-0.66,2.03
			c0,1.14,0.41,2.08,1.22,2.81C126.1,134.05,127.15,134.42,128.42,134.42z"/>
		<path class="st3" d="M169.98,135.84c-0.98,0.72-2.14,1.26-3.47,1.64c-1.34,0.37-2.74,0.56-4.21,0.56c-1.89,0-3.49-0.3-4.79-0.91
			c-1.3-0.6-2.37-1.47-3.2-2.59c-0.83-1.12-1.44-2.48-1.81-4.06c-0.38-1.58-0.56-3.33-0.56-5.26c0-4.14,0.91-7.31,2.74-9.51
			c1.83-2.2,4.45-3.3,7.87-3.3c1.57,0,2.89,0.12,3.99,0.37c1.09,0.25,2.08,0.6,2.96,1.05l-1.12,3.37c-0.75-0.42-1.58-0.76-2.49-1
			c-0.91-0.25-1.89-0.37-2.93-0.37c-4.63,0-6.94,3.13-6.94,9.39c0,1.24,0.12,2.42,0.37,3.54c0.24,1.13,0.65,2.12,1.22,2.98
			c0.57,0.86,1.32,1.56,2.25,2.08c0.93,0.52,2.08,0.78,3.45,0.78c1.17,0,2.22-0.18,3.15-0.54c0.93-0.36,1.69-0.77,2.27-1.22
			L169.98,135.84z"/>
		<path class="st3" d="M175.95,113v13.94c0,1.27,0.07,2.39,0.22,3.35s0.4,1.76,0.76,2.4c0.36,0.64,0.85,1.12,1.47,1.44
			s1.4,0.49,2.35,0.49c0.88,0,1.66-0.14,2.35-0.42c0.68-0.28,1.3-0.66,1.83-1.15c0.54-0.49,1.01-1.05,1.42-1.69
			c0.41-0.64,0.74-1.31,1-2.03V113h3.91v17.51c0,1.17,0.04,2.39,0.12,3.64c0.08,1.25,0.22,2.36,0.42,3.3h-2.69l-0.98-3.86h-0.25
			c-0.75,1.27-1.76,2.33-3.03,3.18s-2.89,1.27-4.84,1.27c-1.3,0-2.45-0.16-3.45-0.46s-1.83-0.86-2.49-1.64
			c-0.67-0.78-1.17-1.83-1.52-3.15c-0.34-1.32-0.51-2.99-0.51-5.01V113H175.95z"/>
		<path class="st3" d="M195.46,114.81c1.24-0.75,2.68-1.3,4.33-1.66s3.37-0.54,5.16-0.54c1.7,0,3.06,0.23,4.08,0.68
			c1.03,0.46,1.81,1.05,2.35,1.79c0.54,0.73,0.9,1.54,1.08,2.42c0.18,0.88,0.27,1.76,0.27,2.64c0,1.96-0.05,3.86-0.15,5.72
			s-0.15,3.62-0.15,5.28c0,1.21,0.05,2.35,0.15,3.42c0.1,1.08,0.28,2.07,0.54,2.98h-2.88l-1.03-3.42h-0.24
			c-0.29,0.46-0.66,0.9-1.1,1.34s-0.97,0.83-1.59,1.17c-0.62,0.34-1.34,0.63-2.15,0.86c-0.82,0.23-1.74,0.34-2.79,0.34
			c-1.04,0-2.01-0.16-2.91-0.49c-0.9-0.33-1.67-0.79-2.32-1.39s-1.17-1.33-1.54-2.18c-0.38-0.85-0.56-1.81-0.56-2.88
			c0-1.43,0.29-2.63,0.88-3.59c0.59-0.96,1.41-1.73,2.47-2.3c1.06-0.57,2.33-0.98,3.81-1.22c1.48-0.24,3.12-0.37,4.92-0.37
			c0.46,0,0.9,0,1.34,0s0.89,0.03,1.34,0.1c0.1-0.98,0.15-1.86,0.15-2.64c0-1.79-0.36-3.05-1.08-3.77
			c-0.72-0.72-2.02-1.08-3.91-1.08c-0.55,0-1.15,0.04-1.79,0.13s-1.29,0.2-1.96,0.35c-0.67,0.15-1.3,0.34-1.91,0.55
			c-0.6,0.22-1.13,0.46-1.59,0.73L195.46,114.81z M202.41,134.42c0.91,0,1.73-0.12,2.45-0.37c0.72-0.25,1.34-0.55,1.86-0.93
			c0.52-0.37,0.95-0.79,1.3-1.25c0.34-0.46,0.59-0.9,0.76-1.32v-4.06c-0.46-0.03-0.92-0.06-1.39-0.07s-0.94-0.02-1.39-0.02
			c-1.01,0-2,0.06-2.96,0.17s-1.81,0.33-2.54,0.64c-0.73,0.31-1.32,0.73-1.76,1.27c-0.44,0.54-0.66,1.21-0.66,2.03
			c0,1.14,0.41,2.08,1.22,2.81C200.09,134.05,201.14,134.42,202.41,134.42z M203.73,102.24h4.35v1.03l-4.94,6.26h-2.3L203.73,102.24
			z"/>
		<path class="st3" d="M235.95,129.04c0,1.66,0.02,3.17,0.05,4.52c0.03,1.35,0.18,2.68,0.44,3.99h-2.64l-0.98-3.47h-0.2
			c-0.65,1.14-1.6,2.09-2.84,2.84c-1.24,0.75-2.69,1.13-4.35,1.13c-3.26,0-5.68-1.03-7.26-3.08c-1.58-2.05-2.37-5.26-2.37-9.63
			c0-4.17,0.99-7.34,2.96-9.51c1.97-2.17,4.69-3.25,8.14-3.25c1.21,0,2.16,0.07,2.86,0.2c0.7,0.13,1.46,0.34,2.27,0.64v-10.17h3.91
			V129.04z M226.08,134.62c1.66,0,2.98-0.43,3.96-1.3c0.98-0.86,1.65-2.18,2-3.94v-12.13c-0.59-0.46-1.25-0.78-2-0.98
			c-0.75-0.2-1.74-0.29-2.98-0.29c-2.25,0-4.01,0.74-5.28,2.23s-1.91,3.86-1.91,7.12c0,1.34,0.11,2.58,0.32,3.72
			c0.21,1.14,0.56,2.12,1.05,2.93c0.49,0.82,1.13,1.46,1.93,1.93C223.96,134.38,224.93,134.62,226.08,134.62z"/>
		<path class="st3" d="M252.09,116.77c-0.98-0.33-1.91-0.49-2.79-0.49c-1.4,0-2.51,0.38-3.33,1.15c-0.81,0.77-1.32,1.74-1.52,2.91
			v17.12h-3.91V113h2.74l0.73,2.98h0.2c0.62-1.11,1.36-1.96,2.22-2.57c0.86-0.6,1.96-0.9,3.3-0.9c0.95,0,2.01,0.16,3.18,0.49
			L252.09,116.77z"/>
		<path class="st3" d="M257.76,113v13.94c0,1.27,0.07,2.39,0.22,3.35s0.4,1.76,0.76,2.4c0.36,0.64,0.85,1.12,1.47,1.44
			s1.4,0.49,2.35,0.49c0.88,0,1.66-0.14,2.35-0.42c0.68-0.28,1.3-0.66,1.83-1.15c0.54-0.49,1.01-1.05,1.42-1.69
			c0.41-0.64,0.74-1.31,1-2.03V113h3.91v17.51c0,1.17,0.04,2.39,0.12,3.64c0.08,1.25,0.22,2.36,0.42,3.3h-2.69l-0.98-3.86h-0.25
			c-0.75,1.27-1.76,2.33-3.03,3.18s-2.89,1.27-4.84,1.27c-1.3,0-2.45-0.16-3.45-0.46s-1.83-0.86-2.49-1.64
			c-0.67-0.78-1.17-1.83-1.52-3.15c-0.34-1.32-0.51-2.99-0.51-5.01V113H257.76z"/>
		<path class="st3" d="M277.67,113h2.69l0.73,2.93h0.2c0.75-1.14,1.72-2.01,2.91-2.62c1.19-0.6,2.55-0.9,4.08-0.9
			c3.26,0,5.69,0.96,7.29,2.88c1.6,1.92,2.4,5.07,2.4,9.44c0,2.05-0.27,3.9-0.81,5.55c-0.54,1.65-1.3,3.04-2.27,4.18
			c-0.98,1.14-2.16,2.02-3.55,2.64c-1.39,0.62-2.93,0.93-4.62,0.93c-1.21,0-2.16-0.07-2.86-0.22c-0.7-0.15-1.46-0.4-2.27-0.76v10.17
			h-3.91V113z M287.55,115.84c-1.66,0-2.97,0.43-3.94,1.3c-0.96,0.86-1.64,2.18-2.03,3.94v12.13c0.59,0.46,1.25,0.81,2,1.05
			s1.74,0.37,2.98,0.37c2.25,0,4.03-0.84,5.35-2.52s1.98-4.15,1.98-7.41c0-1.34-0.12-2.55-0.34-3.64c-0.23-1.09-0.6-2.02-1.1-2.79
			c-0.51-0.77-1.16-1.36-1.96-1.79S288.72,115.84,287.55,115.84z"/>
		<path class="st3" d="M305.54,131.44c0,1.14,0.2,1.96,0.59,2.44c0.39,0.49,0.95,0.73,1.66,0.73c0.42,0,0.88-0.03,1.37-0.1
			c0.49-0.06,1.04-0.21,1.66-0.44l0.44,3.08c-0.52,0.26-1.25,0.47-2.18,0.64c-0.93,0.16-1.74,0.24-2.42,0.24
			c-1.47,0-2.67-0.42-3.62-1.25c-0.95-0.83-1.42-2.24-1.42-4.23v-29.34h3.91V131.44z"/>
		<path class="st3" d="M330.38,135.5c-0.98,0.78-2.21,1.4-3.69,1.86s-3.06,0.68-4.72,0.68c-1.86,0-3.47-0.3-4.84-0.91
			c-1.37-0.6-2.49-1.47-3.37-2.59c-0.88-1.12-1.53-2.47-1.96-4.03c-0.42-1.56-0.64-3.33-0.64-5.28c0-4.17,0.93-7.35,2.79-9.54
			s4.52-3.28,7.97-3.28c1.11,0,2.22,0.12,3.33,0.37c1.11,0.25,2.1,0.71,2.98,1.39c0.88,0.68,1.6,1.66,2.15,2.91
			c0.55,1.25,0.83,2.91,0.83,4.96c0,1.08-0.1,2.27-0.29,3.57h-15.7c0,1.44,0.15,2.71,0.44,3.81c0.29,1.11,0.75,2.05,1.37,2.81
			c0.62,0.77,1.43,1.35,2.42,1.76c0.99,0.41,2.21,0.61,3.64,0.61c1.11,0,2.22-0.2,3.33-0.59c1.11-0.39,1.94-0.85,2.49-1.37
			L330.38,135.5z M321.97,115.84c-1.92,0-3.46,0.51-4.62,1.52c-1.16,1.01-1.85,2.74-2.08,5.18h12.13c0-2.48-0.47-4.21-1.42-5.21
			C325.04,116.33,323.7,115.84,321.97,115.84z"/>
		<path class="st3" d="M363.35,129.04c0,1.66,0.02,3.17,0.05,4.52c0.03,1.35,0.18,2.68,0.44,3.99h-2.64l-0.98-3.47h-0.2
			c-0.65,1.14-1.6,2.09-2.84,2.84c-1.24,0.75-2.69,1.13-4.35,1.13c-3.26,0-5.68-1.03-7.26-3.08c-1.58-2.05-2.37-5.26-2.37-9.63
			c0-4.17,0.99-7.34,2.96-9.51c1.97-2.17,4.69-3.25,8.14-3.25c1.21,0,2.16,0.07,2.86,0.2c0.7,0.13,1.46,0.34,2.27,0.64v-10.17h3.91
			V129.04z M353.47,134.62c1.66,0,2.98-0.43,3.96-1.3c0.98-0.86,1.65-2.18,2-3.94v-12.13c-0.59-0.46-1.25-0.78-2-0.98
			c-0.75-0.2-1.74-0.29-2.98-0.29c-2.25,0-4.01,0.74-5.28,2.23s-1.91,3.86-1.91,7.12c0,1.34,0.11,2.58,0.32,3.72
			c0.21,1.14,0.56,2.12,1.05,2.93c0.49,0.82,1.13,1.46,1.93,1.93C351.36,134.38,352.32,134.62,353.47,134.62z"/>
		<path class="st3" d="M385.79,135.5c-0.98,0.78-2.21,1.4-3.69,1.86s-3.06,0.68-4.72,0.68c-1.86,0-3.47-0.3-4.84-0.91
			c-1.37-0.6-2.49-1.47-3.37-2.59c-0.88-1.12-1.53-2.47-1.96-4.03c-0.42-1.56-0.64-3.33-0.64-5.28c0-4.17,0.93-7.35,2.79-9.54
			s4.52-3.28,7.97-3.28c1.11,0,2.22,0.12,3.33,0.37c1.11,0.25,2.1,0.71,2.98,1.39c0.88,0.68,1.6,1.66,2.15,2.91
			c0.55,1.25,0.83,2.91,0.83,4.96c0,1.08-0.1,2.27-0.29,3.57h-15.7c0,1.44,0.15,2.71,0.44,3.81c0.29,1.11,0.75,2.05,1.37,2.81
			c0.62,0.77,1.43,1.35,2.42,1.76c0.99,0.41,2.21,0.61,3.64,0.61c1.11,0,2.22-0.2,3.33-0.59c1.11-0.39,1.94-0.85,2.49-1.37
			L385.79,135.5z M377.38,115.84c-1.92,0-3.46,0.51-4.62,1.52c-1.16,1.01-1.85,2.74-2.08,5.18h12.13c0-2.48-0.47-4.21-1.42-5.21
			C380.44,116.33,379.11,115.84,377.38,115.84z"/>
		<path class="st3" d="M421.83,126.94h-5.77v10.51h-3.81v-10.51h-15.06v-1.61l16.24-22.64h2.64v20.83h5.77V126.94z M412.25,112.85
			l0.49-4.01h-0.15l-1.71,3.33l-6.9,9.34l-2.35,2.4l3.42-0.39h7.19V112.85z"/>
		<path class="st3" d="M423.25,129.29c0-2.05,0.54-3.84,1.61-5.35c1.08-1.52,2.75-2.89,5.04-4.13c-0.82-0.49-1.57-1-2.27-1.54
			s-1.32-1.15-1.86-1.83s-0.96-1.45-1.27-2.3c-0.31-0.85-0.46-1.83-0.46-2.93c0-1.27,0.22-2.43,0.66-3.47
			c0.44-1.04,1.08-1.94,1.91-2.69c0.83-0.75,1.83-1.34,2.98-1.76c1.16-0.42,2.47-0.64,3.94-0.64c1.37,0,2.61,0.2,3.72,0.59
			s2.05,0.93,2.81,1.61c0.77,0.68,1.36,1.5,1.79,2.44c0.42,0.95,0.64,1.99,0.64,3.13c0,1.86-0.42,3.5-1.27,4.92
			c-0.85,1.42-2.25,2.81-4.21,4.18c0.85,0.49,1.65,1.03,2.42,1.61c0.77,0.59,1.43,1.24,2,1.96c0.57,0.72,1.02,1.52,1.34,2.42
			c0.33,0.9,0.49,1.92,0.49,3.06c0,1.4-0.23,2.68-0.68,3.84c-0.46,1.16-1.13,2.15-2,2.98c-0.88,0.83-1.96,1.48-3.23,1.96
			c-1.27,0.47-2.72,0.71-4.35,0.71c-1.57,0-2.95-0.23-4.16-0.68s-2.22-1.08-3.06-1.86c-0.83-0.78-1.46-1.7-1.88-2.76
			S423.25,130.53,423.25,129.29z M439.44,128.8c0-0.98-0.2-1.83-0.59-2.57c-0.39-0.73-0.91-1.4-1.54-2
			c-0.64-0.6-1.36-1.15-2.18-1.64c-0.82-0.49-1.66-0.96-2.54-1.42c-1.99,1.11-3.41,2.35-4.25,3.72s-1.27,2.67-1.27,3.91
			c0,0.78,0.13,1.53,0.39,2.25c0.26,0.72,0.65,1.34,1.17,1.86c0.52,0.52,1.17,0.94,1.93,1.25c0.77,0.31,1.65,0.46,2.67,0.46
			c0.81,0,1.6-0.12,2.35-0.37c0.75-0.24,1.41-0.6,1.98-1.08c0.57-0.47,1.03-1.08,1.37-1.81
			C439.27,130.63,439.44,129.78,439.44,128.8z M427.85,111.09c0,0.91,0.18,1.72,0.54,2.42c0.36,0.7,0.84,1.33,1.44,1.88
			c0.6,0.55,1.3,1.07,2.08,1.54s1.6,0.92,2.45,1.34c1.47-1.14,2.55-2.27,3.25-3.38c0.7-1.11,1.05-2.33,1.05-3.67
			c0-1.66-0.51-2.94-1.54-3.84s-2.26-1.34-3.69-1.34c-0.88,0-1.66,0.15-2.35,0.44c-0.69,0.29-1.27,0.67-1.76,1.13
			c-0.49,0.46-0.86,0.99-1.1,1.59S427.85,110.44,427.85,111.09z"/>
		<path class="st3" d="M484.23,114.47l0.49-5.13h-0.25l-1.86,4.69l-8.9,15.45h-1.22l-9.44-15.5l-1.76-4.65h-0.25l0.69,5.09v23.03
			h-3.81v-34.23h3.03l10.71,17.51l1.61,3.81h0.1l1.52-3.91l10.22-17.41h3.18v34.23h-4.06V114.47z"/>
		<path class="st3" d="M493.67,103.56c1.24-0.29,2.57-0.49,4.01-0.59c1.43-0.1,2.85-0.15,4.25-0.15c1.5,0,3.02,0.15,4.57,0.44
			c1.55,0.29,2.96,0.83,4.23,1.61c1.27,0.78,2.31,1.86,3.11,3.23s1.2,3.11,1.2,5.23c0,2.09-0.38,3.85-1.13,5.28
			c-0.75,1.44-1.74,2.6-2.98,3.5c-1.24,0.9-2.66,1.54-4.25,1.93c-1.6,0.39-3.24,0.59-4.94,0.59c-0.16,0-0.43,0-0.81,0
			c-0.38,0-0.77-0.01-1.17-0.02c-0.41-0.02-0.81-0.04-1.2-0.07c-0.39-0.03-0.67-0.07-0.83-0.1v13.01h-4.06V103.56z M502.03,106.35
			c-0.85,0-1.66,0.02-2.45,0.05c-0.78,0.03-1.4,0.11-1.86,0.24v14.18c0.16,0.07,0.42,0.11,0.78,0.12c0.36,0.02,0.73,0.03,1.13,0.05
			c0.39,0.02,0.77,0.02,1.13,0.02c0.36,0,0.62,0,0.78,0c1.11,0,2.21-0.11,3.3-0.32c1.09-0.21,2.08-0.59,2.96-1.15
			c0.88-0.55,1.59-1.34,2.13-2.35c0.54-1.01,0.81-2.3,0.81-3.86c0-1.34-0.25-2.45-0.76-3.35c-0.51-0.9-1.17-1.61-2-2.15
			c-0.83-0.54-1.77-0.92-2.81-1.15C504.12,106.46,503.08,106.35,502.03,106.35z"/>
		<path class="st3" d="M544.63,129.04c0,1.66,0.02,3.17,0.05,4.52c0.03,1.35,0.18,2.68,0.44,3.99h-2.64l-0.98-3.47h-0.2
			c-0.65,1.14-1.6,2.09-2.84,2.84c-1.24,0.75-2.69,1.13-4.35,1.13c-3.26,0-5.68-1.03-7.26-3.08c-1.58-2.05-2.37-5.26-2.37-9.63
			c0-4.17,0.99-7.34,2.96-9.51c1.97-2.17,4.69-3.25,8.14-3.25c1.21,0,2.16,0.07,2.86,0.2c0.7,0.13,1.46,0.34,2.27,0.64v-10.17h3.91
			V129.04z M534.75,134.62c1.66,0,2.98-0.43,3.96-1.3c0.98-0.86,1.65-2.18,2-3.94v-12.13c-0.59-0.46-1.25-0.78-2-0.98
			c-0.75-0.2-1.74-0.29-2.98-0.29c-2.25,0-4.01,0.74-5.28,2.23s-1.91,3.86-1.91,7.12c0,1.34,0.11,2.58,0.32,3.72
			c0.21,1.14,0.56,2.12,1.05,2.93c0.49,0.82,1.13,1.46,1.93,1.93C532.64,134.38,533.61,134.62,534.75,134.62z"/>
		<path class="st3" d="M567.07,135.5c-0.98,0.78-2.21,1.4-3.69,1.86s-3.06,0.68-4.72,0.68c-1.86,0-3.47-0.3-4.84-0.91
			c-1.37-0.6-2.49-1.47-3.37-2.59c-0.88-1.12-1.53-2.47-1.96-4.03c-0.42-1.56-0.64-3.33-0.64-5.28c0-4.17,0.93-7.35,2.79-9.54
			s4.52-3.28,7.97-3.28c1.11,0,2.22,0.12,3.33,0.37c1.11,0.25,2.1,0.71,2.98,1.39c0.88,0.68,1.6,1.66,2.15,2.91
			c0.55,1.25,0.83,2.91,0.83,4.96c0,1.08-0.1,2.27-0.29,3.57h-15.7c0,1.44,0.15,2.71,0.44,3.81c0.29,1.11,0.75,2.05,1.37,2.81
			c0.62,0.77,1.43,1.35,2.42,1.76c0.99,0.41,2.21,0.61,3.64,0.61c1.11,0,2.22-0.2,3.33-0.59c1.11-0.39,1.94-0.85,2.49-1.37
			L567.07,135.5z M558.66,115.84c-1.92,0-3.46,0.51-4.62,1.52c-1.16,1.01-1.85,2.74-2.08,5.18h12.13c0-2.48-0.47-4.21-1.42-5.21
			C561.73,116.33,560.39,115.84,558.66,115.84z"/>
		<path class="st3" d="M587.61,127.33l1.37,4.65h0.05l1.22-4.74l5.48-14.23h4.21l-10.42,24.99h-1.66L577.25,113h4.5L587.61,127.33z"
			/>
		<path class="st3" d="M600.82,114.81c1.24-0.75,2.68-1.3,4.33-1.66s3.37-0.54,5.16-0.54c1.7,0,3.06,0.23,4.08,0.68
			c1.03,0.46,1.81,1.05,2.35,1.79c0.54,0.73,0.9,1.54,1.08,2.42c0.18,0.88,0.27,1.76,0.27,2.64c0,1.96-0.05,3.86-0.15,5.72
			s-0.15,3.62-0.15,5.28c0,1.21,0.05,2.35,0.15,3.42c0.1,1.08,0.28,2.07,0.54,2.98h-2.88l-1.03-3.42h-0.24
			c-0.29,0.46-0.66,0.9-1.1,1.34s-0.97,0.83-1.59,1.17c-0.62,0.34-1.34,0.63-2.15,0.86c-0.82,0.23-1.74,0.34-2.79,0.34
			c-1.04,0-2.01-0.16-2.91-0.49c-0.9-0.33-1.67-0.79-2.32-1.39s-1.17-1.33-1.54-2.18c-0.38-0.85-0.56-1.81-0.56-2.88
			c0-1.43,0.29-2.63,0.88-3.59c0.59-0.96,1.41-1.73,2.47-2.3c1.06-0.57,2.33-0.98,3.81-1.22c1.48-0.24,3.12-0.37,4.92-0.37
			c0.46,0,0.9,0,1.34,0s0.89,0.03,1.34,0.1c0.1-0.98,0.15-1.86,0.15-2.64c0-1.79-0.36-3.05-1.08-3.77
			c-0.72-0.72-2.02-1.08-3.91-1.08c-0.55,0-1.15,0.04-1.79,0.13s-1.29,0.2-1.96,0.35c-0.67,0.15-1.3,0.34-1.91,0.55
			c-0.6,0.22-1.13,0.46-1.59,0.73L600.82,114.81z M607.76,134.42c0.91,0,1.73-0.12,2.45-0.37c0.72-0.25,1.34-0.55,1.86-0.93
			c0.52-0.37,0.95-0.79,1.3-1.25c0.34-0.46,0.59-0.9,0.76-1.32v-4.06c-0.46-0.03-0.92-0.06-1.39-0.07s-0.94-0.02-1.39-0.02
			c-1.01,0-2,0.06-2.96,0.17s-1.81,0.33-2.54,0.64c-0.73,0.31-1.32,0.73-1.76,1.27c-0.44,0.54-0.66,1.21-0.66,2.03
			c0,1.14,0.41,2.08,1.22,2.81C605.45,134.05,606.49,134.42,607.76,134.42z"/>
		<path class="st3" d="M638.23,137.45v-13.94c0-2.54-0.37-4.46-1.1-5.75c-0.73-1.29-2.08-1.93-4.03-1.93
			c-1.73,0-3.15,0.46-4.28,1.39c-1.13,0.93-1.92,2.1-2.37,3.5v16.72h-3.91V113h2.74l0.73,2.98h0.2c0.78-1.04,1.83-1.9,3.15-2.57
			c1.32-0.67,2.89-1,4.72-1c1.34,0,2.51,0.15,3.52,0.46c1.01,0.31,1.85,0.86,2.52,1.64c0.67,0.78,1.17,1.83,1.52,3.15
			s0.51,2.99,0.51,5.01v14.77H638.23z"/>
		<path class="st3" d="M665.07,138.58c0,3.16-0.84,5.49-2.52,6.99c-1.68,1.5-4.17,2.25-7.46,2.25c-1.96,0-3.53-0.12-4.72-0.37
			c-1.19-0.25-2.21-0.56-3.06-0.95l1.03-3.33c0.75,0.29,1.58,0.57,2.49,0.83c0.91,0.26,2.1,0.39,3.57,0.39
			c1.37,0,2.49-0.12,3.35-0.37c0.86-0.24,1.56-0.65,2.08-1.22s0.88-1.3,1.08-2.2c0.2-0.9,0.29-1.96,0.29-3.2v-2.35h-0.2
			c-0.65,0.95-1.48,1.67-2.49,2.18c-1.01,0.5-2.33,0.76-3.96,0.76c-3.29,0-5.71-1.03-7.26-3.08s-2.32-5.25-2.32-9.58
			c0-4.17,0.99-7.34,2.98-9.51c1.99-2.17,4.92-3.25,8.8-3.25c1.86,0,3.45,0.15,4.77,0.44c1.32,0.29,2.5,0.64,3.54,1.03V138.58z
			 M655.25,134.57c1.66,0,2.97-0.42,3.91-1.25c0.95-0.83,1.61-2.13,2-3.89v-12.52c-1.3-0.62-2.97-0.93-4.99-0.93
			c-2.22,0-3.96,0.75-5.23,2.25c-1.27,1.5-1.91,3.85-1.91,7.04c0,1.37,0.11,2.63,0.34,3.77c0.23,1.14,0.59,2.12,1.08,2.93
			c0.49,0.82,1.13,1.45,1.91,1.91C653.14,134.34,654.1,134.57,655.25,134.57z"/>
		<path class="st3" d="M673.19,113v13.94c0,1.27,0.07,2.39,0.22,3.35s0.4,1.76,0.76,2.4c0.36,0.64,0.85,1.12,1.47,1.44
			s1.4,0.49,2.35,0.49c0.88,0,1.66-0.14,2.35-0.42c0.68-0.28,1.3-0.66,1.83-1.15c0.54-0.49,1.01-1.05,1.42-1.69
			c0.41-0.64,0.74-1.31,1-2.03V113h3.91v17.51c0,1.17,0.04,2.39,0.12,3.64c0.08,1.25,0.22,2.36,0.42,3.3h-2.69l-0.98-3.86h-0.25
			c-0.75,1.27-1.76,2.33-3.03,3.18s-2.89,1.27-4.84,1.27c-1.3,0-2.45-0.16-3.45-0.46s-1.83-0.86-2.49-1.64
			c-0.67-0.78-1.17-1.83-1.52-3.15c-0.34-1.32-0.51-2.99-0.51-5.01V113H673.19z"/>
		<path class="st3" d="M692.7,114.81c1.24-0.75,2.68-1.3,4.33-1.66s3.37-0.54,5.16-0.54c1.7,0,3.06,0.23,4.08,0.68
			c1.03,0.46,1.81,1.05,2.35,1.79c0.54,0.73,0.9,1.54,1.08,2.42c0.18,0.88,0.27,1.76,0.27,2.64c0,1.96-0.05,3.86-0.15,5.72
			s-0.15,3.62-0.15,5.28c0,1.21,0.05,2.35,0.15,3.42c0.1,1.08,0.28,2.07,0.54,2.98h-2.88l-1.03-3.42h-0.24
			c-0.29,0.46-0.66,0.9-1.1,1.34s-0.97,0.83-1.59,1.17c-0.62,0.34-1.34,0.63-2.15,0.86c-0.82,0.23-1.74,0.34-2.79,0.34
			c-1.04,0-2.01-0.16-2.91-0.49c-0.9-0.33-1.67-0.79-2.32-1.39s-1.17-1.33-1.54-2.18c-0.38-0.85-0.56-1.81-0.56-2.88
			c0-1.43,0.29-2.63,0.88-3.59c0.59-0.96,1.41-1.73,2.47-2.3c1.06-0.57,2.33-0.98,3.81-1.22c1.48-0.24,3.12-0.37,4.92-0.37
			c0.46,0,0.9,0,1.34,0s0.89,0.03,1.34,0.1c0.1-0.98,0.15-1.86,0.15-2.64c0-1.79-0.36-3.05-1.08-3.77
			c-0.72-0.72-2.02-1.08-3.91-1.08c-0.55,0-1.15,0.04-1.79,0.13s-1.29,0.2-1.96,0.35c-0.67,0.15-1.3,0.34-1.91,0.55
			c-0.6,0.22-1.13,0.46-1.59,0.73L692.7,114.81z M699.65,134.42c0.91,0,1.73-0.12,2.45-0.37c0.72-0.25,1.34-0.55,1.86-0.93
			c0.52-0.37,0.95-0.79,1.3-1.25c0.34-0.46,0.59-0.9,0.76-1.32v-4.06c-0.46-0.03-0.92-0.06-1.39-0.07s-0.94-0.02-1.39-0.02
			c-1.01,0-2,0.06-2.96,0.17s-1.81,0.33-2.54,0.64c-0.73,0.31-1.32,0.73-1.76,1.27c-0.44,0.54-0.66,1.21-0.66,2.03
			c0,1.14,0.41,2.08,1.22,2.81C697.33,134.05,698.38,134.42,699.65,134.42z"/>
		<path class="st3" d="M725.96,116.77c-0.98-0.33-1.91-0.49-2.79-0.49c-1.4,0-2.51,0.38-3.33,1.15c-0.81,0.77-1.32,1.74-1.52,2.91
			v17.12h-3.91V113h2.74l0.73,2.98h0.2c0.62-1.11,1.36-1.96,2.22-2.57c0.86-0.6,1.96-0.9,3.3-0.9c0.95,0,2.01,0.16,3.18,0.49
			L725.96,116.77z"/>
		<path class="st3" d="M746.89,129.04c0,1.66,0.02,3.17,0.05,4.52c0.03,1.35,0.18,2.68,0.44,3.99h-2.64l-0.98-3.47h-0.2
			c-0.65,1.14-1.6,2.09-2.84,2.84c-1.24,0.75-2.69,1.13-4.35,1.13c-3.26,0-5.68-1.03-7.26-3.08c-1.58-2.05-2.37-5.26-2.37-9.63
			c0-4.17,0.99-7.34,2.96-9.51c1.97-2.17,4.69-3.25,8.14-3.25c1.21,0,2.16,0.07,2.86,0.2c0.7,0.13,1.46,0.34,2.27,0.64v-10.17h3.91
			V129.04z M737.01,134.62c1.66,0,2.98-0.43,3.96-1.3c0.98-0.86,1.65-2.18,2-3.94v-12.13c-0.59-0.46-1.25-0.78-2-0.98
			c-0.75-0.2-1.74-0.29-2.98-0.29c-2.25,0-4.01,0.74-5.28,2.23s-1.91,3.86-1.91,7.12c0,1.34,0.11,2.58,0.32,3.72
			c0.21,1.14,0.56,2.12,1.05,2.93c0.49,0.82,1.13,1.46,1.93,1.93C734.9,134.38,735.87,134.62,737.01,134.62z"/>
		<path class="st3" d="M751.48,105.57c0-0.75,0.25-1.39,0.76-1.93c0.5-0.54,1.15-0.81,1.93-0.81s1.45,0.27,2,0.81
			s0.83,1.18,0.83,1.93s-0.28,1.37-0.83,1.86c-0.55,0.49-1.22,0.73-2,0.73s-1.43-0.25-1.93-0.73
			C751.74,106.94,751.48,106.32,751.48,105.57z M752.32,113h3.91v24.45h-3.91V113z"/>
		<path class="st3" d="M761.27,114.81c1.24-0.75,2.68-1.3,4.33-1.66s3.37-0.54,5.16-0.54c1.7,0,3.06,0.23,4.08,0.68
			c1.03,0.46,1.81,1.05,2.35,1.79c0.54,0.73,0.9,1.54,1.08,2.42c0.18,0.88,0.27,1.76,0.27,2.64c0,1.96-0.05,3.86-0.15,5.72
			s-0.15,3.62-0.15,5.28c0,1.21,0.05,2.35,0.15,3.42c0.1,1.08,0.28,2.07,0.54,2.98h-2.88l-1.03-3.42h-0.24
			c-0.29,0.46-0.66,0.9-1.1,1.34s-0.97,0.83-1.59,1.17c-0.62,0.34-1.34,0.63-2.15,0.86c-0.82,0.23-1.74,0.34-2.79,0.34
			c-1.04,0-2.01-0.16-2.91-0.49c-0.9-0.33-1.67-0.79-2.32-1.39s-1.17-1.33-1.54-2.18c-0.38-0.85-0.56-1.81-0.56-2.88
			c0-1.43,0.29-2.63,0.88-3.59c0.59-0.96,1.41-1.73,2.47-2.3c1.06-0.57,2.33-0.98,3.81-1.22c1.48-0.24,3.12-0.37,4.92-0.37
			c0.46,0,0.9,0,1.34,0s0.89,0.03,1.34,0.1c0.1-0.98,0.15-1.86,0.15-2.64c0-1.79-0.36-3.05-1.08-3.77
			c-0.72-0.72-2.02-1.08-3.91-1.08c-0.55,0-1.15,0.04-1.79,0.13s-1.29,0.2-1.96,0.35c-0.67,0.15-1.3,0.34-1.91,0.55
			c-0.6,0.22-1.13,0.46-1.59,0.73L761.27,114.81z M768.21,134.42c0.91,0,1.73-0.12,2.45-0.37c0.72-0.25,1.34-0.55,1.86-0.93
			c0.52-0.37,0.95-0.79,1.3-1.25c0.34-0.46,0.59-0.9,0.76-1.32v-4.06c-0.46-0.03-0.92-0.06-1.39-0.07s-0.94-0.02-1.39-0.02
			c-1.01,0-2,0.06-2.96,0.17s-1.81,0.33-2.54,0.64c-0.73,0.31-1.32,0.73-1.76,1.27c-0.44,0.54-0.66,1.21-0.66,2.03
			c0,1.14,0.41,2.08,1.22,2.81C765.89,134.05,766.94,134.42,768.21,134.42z"/>
	</g>
</g>
</svg>
